<svg width="117" height="25" viewBox="0 0 117 25" fill="none" xmlns="http://www.w3.org/2000/svg">
<g id="Group 139">
<path id="Vector" fill-rule="evenodd" clip-rule="evenodd" d="M67.3943 0.690078C65.0356 0.942121 62.8028 1.88194 60.9731 3.39286C59.1434 4.90378 57.7974 6.91926 57.1021 9.18908C56.4069 11.4589 56.393 13.8831 57.0623 16.1607C57.7316 18.4384 59.0545 20.4691 60.8668 22.0009C62.397 23.2942 64.2238 24.1874 66.1837 24.6006C68.1435 25.0138 70.1751 24.9341 72.0965 24.3685C74.018 23.803 75.7693 22.7693 77.1936 21.36C78.6179 19.9507 79.6707 18.2099 80.2577 16.2934C80.8447 14.377 80.9476 12.3447 80.5572 10.3786C80.1667 8.4126 79.2952 6.57418 78.0205 5.02803C76.7459 3.48187 75.108 2.27628 73.2535 1.51922C71.399 0.762157 69.3858 0.477272 67.3943 0.690078ZM67.4393 0.960405C70.5507 0.646827 73.6596 1.57793 76.0875 3.55044C78.5153 5.52295 80.0648 8.37666 80.3978 11.4886C80.7307 14.6005 79.82 17.7178 77.8645 20.1601C75.9089 22.6023 73.0674 24.1711 69.9603 24.5239C68.4092 24.7001 66.8386 24.5674 65.3388 24.1337C63.8391 23.7 62.4399 22.9737 61.2218 21.9967C60.0036 21.0197 58.9905 19.8112 58.2408 18.4408C57.4911 17.0704 57.0196 15.5652 56.8534 14.0117C56.6872 12.4582 56.8296 10.8871 57.2724 9.38895C57.7152 7.89076 58.4497 6.495 59.4335 5.282C60.4174 4.069 61.6312 3.06271 63.0052 2.32103C64.3792 1.57936 65.8861 1.11695 67.4393 0.960405Z" fill="#ACBB16"/>
<path id="Vector_2" fill-rule="evenodd" clip-rule="evenodd" d="M68.2016 1.45601C66.5347 1.53339 64.906 1.98075 63.4332 2.7657C61.9604 3.55066 60.6804 4.65356 59.6859 5.99456C58.6914 7.33556 58.0074 8.88109 57.6832 10.5193C57.359 12.1575 57.4029 13.8473 57.8116 15.4664C58.2203 17.0856 58.9836 18.5935 60.0463 19.881C61.109 21.1685 62.4444 22.2034 63.9559 22.9108C65.4675 23.6182 67.1172 23.9803 68.7858 23.971C70.4544 23.9617 72.1001 23.5811 73.6036 22.8569C75.0783 22.1243 76.3752 21.0781 77.4035 19.7914C78.4319 18.5046 79.1669 17.0086 79.5571 15.4078C79.9473 13.807 79.9833 12.1403 79.6626 10.5241C79.3418 8.908 78.672 7.38154 77.7002 6.05157C77.5201 5.73619 77.295 5.60103 77.0699 5.28565C75.9832 4.01054 74.6185 3.00215 73.0809 2.33819C71.5434 1.67423 69.874 1.37242 68.2016 1.45601ZM68.4717 11.4131C68.5167 11.5032 68.5167 11.368 68.5167 11.5482L68.2916 12.4043L68.0665 13.4856C67.7064 12.9449 67.4363 11.7735 67.3012 11.0526C67.1211 9.83615 67.3012 9.20539 67.3462 8.07903C67.1662 8.52957 67.0761 9.16034 67.0311 9.70099C66.5809 9.2955 66.5359 8.93506 65.9057 8.70979C66.5359 9.20539 66.806 9.7911 66.8961 10.8274C66.9411 12.0889 67.1211 12.4493 67.3462 13.5306C66.9411 13.2603 66.716 12.99 66.4009 12.6295C64.8253 10.8274 64.3301 12.0438 63.6998 9.65594C63.6548 10.557 63.8349 10.6471 64.06 11.2779C63.5648 11.2779 63.0696 11.1878 62.6645 11.4581C63.6998 11.5482 64.4201 11.6834 65.0954 12.179C66.5359 13.2152 68.3366 16.1438 68.4266 18.1712C67.9765 17.946 67.5263 16.9548 65.5005 16.1888C64.8253 15.9636 64.2851 15.8735 63.6998 15.5581C63.3847 15.3328 62.7095 14.702 62.7095 14.2064C62.7095 14.7922 63.2497 15.513 63.4748 15.6932L61.359 15.7834C62.7995 15.9185 63.4748 15.7834 64.7352 16.279C65.5906 16.6394 66.5809 17.2702 67.0761 17.7658C67.3912 18.1262 68.3816 18.9372 68.2016 19.4328L67.3462 21.5503C67.0761 22.2712 67.1211 22.3163 67.0311 23.1272C64.4252 22.7256 62.069 21.3482 60.4393 19.2739C58.8096 17.1995 58.028 14.5829 58.2528 11.9537C58.4259 9.98961 59.1482 8.11399 60.3369 6.54166C61.5257 4.96934 63.1329 3.76387 64.9744 3.06331C66.816 2.36275 68.8175 2.19542 70.7496 2.58049C72.6818 2.96555 74.4665 3.88745 75.8995 5.24059L76.1696 5.55597C77.512 6.95258 78.4401 8.69522 78.8502 10.5892C79.2602 12.4833 79.1361 14.4541 78.4916 16.2816C77.8472 18.1091 76.7078 19.7213 75.2007 20.9381C73.6936 22.1549 71.8782 22.9284 69.9572 23.1723C69.6421 21.8207 69.7771 21.28 70.1373 19.9734C70.5424 18.5767 70.7675 18.4866 71.6679 17.7658C73.7837 16.1438 74.684 16.1438 76.7098 15.4229C75.9445 15.3779 75.3593 15.513 74.639 15.6482C74.9991 15.0174 75.1792 14.9273 75.2692 14.0262C75.0892 15.6932 73.1534 15.9636 71.3978 17.0449L70.0923 17.946C69.282 16.324 70.4524 15.7834 71.6679 14.0262C71.983 13.5757 72.4332 12.6746 72.5682 11.9537C72.7483 10.8274 73.0184 10.6922 73.6936 10.0614C73.1534 10.2416 72.9734 10.557 72.6582 10.8274L72.5232 10.0164C72.4782 11.323 72.4332 12.5394 71.1727 13.6658C71.4428 11.9988 71.3527 11.8636 70.8125 10.512C71.3527 12.179 70.9026 13.7559 69.8222 15.0174L68.8768 16.0537C68.7418 15.2878 68.6517 14.3867 68.6517 13.5757C68.6517 13.1702 68.7868 11.8186 69.0569 11.4131C69.1469 10.8274 69.7771 9.7911 70.0473 9.38561L71.0826 8.12408L71.4428 7.76365C71.2177 7.89881 70.6325 8.3043 70.4974 8.48452V7.53837L70.2723 6.8175C70.3624 7.3131 70.4974 7.58343 70.3174 8.21419C69.9572 9.38561 68.5617 10.557 68.5167 11.2779V10.1065C68.0215 10.2867 67.5263 10.8274 67.7964 11.5482L68.0665 10.9175L67.9315 11.5933C68.3366 11.5032 68.2916 11.5482 68.4717 11.4131Z" fill="#293737"/>
<path id="Vector_3" fill-rule="evenodd" clip-rule="evenodd" d="M72.3875 7.98927C72.8826 7.764 73.4228 7.22334 74.4132 7.17829C73.738 7.44861 72.9277 7.71894 72.5225 8.21454C73.6029 9.3409 74.6383 7.764 75.0435 7.44861C75.3136 7.22334 75.5837 7.17829 75.8538 6.95301C75.1785 6.72774 74.4582 6.45741 73.6479 6.63763C72.9277 6.7728 72.2974 7.17829 72.3875 7.98927ZM72.9277 17.3156C74.1431 17.1804 74.2782 17.3606 75.2685 17.5408C74.2782 17.4958 74.0531 17.3156 72.9277 17.5859C73.783 19.2529 74.8184 17.9013 76.394 17.9463C75.4486 16.5496 73.1527 16.0991 72.9277 17.3156ZM61.8084 7.89916L61.9435 7.94421L61.9885 7.98927L62.2586 8.07938C62.4387 8.07938 62.5287 8.16949 62.6638 8.21454C63.4291 8.52992 64.1943 9.38596 64.8696 8.07938C64.4644 7.80905 63.5641 7.67389 63.0239 7.67389C63.8792 7.62883 64.1493 7.67389 64.8696 7.8541C64.6895 7.2684 64.1043 7.04312 63.339 7.17829C62.5737 7.2684 62.3036 7.67389 61.8084 7.89916ZM75.6287 14.7024C76.0338 14.342 76.0789 14.0266 76.6641 13.7112C76.439 14.0716 75.9438 14.387 75.8087 14.9277C77.2493 15.4233 76.9342 14.5222 78.0596 12.9453C76.8441 12.8101 75.3586 13.4409 75.6287 14.7024ZM69.9115 6.18709C69.9565 5.82665 69.4613 5.15083 69.3263 4.92556C69.7765 5.286 69.8215 5.55632 70.0466 5.8717L70.1816 6.05192C70.3617 5.33105 70.0916 4.97061 69.6864 4.56512C69.3263 4.24974 68.7861 3.93436 68.1558 3.97941C68.9211 5.15083 68.3809 6.50247 69.9115 6.18709ZM73.0627 12.5398C73.5129 12.9453 73.3328 12.5848 74.3682 13.6661C74.2782 13.3958 73.3328 12.8552 72.8826 12.6749C72.4325 13.9365 73.783 14.0266 74.2782 14.2068C74.5933 14.2969 74.7734 14.4771 74.9984 14.5672C74.9084 12.4497 73.1077 12.1793 73.0627 12.5398ZM68.3359 9.65629C68.4259 9.20574 68.3359 8.80025 68.3359 8.39476L68.3809 8.48487C68.471 8.71014 68.516 8.93541 68.516 9.56618C69.3263 9.07058 68.7861 7.49367 67.7057 6.90796C67.8407 8.12443 66.9404 9.38596 68.3359 9.65629ZM60.593 9.92661C61.2682 10.287 61.3133 10.3321 61.8084 10.7376C62.3036 11.1881 62.9339 11.053 63.204 10.4673L61.9435 9.92661C62.4837 9.97167 62.7988 10.1519 63.249 10.287C63.0689 9.43101 62.0335 9.3409 61.2682 9.56618L60.593 9.92661ZM59.9627 13.7562C60.4579 14.1617 60.5029 14.1617 60.9531 14.7925C61.2232 15.243 61.7184 15.4683 62.3036 14.9727C62.1686 14.6573 61.5383 14.2068 61.1782 14.0716C61.7634 14.2068 62.0335 14.6123 62.4387 14.7925C62.3486 13.6661 61.0431 13.4409 59.9627 13.7562ZM65.6349 19.8386C66.0851 18.532 67.1655 19.0276 67.0304 17.8112C66.5802 17.9463 66.0851 18.3969 65.95 18.7573C66.1751 18.1265 66.6703 17.8562 66.8954 17.6309C65.6799 16.5496 65.0497 19.0727 65.6349 19.8386ZM66.4452 16.3694C66.5802 15.8738 66.5802 15.7386 66.5802 15.1529C66.7153 15.5134 66.6703 16.009 66.5802 16.4145C67.4356 16.3244 67.5256 15.7386 67.1655 15.0178C66.9404 14.4771 66.4452 14.1617 66.04 13.8914C66.0851 14.4321 66.2201 14.5672 66.0851 15.198C65.95 15.8288 65.95 16.1892 66.4452 16.3694ZM66.1751 12.0442L66.0851 10.4673L66.3552 11.9991C67.0754 11.5486 66.6703 10.1068 65.5899 9.52112C65.6799 10.6475 64.8246 11.909 66.1751 12.0442ZM74.3682 10.287L75.7637 10.1969C75.2685 10.287 74.7283 10.242 74.3682 10.5123C74.7734 11.6837 75.7637 10.5574 76.6641 10.5123C76.574 10.287 76.6641 10.4222 76.439 10.287L76.2139 10.1068C75.5837 9.70134 74.6383 9.61123 74.3682 10.287ZM66.7153 8.16949C66.7153 7.8541 66.5352 7.62883 66.4452 7.31345L66.6703 7.58378L66.8504 7.98927C66.8504 7.98927 66.9854 7.94421 67.0304 7.67389C67.0754 7.08818 66.2651 6.3673 65.4098 6.2772L65.7699 7.53872C65.86 8.07938 66.0851 8.21454 66.7153 8.16949ZM62.3486 18.1716C62.6638 17.8112 62.7088 17.6309 63.0689 17.4057C63.4291 17.1353 63.6992 17.0903 63.6541 16.5046C63.339 16.4595 63.249 16.6397 62.9789 16.7749C63.159 16.5046 63.294 16.4595 63.4741 16.2793C62.4387 15.4233 62.0335 17.1804 62.3486 18.1716ZM62.5737 13.4859C62.9789 13.3057 63.0689 13.1255 63.5641 13.0354C64.0593 12.9002 64.3294 12.9002 64.3294 12.3145C63.8342 12.3596 63.7892 12.4497 63.384 12.5848C63.7892 12.3145 63.8342 12.3596 64.2844 12.1793C64.0593 11.3233 62.7988 11.7288 62.5737 13.4859ZM70.9019 16.6848L71.4421 15.6936C71.307 16.054 71.172 16.2793 71.082 16.7749C72.1624 16.7749 71.8022 16.1892 72.2074 14.8376C71.4871 15.0178 70.5868 15.7386 70.9019 16.6848ZM69.4613 14.2518L69.8215 13.1705L69.5964 14.2969C70.6768 14.4321 70.2716 13.2156 70.4517 12.3145C69.9115 12.4947 68.7411 13.6661 69.4613 14.2518ZM71.4421 18.3518L71.5321 18.3969L71.6672 18.4419L72.2974 18.7573C71.9373 18.6672 71.8022 18.5771 71.307 18.532C71.3971 19.6584 72.2074 19.2529 73.1978 19.5232C73.1077 19.0727 72.8376 18.7573 72.6125 18.532C72.3875 18.3068 71.8022 17.9463 71.4421 18.3518ZM60.2779 12.0442C60.773 11.9991 60.9531 11.9541 61.4033 12.1343C61.8535 12.2694 62.1236 12.2694 62.2586 11.909C61.9435 11.6837 61.7184 11.7738 61.3583 11.6837L62.3036 11.7738C62.3036 10.4222 60.638 11.3233 60.2779 12.0442ZM68.3359 6.7728C68.4259 6.54752 68.2009 6.2772 68.0658 5.96181C68.2009 6.14203 68.3809 6.45741 68.561 6.59258C68.7861 6.23214 68.4259 5.7816 68.2009 5.64643C67.9308 5.42116 67.6156 5.33105 67.2105 5.286C67.6607 6.32225 67.6156 6.90796 68.3359 6.7728ZM74.1881 8.93541C74.5483 8.8453 74.6833 8.71014 75.0435 8.71014C74.7734 8.80025 74.4132 8.89036 74.2332 9.07058C74.4582 9.38596 74.7734 9.56618 75.1785 9.20574L76.0789 8.66509C75.5837 8.3497 74.4132 8.07938 74.1881 8.93541ZM64.9146 18.3068C64.9596 17.9463 64.9596 17.7661 65.0947 17.4507C65.5449 16.6397 65.1847 16.3244 64.9146 16.9101L64.7796 17.3606C64.7796 16.9551 64.9146 16.865 65.0047 16.5496C63.9242 16.5496 64.2394 17.7661 64.9146 18.3068ZM69.1912 11.3233H69.8215L69.2363 11.5936C69.5514 12.3145 70.0466 11.8189 70.7668 11.4585L70.9469 11.3233C70.6768 11.1881 70.1816 10.8277 69.5514 11.053L69.3263 11.1881V11.2332L69.2813 11.2782L69.1912 11.3233ZM73.2878 11.7738C73.5579 11.6837 73.783 11.5936 74.0981 11.5936C73.783 11.6387 73.5129 11.6837 73.2878 11.909C73.6929 12.5848 74.1881 11.9541 74.4582 11.7738L74.8634 11.5936C74.4132 11.3233 73.5129 11.0079 73.2878 11.7738ZM68.471 11.4134L68.651 11.2332V10.0618C68.1558 10.242 67.6607 10.7826 67.9308 11.4585L68.2009 10.8277L68.0658 11.5486C68.3359 11.5035 68.2909 11.5486 68.471 11.4134ZM72.2974 9.38596L72.1173 8.71014L72.2074 8.8453L72.3875 9.16069L72.5225 9.29585C73.0627 8.62003 72.2074 8.16949 71.3971 8.12443L71.4871 8.30465C72.0723 9.20574 71.7122 9.38596 72.2974 9.38596ZM71.7572 6.95301L71.8472 6.90796C72.2974 6.7728 72.2074 5.91676 71.6672 5.46621C71.3521 6.2772 71.172 6.7728 71.7572 6.95301ZM64.9596 14.2969C65.1847 14.0716 65.0947 13.9815 65.4548 13.576C65.5449 13.4409 65.6799 13.3958 65.6799 13.1705C65.5899 12.8552 65.5449 13.0354 65.3198 13.1705C65.4548 12.9453 65.5899 12.8552 65.2748 12.8101C65.0947 12.8101 64.9596 12.9453 64.8696 13.0804C64.6895 13.531 64.8696 13.9365 64.9596 14.2969ZM69.1912 8.8453L69.4163 8.71014L69.5514 8.48487L69.4163 8.93541C70.2716 9.11563 69.9565 7.80905 69.5964 7.58378C69.2813 8.48487 69.0562 8.30465 69.1912 8.8453ZM71.7572 11.9991L72.0273 11.6837L71.8923 12.0442C72.4325 11.909 72.5675 11.1881 72.2524 10.7376L72.2074 10.7826C72.1624 11.0079 72.2074 10.7826 72.1624 10.8728C71.8022 11.2782 71.262 11.5936 71.7572 11.9991ZM71.7572 14.2969L72.2974 14.1617C72.0273 14.2518 72.0273 14.2068 71.8022 14.4321C71.9823 14.6573 72.1624 14.7474 72.5225 14.5222L73.0627 14.1617L73.0177 14.0266L72.7926 13.9365L72.3875 13.8914C72.0273 13.8914 71.8923 14.0266 71.7572 14.2969ZM75.6287 16.1441L76.0789 16.054C75.8988 16.1441 75.8087 16.0991 75.6737 16.3244C75.9888 16.6848 76.1239 16.5496 76.7991 16.0991L76.9342 15.9639C76.484 15.8288 75.8988 15.5134 75.6287 16.1441ZM64.8246 15.8288L65.0497 15.4233L64.9596 15.9189C65.6799 15.8288 65.4098 15.3782 65.5449 14.7024C65.1397 14.7925 64.4644 15.3332 64.8246 15.8288ZM64.0593 15.3782C64.1943 15.198 64.1493 15.198 64.1493 14.9727L64.1943 15.1079L64.2394 15.198L64.3294 15.3332C64.4644 14.7474 64.2844 14.2969 63.7892 14.0266C63.8342 14.7024 63.4291 15.243 64.0593 15.3782ZM73.2428 15.6485L73.3328 15.5134L73.4228 15.7386C74.2782 15.6936 73.6479 14.7024 73.3778 14.5222C73.3328 15.0178 73.0177 15.3782 73.2428 15.6485ZM64.0593 10.0167L64.2394 10.0618H64.4194C64.1043 10.1068 64.1493 10.1068 64.0593 10.287C64.2844 10.4222 64.4194 10.5123 64.6895 10.3321L65.2748 10.0167C64.9146 9.79145 64.3294 9.56618 64.0593 10.0167ZM71.9823 10.3321C72.1624 10.0618 71.9373 10.287 72.0273 10.1519L72.1624 10.0618C72.0273 9.70134 71.7572 9.61123 71.3521 9.56618C71.6672 10.287 71.5771 10.3321 71.9823 10.3321ZM70.6768 10.3321L70.5418 9.88156L70.8119 10.1969C70.8569 9.74639 70.5868 9.56618 70.1366 9.52112C70.2716 10.0167 70.1816 10.287 70.6768 10.3321ZM0 11.8189V9.56618H1.75567V9.16069C1.75567 6.7728 2.88109 5.60138 5.17696 5.60138C6.03229 5.60138 6.66253 5.69149 7.06768 5.96181C7.51785 6.18709 7.74294 6.54752 7.74294 6.99807C7.74294 7.40356 7.60789 7.80905 7.33778 8.25959C6.88761 8.03432 6.34741 7.89916 5.76219 7.89916C5.267 7.89916 4.90686 7.98927 4.68178 8.21454C4.45669 8.43981 4.32164 8.80025 4.32164 9.25079V9.61123L7.06768 9.56618V11.8189L4.54672 11.7738V18.9375H1.75567V11.7738L0 11.8189ZM15.801 18.9375H14.1354C13.235 18.9375 12.6948 18.4419 12.6048 17.4507C12.0196 18.5771 11.0292 19.1177 9.63365 19.1177C8.77833 19.1177 8.10307 18.8925 7.51785 18.3969C7.21792 18.1546 6.97986 17.8444 6.82332 17.4918C6.66677 17.1393 6.59623 16.7546 6.61751 16.3694C6.61751 14.2518 8.14809 13.1705 11.2543 13.1705H12.5598C12.5598 12.5848 12.4247 12.1793 12.1546 11.909C11.8845 11.6837 11.3893 11.5486 10.8041 11.5486C9.63365 11.5486 8.64328 11.8189 7.78795 12.3596C7.51785 11.9541 7.33778 11.5035 7.33778 11.0079C7.33778 10.5123 7.51785 10.1969 7.83297 10.0167C8.59826 9.56618 9.67867 9.3409 11.0292 9.3409C12.3797 9.3409 13.4151 9.65629 14.1804 10.287C14.9457 10.9629 15.3058 11.864 15.3058 13.0804V16.7298C15.3508 17.7661 15.4859 18.4419 15.801 18.9375ZM10.2639 17.0002C11.1642 17.0002 11.9745 16.6397 12.6048 15.7837V14.7925H11.2993C9.90376 14.7925 9.18348 15.198 9.18348 16.054C9.18348 16.3244 9.27352 16.5496 9.4986 16.7298C9.72369 16.9101 9.94877 17.0002 10.2639 17.0002ZM19.5824 11.1431C19.8075 10.6925 20.2127 10.287 20.7079 9.92661C21.203 9.56618 21.7883 9.38596 22.3735 9.38596C22.8687 9.38596 23.2738 9.52112 23.634 9.79145C23.9941 10.1068 24.1292 10.5123 24.1292 11.053C24.1292 11.6387 23.9941 12.1793 23.769 12.765C23.2514 12.3009 22.5726 12.0582 21.8783 12.0892C20.9329 12.0892 20.1676 12.4497 19.5374 13.1705V18.9375H16.7464V9.56618H17.8718C18.457 9.56618 18.8622 9.70134 19.1323 9.97167C19.4024 10.1969 19.5374 10.6475 19.5824 11.1431ZM36.3738 17.3156V12.9903C36.3738 12.1343 35.9686 11.6837 35.2484 11.6837C34.8432 11.6837 34.4381 11.8189 34.0329 12.0892C33.6728 12.3596 33.4027 12.6749 33.2226 13.0354V18.9375H30.4766V12.9903C30.4766 12.1343 30.0714 11.6837 29.3511 11.6837C28.901 11.6837 28.5408 11.8189 28.1357 12.0892C27.7755 12.3596 27.5054 12.6749 27.2803 13.0354V18.9375H24.5343V9.56618H25.6147C26.1999 9.56618 26.6051 9.70134 26.8752 9.92661C27.1003 10.1969 27.2353 10.5574 27.2803 11.053C28.0456 9.97167 29.081 9.38596 30.4766 9.38596C31.7821 9.38596 32.5924 10.0167 32.9975 11.2332C33.336 10.6646 33.8176 10.1947 34.3943 9.8706C34.9709 9.54646 35.6224 9.37936 36.2838 9.38596C37.1841 9.38596 37.9044 9.65629 38.3996 10.242C38.8947 10.8277 39.1198 11.6837 39.1198 12.72V18.9375H38.0844C36.914 18.9375 36.3738 18.3969 36.3738 17.3156Z" fill="#ACBB16"/>
<path id="Vector_4" fill-rule="evenodd" clip-rule="evenodd" d="M41.325 17.811C40.4697 16.9549 40.0195 15.7835 40.0195 14.2066C40.0195 12.7198 40.4697 11.5034 41.325 10.6473C42.1804 9.74622 43.3958 9.29568 44.9264 9.29568C45.9618 9.29568 46.8171 9.43084 47.4924 9.79128C47.8075 9.92644 47.9876 10.0616 48.0776 10.1968C48.1676 10.377 48.2126 10.6473 48.2126 10.9627C48.2126 11.4583 48.0776 11.9088 47.8525 12.4044C47.0422 11.9088 46.1869 11.6385 45.1965 11.6385C43.6209 11.6385 42.8556 12.4495 42.8556 14.2066C42.8556 15.0176 43.0357 15.6484 43.4408 16.0989C43.846 16.5495 44.4762 16.7747 45.2865 16.7747C46.1869 16.7747 47.1322 16.5044 47.9876 15.9187C48.2577 16.4143 48.3927 16.9099 48.3927 17.4055C48.3927 17.7209 48.3477 17.9461 48.2126 18.1264C48.1226 18.2615 47.9425 18.4417 47.6724 18.5769C46.9972 18.9373 46.1419 19.1176 45.0164 19.1176C43.4408 19.1626 42.1804 18.7121 41.325 17.811ZM51.9491 11.1429C52.2192 10.6924 52.5793 10.2869 53.0745 9.92644C53.5697 9.56601 54.1549 9.38579 54.7401 9.38579C55.2353 9.38579 55.6855 9.52095 56.0456 9.79128C56.3607 10.1067 56.5408 10.5122 56.5408 11.0528C56.5408 11.6385 56.3607 12.1792 56.1356 12.7649C55.618 12.3007 54.9392 12.0581 54.2449 12.0891C53.2996 12.0891 52.5343 12.4495 51.9491 13.1704V18.9373H49.113V9.56601H50.2384C50.8236 9.56601 51.2288 9.70117 51.4989 9.9715C51.769 10.1968 51.904 10.6473 51.9491 11.1429ZM88.773 14.7022L87.6026 18.667H83.7761L81.2552 9.29568H84.3613L85.2617 13.0352C85.6218 14.2967 85.7569 15.5132 85.8019 16.6396H85.8919C85.982 15.5132 86.2521 14.2517 86.6572 12.9L87.7826 9.29568H90.7988L91.9242 12.9C92.2843 14.2517 92.5094 15.5583 92.5995 16.6396H92.6445C92.6445 15.5132 92.8246 14.2967 93.0947 12.9902L94.2201 9.29568H97.3263L94.5352 18.667H91.0239L89.8984 14.7022L89.3582 11.5935H89.3132C89.1332 12.9 88.9981 13.9363 88.773 14.7022ZM103.719 14.9275V12.6748C103.178 11.8187 102.503 11.4132 101.828 11.4132C101.243 11.4132 100.838 11.6385 100.477 12.0891C100.117 12.5396 99.9372 13.1704 99.9372 13.9813C99.9372 14.7923 100.117 15.4231 100.432 15.8736C100.748 16.3242 101.243 16.5495 101.828 16.5495C102.233 16.5495 102.593 16.4143 102.953 16.0539C103.269 15.7385 103.539 15.378 103.719 14.9275ZM106.465 7.17812V16.5044C106.465 17.4505 106.6 18.2165 106.87 18.667H105.159C104.259 18.667 103.719 18.1714 103.629 17.1802C103.39 17.7042 103.002 18.1461 102.514 18.4506C102.025 18.7552 101.458 18.9088 100.883 18.8923C99.7572 18.8923 98.8118 18.4417 98.1366 17.5857C97.4613 16.7297 97.1012 15.5132 97.1012 13.9813C97.1012 12.4495 97.4613 11.188 98.1366 10.3319C98.8568 9.52095 99.8022 9.07041 100.973 9.07041C101.502 9.06025 102.025 9.18775 102.491 9.44045C102.956 9.69316 103.348 10.0624 103.629 10.5122V5.55615H104.709C105.88 5.55615 106.465 6.09681 106.465 7.17812ZM116.999 9.29568V17.5857C116.999 19.1626 116.594 20.4241 115.738 21.2802C114.838 22.1362 113.667 22.5417 112.092 22.5417C110.696 22.5417 109.751 22.4065 109.211 22.0461C108.761 21.6857 108.49 21.2802 108.49 20.7395C108.49 20.0637 108.626 19.5681 108.941 19.2077C109.661 19.8835 110.606 20.1538 111.732 20.1538C112.587 20.1538 113.172 20.0187 113.622 19.6582C114.028 19.3428 114.208 18.7571 114.208 17.9461V17.0451C113.879 17.5447 113.431 17.9546 112.905 18.2377C112.378 18.5209 111.789 18.6684 111.192 18.667C110.111 18.667 109.301 18.3516 108.716 17.6758C108.13 17 107.86 16.0088 107.86 14.7022V9.29568H108.986C110.111 9.29568 110.696 9.83633 110.696 10.9176V14.4319C110.696 15.6484 111.146 16.2791 112.092 16.2791C113.082 16.2791 113.757 15.8736 114.253 15.0176V9.29568H116.999Z" fill="#293737"/>
</g>
</svg>
