<svg width="32" height="32" viewBox="0 0 32 32" fill="none" xmlns="http://www.w3.org/2000/svg">
<g id="layer1">
<path id="path8166" d="M17.9496 3.35059C23.0596 3.69858 25.9336 4.56924 24.8336 5.43604C23.7336 6.30285 18.9615 6.92793 13.4032 6.93328C7.84484 6.93862 3.0256 6.32277 1.85982 5.45814C0.694031 4.59351 3.50162 3.71739 8.58475 3.35959" fill="#38668C"/>
<path id="path8168" d="M17.9495 3.35107L9.62552 3.35914C9.46648 3.75816 9.33414 4.20896 9.22656 4.72686H19.5745C19.4751 4.24861 19.3528 3.83026 19.2099 3.45394C18.803 3.41594 18.3821 3.38101 17.9495 3.35107Z" fill="#2C5170"/>
<path id="path8170" d="M17.9497 3.35117L13.332 3.35532V3.972L17.2716 3.96797C21.3349 4.24472 23.6208 4.93698 22.7476 5.62631C21.8717 6.31569 18.0758 6.81274 13.655 6.81693C13.5472 6.81655 13.4396 6.81588 13.332 6.81491V6.93263H13.4028C18.9603 6.9273 23.7321 6.30241 24.8329 5.43576C25.9329 4.56899 23.0593 3.69919 17.9497 3.35117Z" fill="#2C5170"/>
<path id="path8172" d="M5.86847 17.0667C2.66848 17.0667 0.535156 19.2 0.535156 22.4V25.6H25.6018V22.4C25.6018 19.2 23.4684 17.0667 20.2684 17.0667H5.86847Z" fill="#E4EFF8"/>
<path id="path8174" d="M18.668 17.0667C21.868 17.0667 24.0013 19.2 24.0013 22.4V25.6H25.6013V22.4C25.6013 19.2 23.468 17.0667 20.268 17.0667H18.668Z" fill="#C4DCF0"/>
<path id="path8176" d="M18.1328 17.0667V19.7333H20.2661V17.0667H18.1328Z" fill="#C4DCF0"/>
<path id="path8178" d="M16.5352 28.8H30.4018C30.9927 28.8 31.4684 29.2758 31.4684 29.8667C31.4684 30.4576 30.9927 30.9334 30.4018 30.9334H16.5352V28.8Z" fill="#E4EFF8"/>
<path id="path8180" d="M15.4648 28.8001V20.8001C15.4648 20.2091 15.9406 19.7334 16.5315 19.7334H29.3315C29.9224 19.7334 30.3981 20.2091 30.3981 20.8001V28.8001H15.4648Z" fill="#E4EFF8"/>
<path id="circle8313" d="M25.0672 24.0002C25.0672 24.8838 24.3508 25.6002 23.4672 25.6002C22.5835 25.6002 21.8672 24.8838 21.8672 24.0002C21.8672 23.1165 22.5835 22.4001 23.4672 22.4001C24.3508 22.4001 25.0672 23.1165 25.0672 24.0002Z" fill="#C4DCF0"/>
<path id="path8182" d="M15.4648 26.6667V30.9334H18.0961C18.2529 28.9802 17.8348 26.6667 16.8336 26.6667H15.4648Z" fill="#C4DCF0"/>
<path id="path8184" d="M16.5315 19.7334C15.9406 19.7334 15.4648 20.2091 15.4648 20.8001V28.8001H16.5315V20.8001C16.5315 20.2091 17.0072 19.7334 17.5982 19.7334H16.5315Z" fill="#F8F8F8"/>
<path id="path8186" d="M9.60156 13.8667V17.0667L13.3349 19.2001L17.0682 17.0667V13.8667H9.60156Z" fill="#FFC6A0"/>
<path id="path8188" d="M15.4685 13.8667V17.0667L12.5352 18.7428L13.3352 19.2001L17.0685 17.0667V13.8667H15.4685Z" fill="#FFAF7A"/>
<path id="path8190" d="M9.60156 13.8667V14.9917C10.562 15.9451 11.8771 16.5334 13.3349 16.5334C14.7917 16.5334 16.1071 15.946 17.0682 14.9938V13.8667H9.60156Z" fill="#FFAF7A"/>
<path id="path8192" d="M20.801 28.2666C20.2101 28.2666 19.7344 28.7423 19.7344 29.3333V30.4C19.7344 30.9909 20.2101 31.4666 20.801 31.4666C21.3919 31.4666 21.8677 30.9909 21.8677 30.4V29.3333C21.8677 28.7423 21.3919 28.2666 20.801 28.2666Z" fill="#FFC6A0"/>
<path id="path8194" d="M18.6698 6.93335V10.0612C18.6698 13.0558 16.2897 15.4667 13.3333 15.4667C10.3769 15.4667 8 13.0558 8 10.0612V6.93335H18.6698Z" fill="#FFC6A0"/>
<path id="path8196" d="M8.16715 11.6769C7.92318 11.8699 7.63522 11.9731 7.34049 11.9731C6.5268 11.9731 5.86718 11.203 5.86719 10.2531C5.86719 9.30325 6.52681 8.53321 7.34049 8.5332C7.50806 8.53317 7.67441 8.5665 7.83237 8.63177L8.16715 11.6769Z" fill="#FFC6A0"/>
<path id="path8198" d="M18.5 11.6769C18.744 11.8699 19.0319 11.9731 19.3266 11.9731C20.1403 11.9731 20.8 11.203 20.8 10.2531C20.8 9.30324 20.1403 8.5332 19.3266 8.5332C19.1591 8.53317 18.9927 8.5665 18.8348 8.63177L18.5 11.6769Z" fill="#FFAF7A"/>
<path id="path8200" d="M6.39844 27.2001V22.9334C6.39844 22.3425 6.87415 21.8668 7.46509 21.8668L15.4651 21.8567V27.19L6.39844 27.2001Z" fill="#38668C"/>
<path id="path8202" d="M12.7984 23.4666C11.1984 23.4666 12.5436 26.0338 11.1984 26.1332H7.46509V24.5343H6.39844V27.1999L15.4651 27.1898V26.1336H14.3984V25.6471C14.4085 24.5306 13.8651 23.4666 12.7984 23.4666Z" fill="#2C5170"/>
<path id="path8204" d="M16.0018 31.4666C17.0684 31.4666 17.0684 27.2 16.0018 27.2H13.3351V26.7139C13.3452 25.5973 13.3351 24.0007 12.2684 24.0007C10.6685 24.0007 11.4804 27.1009 10.1351 27.2004H6.40189V25.6006L0.535197 25.6003L0.535156 28.8C0.535156 30.2773 1.72448 31.4666 3.20182 31.4666C7.46848 31.4666 12.2684 31.4606 16.0018 31.4666Z" fill="#FFC6A0"/>
<path id="path8206" d="M22.9338 28.2666C22.3429 28.2666 21.8672 28.7423 21.8672 29.3333V30.4C21.8672 30.9909 22.3429 31.4666 22.9338 31.4666C23.5248 31.4666 24.0005 30.9909 24.0005 30.4V29.3333C24.0005 28.7423 23.5248 28.2666 22.9338 28.2666Z" fill="#FFC6A0"/>
<path id="path8208" d="M25.0667 28.2666C24.4757 28.2666 24 28.7423 24 29.3333V30.4C24 30.9909 24.4757 31.4666 25.0667 31.4666C25.6576 31.4666 26.1333 30.9909 26.1333 30.4V29.3333C26.1333 28.7423 25.6576 28.2666 25.0667 28.2666Z" fill="#FFC6A0"/>
<path id="path8210" d="M27.1995 28.2666C26.6085 28.2666 26.1328 28.7423 26.1328 29.3333V30.4C26.1328 30.9909 26.6085 31.4666 27.1995 31.4666C27.7904 31.4666 28.2661 30.9909 28.2661 30.4V29.3333C28.2661 28.7423 27.7904 28.2666 27.1995 28.2666Z" fill="#FFC6A0"/>
<path id="path8212" d="M17.0666 6.93335V10.0615C17.0666 12.7795 15.1039 15.0098 12.5312 15.4C12.7934 15.4399 13.0598 15.4668 13.3333 15.4668C16.2897 15.4668 18.6698 13.0562 18.6698 10.0615V6.93341L17.0666 6.93335Z" fill="#FFAF7A"/>
<path id="path8214" d="M10.6682 17.0667V13.8667H9.60156V17.0667H10.6682Z" fill="#F8F8F8"/>
<path id="path8216" d="M8 6.93335V10.0615C8 13.0562 10.3769 15.4667 13.3333 15.4667C13.5135 15.4667 13.6911 15.4566 13.8666 15.4397C11.163 15.1701 9.06665 12.8737 9.06665 10.0615V6.93341L8 6.93335Z" fill="#F8F8F8"/>
<path id="path8218" d="M20.799 28.2666C20.6032 28.2666 20.423 28.3222 20.2656 28.4136C20.5834 28.5978 20.799 28.9381 20.799 29.3334V30.4C20.799 30.7952 20.5834 31.1355 20.2656 31.3198C20.4229 31.4111 20.6033 31.4667 20.799 31.4667C21.3899 31.4667 21.8656 30.991 21.8656 30.4001V29.3334C21.8656 28.7425 21.3899 28.2666 20.799 28.2666Z" fill="#FFAF7A"/>
<path id="path8220" d="M18.5078 4.7256C17.8853 1.72852 16.4847 0.859231 13.334 0.533203C10.1832 0.859231 8.78272 1.72852 8.16016 4.7255" fill="#38668C"/>
<path id="path8222" d="M13.3341 0.533264C10.1833 0.859291 8.78272 1.72901 8.16016 4.72599H9.22683C9.81169 1.91044 11.1032 0.979712 13.8674 0.606173C13.6893 0.582186 13.5249 0.553018 13.3341 0.533264Z" fill="#F8F8F8"/>
<path id="path8224" d="M13.3341 0.533203C13.0763 0.559811 12.8482 0.597304 12.6133 0.632176C15.2485 1.02301 16.4938 1.97447 17.0653 4.72595H18.5081C17.8855 1.72885 16.4849 0.859231 13.3341 0.533203Z" fill="#2C5170"/>
<path id="path8226" d="M8.558 3.36157C3.49005 3.7207 0.695864 4.59545 1.8601 5.45844C1.98487 5.54854 2.15121 5.63683 2.35803 5.72302C2.50356 5.07127 4.74789 4.47735 8.29759 4.15114C8.37439 3.86555 8.46127 3.60437 8.558 3.36157Z" fill="#F8F8F8"/>
<path id="path8228" d="M7.34011 8.5332C6.52662 8.53346 5.86726 9.30334 5.86719 10.253C5.86726 11.2027 6.52662 11.9725 7.34011 11.9728C7.52295 11.9726 7.70416 11.9327 7.87448 11.8551C7.30794 11.5986 6.93439 10.9624 6.93386 10.253C6.93475 9.56123 7.29057 8.9374 7.83697 8.66967L7.83294 8.63218C7.67473 8.56666 7.50798 8.53319 7.34011 8.5332Z" fill="#F8F8F8"/>
<path id="path8230" d="M4.80078 25.6011V27.1918C4.80078 27.7334 5.33411 27.7334 6.40078 27.7334V25.6011H4.80078Z" fill="#FFAF7A"/>
<path id="path8232" d="M12.2656 24.001C11.9574 24.001 11.74 24.1177 11.5781 24.3041C12.0011 24.8203 12.0063 25.8947 11.999 26.7135C11.999 27.7333 12.799 27.7333 13.3323 27.7333V26.7135C13.3424 25.597 13.3323 24.001 12.2656 24.001Z" fill="#FFAF7A"/>
<path id="path8235" d="M14.668 27.2C15.7346 27.2 15.7346 31.4666 14.668 31.4666C15.0782 31.467 15.6124 31.466 16.0013 31.4666C17.068 31.4666 17.068 27.2 16.0013 27.2H14.668Z" fill="#FFAF7A"/>
<path id="path8237" d="M7.46509 21.8667C6.87415 21.8667 6.39844 22.3424 6.39844 22.9334V27.2001L7.46509 27.199V22.9334C7.46509 22.3424 7.94082 21.8667 8.53176 21.8667H7.46509Z" fill="#F8F8F8"/>
<path id="path8239" d="M5.86847 17.0667C2.66848 17.0667 0.535156 19.2 0.535156 22.4V25.6H1.60183V22.4C1.60183 19.2 3.73515 17.0667 6.93514 17.0667H5.86847Z" fill="#F8F8F8"/>
<path id="path8241" d="M0.535156 25.6001V28.8001C0.535156 30.2774 1.72448 31.4668 3.20182 31.4668C3.55738 31.4668 3.90644 31.4668 4.26847 31.4668C2.79113 31.4668 1.60183 30.2774 1.60183 28.8001V25.6001H0.535156Z" fill="#F8F8F8"/>
<path id="path8243" d="M22.9318 28.2666C22.736 28.2666 22.5558 28.3222 22.3984 28.4136C22.7162 28.5978 22.9318 28.9381 22.9318 29.3334V30.4C22.9318 30.7952 22.7162 31.1355 22.3984 31.3198C22.5559 31.4111 22.7361 31.4667 22.9318 31.4667C23.5227 31.4667 23.9984 30.991 23.9984 30.4001V29.3334C23.9984 28.7425 23.5227 28.2666 22.9318 28.2666Z" fill="#FFAF7A"/>
<path id="path8245" d="M27.2013 28.2666C27.0056 28.2666 26.8253 28.3222 26.668 28.4136C26.9857 28.5978 27.2013 28.9381 27.2013 29.3333V30.4C27.2013 30.7952 26.9857 31.1355 26.668 31.3198C26.8254 31.4111 27.0056 31.4667 27.2013 31.4667C27.7922 31.4667 28.268 30.991 28.268 30.4001V29.3334C28.268 28.7425 27.7922 28.2666 27.2013 28.2666Z" fill="#FFAF7A"/>
<path id="path8247" d="M25.0685 28.2666C24.8728 28.2666 24.6925 28.3222 24.5352 28.4136C24.8529 28.5978 25.0685 28.9381 25.0685 29.3334V30.4C25.0685 30.7952 24.8529 31.1355 24.5352 31.3198C24.6924 31.4111 24.8728 31.4667 25.0685 31.4667C25.6594 31.4667 26.1352 30.991 26.1352 30.4001V29.3334C26.1352 28.7425 25.6594 28.2666 25.0685 28.2666Z" fill="#FFAF7A"/>
<path id="path8249" d="M7.46484 17.0667H9.59818V21.8667H7.46484V17.0667Z" fill="#38668C"/>
<path id="path8251" d="M7.46484 17.0667V21.8667H8.53151V17.0667H7.46484Z" fill="#F8F8F8"/>
<path id="path8253" d="M17.0664 17.0667H19.1997V19.7333H17.0664V17.0667Z" fill="#2C5170"/>
<path id="path8255" d="M27.7344 19.7334C28.3253 19.7334 28.801 20.2091 28.801 20.8001V28.8001H30.401V20.8001C30.401 20.2091 29.9253 19.7334 29.3344 19.7334H27.7344Z" fill="#C4DCF0"/>
<path id="circle8257" d="M24.0005 24C24.0005 24.5891 23.523 25.0667 22.9339 25.0667C22.3447 25.0667 21.8672 24.5891 21.8672 24C21.8672 23.4109 22.3447 22.9333 22.9339 22.9333C23.523 22.9333 24.0005 23.4109 24.0005 24Z" fill="#38668C"/>
<path id="path8259" d="M28.8008 28.8C29.3917 28.8 29.8674 29.2758 29.8674 29.8667C29.8674 30.4576 29.3917 30.9334 28.8008 30.9334H30.4008C30.9917 30.9334 31.4674 30.4576 31.4674 29.8667C31.4674 29.2758 30.9917 28.8 30.4008 28.8H28.8008Z" fill="#C4DCF0"/>
<path id="path4482" d="M13.2802 0.00427139C11.6646 0.171438 10.4231 0.476965 9.47711 1.20531C8.92587 1.62973 8.50847 2.17298 8.19274 2.85323C5.80489 3.03641 3.9307 3.33196 2.72089 3.70948C2.28884 3.8443 1.62334 4.08897 1.29902 4.46886C1.11499 4.68443 1.02013 4.96968 1.08653 5.25636C1.15284 5.54305 1.36339 5.75277 1.5438 5.88657C1.91369 6.1609 2.51095 6.38372 3.24484 6.57095C3.97873 6.75817 4.87991 6.91853 5.91776 7.05116C6.40363 7.11324 6.92641 7.16759 7.46671 7.21679V8.00429C7.42418 8.00125 7.38124 8.00008 7.33851 8.00008C6.18837 8.00009 5.33333 9.05537 5.33331 10.2522C5.33331 11.449 6.18835 12.5084 7.33851 12.5084C7.54488 12.5084 7.74569 12.4727 7.93852 12.4042C8.21179 13.0506 8.597 13.6407 9.06665 14.1449V16.5313L5.86666 16.5333C4.13046 16.534 2.66296 17.1162 1.62187 18.1573C0.574547 19.2046 0 20.6835 0 22.4021V28.799C0 30.5813 1.43745 32 3.20104 32C7.4682 32 12.2679 31.994 16 32C16.3111 32 16.573 31.8467 16.7562 31.6302C16.8005 31.5784 16.8411 31.5201 16.8771 31.4646H19.6125C19.9038 31.7903 20.3224 32 20.799 32C21.2125 32 21.5839 31.8413 21.8667 31.5875C22.1486 31.8411 22.518 32 22.9313 32C23.3449 32 23.7151 31.8404 23.998 31.5864C24.28 31.8407 24.6507 32 25.0646 32C25.4782 32 25.8505 31.8466 26.1333 31.5927C26.4154 31.847 26.784 32 27.1979 32C27.6736 32 28.1036 31.7913 28.3959 31.4667H30.3979C31.2751 31.4667 32 30.7647 32 29.8646C32 29.1641 31.5505 28.5755 30.9333 28.3562V20.7989C30.9333 19.9218 30.2251 19.2 29.3354 19.2H25.3177C24.3353 17.5323 22.5345 16.5333 20.2667 16.5333H17.6V14.1448C18.0697 13.6407 18.4549 13.0505 18.7282 12.4041C18.9211 12.4726 19.1218 12.5083 19.3282 12.5083C20.4783 12.5083 21.3334 11.4489 21.3334 10.2521C21.3334 9.05528 20.4783 8 19.3282 7.99998C19.2854 7.99998 19.2425 8.00121 19.2 8.00419V7.21669C19.7402 7.16749 20.263 7.11317 20.7489 7.05106C21.7868 6.91844 22.6879 6.75808 23.4218 6.57085C24.1557 6.38363 24.753 6.1608 25.1229 5.88648C25.3033 5.75267 25.5137 5.54295 25.5801 5.25627C25.6465 4.9696 25.5517 4.68436 25.3676 4.46878C25.0433 4.0889 24.3778 3.84423 23.9458 3.70941C22.736 3.33188 20.8618 3.03633 18.4739 2.85316C18.1582 2.17291 17.7408 1.62965 17.1895 1.20524C16.2435 0.476889 15.002 0.171365 13.3864 0.00419485C13.3683 0.00197753 13.3512 0.000364851 13.3332 0C13.3151 0.000449513 13.298 0.00201375 13.2802 0.00427139ZM16.5405 2.05108C17.2301 2.58202 17.684 3.4049 17.9812 4.83546C18.1255 5.53363 19.1724 5.31696 19.028 4.6188C18.9804 4.38948 18.9264 4.16614 18.8686 3.9563C20.9758 4.13985 22.6225 4.41476 23.6269 4.72817C24.072 4.86708 24.3097 4.98459 24.4311 5.06671C24.1691 5.23019 23.7701 5.37935 23.1581 5.53546C22.4869 5.70672 21.6229 5.86401 20.6154 5.99276C18.6186 6.24794 16.0645 6.39888 13.3332 6.39901C10.6018 6.39888 8.04779 6.24795 6.0509 5.99276C5.04343 5.86401 4.17948 5.70672 3.5082 5.53546C2.89626 5.37934 2.49728 5.23019 2.2353 5.06671C2.35664 4.98459 2.59432 4.86707 3.03946 4.72817C4.0438 4.41476 5.69052 4.13986 7.79778 3.9563C7.73993 4.16614 7.68611 4.38948 7.63833 4.6188C7.494 5.31696 8.54086 5.53363 8.68521 4.83546C8.98239 3.4049 9.43621 2.58202 10.1258 2.05108C10.8113 1.52331 11.8166 1.22735 13.3332 1.07921C14.8498 1.22734 15.855 1.52331 16.5405 2.05108ZM8.53326 7.30422C10.0159 7.40948 11.6319 7.46546 13.3332 7.46568C15.0347 7.46546 16.6507 7.40948 18.1332 7.30422V10.0594C18.1332 12.7712 15.987 14.9323 13.3332 14.9334C10.6795 14.9323 8.53326 12.7712 8.53326 10.0594V7.30422ZM7.46566 9.08026L7.46673 10.0594C7.46673 10.5148 7.51612 10.9603 7.61146 11.3865C7.51974 11.4232 7.43266 11.4417 7.33853 11.4417C6.86755 11.4417 6.39998 10.9551 6.39998 10.2521C6.39998 9.55956 6.86757 9.05944 7.33849 9.06776C7.381 9.06776 7.42353 9.07262 7.46566 9.08026ZM20.2666 10.2521C20.2666 10.9551 19.799 11.4417 19.328 11.4417C19.2339 11.4417 19.1468 11.4232 19.0551 11.3865C19.1506 10.9603 19.1998 10.5148 19.1998 10.0594L19.2009 9.08026C19.243 9.0726 19.2856 9.06776 19.328 9.06776C19.799 9.0595 20.2666 9.55956 20.2666 10.2521ZM10.1343 15.0469C11.0522 15.6521 12.1489 15.9997 13.3332 16.0001C14.5176 15.9997 15.6143 15.6521 16.5322 15.0469V16.7563L13.3332 18.5855L10.1343 16.7563V15.0469ZM5.86662 17.6001H6.93327V21.423C6.30655 21.6451 5.86662 22.2414 5.86662 22.9334V25.0678H1.06766V22.4022C1.06766 20.9207 1.55146 19.7361 2.37807 18.9094C3.20366 18.0839 4.38513 17.6006 5.86662 17.6001ZM7.99994 17.6001H9.06763V21.3334H7.99994V17.6001ZM17.5989 17.6001H18.6655V19.2001H17.5989V17.6001ZM19.7322 17.6001H20.2666C21.8808 17.6001 23.1843 18.1917 24.0207 19.2011H22.6905L19.7322 19.2V17.6001ZM10.1343 17.9844L13.0676 19.6615C13.1499 19.7088 13.2416 19.7324 13.3332 19.7324C13.425 19.7324 13.5167 19.7088 13.5989 19.6615L16.5312 17.9855V19.2001C15.6415 19.2001 14.9332 19.9219 14.9332 20.799V21.3355L10.1343 21.3344V17.9844ZM29.3353 20.2667C29.6254 20.2667 29.8665 20.5027 29.8665 20.799V28.2657H28.3936C28.1015 27.9416 27.6721 27.7324 27.1978 27.7324C26.784 27.7324 26.3964 27.9014 26.1311 28.1397C25.8483 27.885 25.4779 27.7324 25.0645 27.7324C24.6507 27.7324 24.2818 27.8868 23.9999 28.1418C23.7171 27.8871 23.3446 27.7324 22.9311 27.7324C22.5178 27.7324 22.1484 27.8851 21.8666 28.1397C21.5837 27.8849 21.2124 27.7324 20.7988 27.7324C20.3236 27.7324 19.8973 27.9426 19.6062 28.2678H17.2437C17.2084 28.0691 17.1657 27.8753 17.1062 27.697C17.0256 27.4548 16.9242 27.2316 16.7562 27.0355C16.5728 26.8216 16.3111 26.6657 16 26.6657V20.799C16 20.4943 16.2411 20.2667 16.5312 20.2667C20.7992 20.2686 25.0672 20.2667 29.3353 20.2667ZM7.46451 22.4001L14.9332 22.4021V26.6656H13.8624C13.8685 26.1112 13.8765 25.4351 13.7207 24.8115C13.6407 24.4911 13.5178 24.1728 13.2801 23.9094C13.0424 23.646 12.7115 23.4688 12.2676 23.4688C11.6276 23.4688 11.2166 23.8171 10.9843 24.2167C10.7519 24.6163 10.6673 25.0521 10.5832 25.4531C10.4992 25.8542 10.4187 26.2257 10.3228 26.4375C10.2678 26.559 10.2049 26.6585 10.1113 26.6656H6.93323V22.9334C6.93323 22.6286 7.17648 22.4001 7.46451 22.4001ZM22.9343 22.4021C22.0444 22.4021 21.3332 23.1227 21.3332 24C21.3332 24.8773 22.0444 25.6021 22.9343 25.6021C23.8241 25.6021 24.5332 24.8773 24.5332 24C24.5332 23.1227 23.8241 22.4021 22.9343 22.4021ZM22.9343 23.4688C23.2226 23.4688 23.4666 23.6991 23.4666 24C23.4666 24.3009 23.2268 24.5354 22.9343 24.5354C22.6417 24.5354 22.3999 24.3009 22.3999 24C22.3999 23.6991 22.6459 23.4688 22.9343 23.4688ZM12.7989 27.2012C12.8 27.4958 13.0407 27.7335 13.3354 27.7324H14.9333H15.9447C15.977 27.7708 16.0427 27.8793 16.0947 28.0355C16.1999 28.3512 16.2676 28.8466 16.2676 29.3355C16.2676 29.8244 16.1999 30.3147 16.0947 30.6303C16.0427 30.7865 15.977 30.8951 15.9447 30.9335C12.2171 30.9276 7.44879 30.9335 3.20102 30.9335C2.00992 30.9335 1.06768 29.9745 1.06768 28.8001V26.1345H5.86664V27.2012C5.8677 27.4958 6.1074 27.7335 6.40204 27.7324H10.1343C10.1484 27.7329 10.1607 27.7329 10.1738 27.7324C10.7173 27.6922 11.0794 27.3554 11.2957 26.8782C11.4759 26.4808 11.5448 26.0605 11.6259 25.6741C11.7069 25.2876 11.7811 24.9767 11.9092 24.7564C12.0167 24.5715 12.1064 24.5356 12.2676 24.5355C12.368 24.5354 12.4247 24.5554 12.4885 24.626C12.5703 24.7167 12.6308 24.8494 12.6854 25.0677C12.7945 25.5043 12.8039 26.155 12.7989 26.711V27.2012ZM20.7988 28.799C21.0854 28.799 21.3268 29.0259 21.3322 29.3302V30.4073C21.3261 30.7115 21.0813 30.9334 20.7988 30.9334C20.5129 30.9334 20.2676 30.7068 20.2676 30.4021V29.3354C20.2676 29.0307 20.5088 28.799 20.7988 28.799ZM22.9311 28.799C23.2201 28.799 23.4637 29.0299 23.4655 29.3344V30.4042C23.4636 30.7087 23.216 30.9334 22.9311 30.9334C22.6476 30.9334 22.4045 30.7107 22.4009 30.4063V29.3323C22.405 29.0278 22.6435 28.799 22.9311 28.799ZM25.0645 28.799C25.3535 28.799 25.597 29.0299 25.5988 29.3344V30.4042C25.597 30.7087 25.3493 30.9334 25.0645 30.9334C24.7796 30.9334 24.5351 30.7087 24.5332 30.4042V29.3344C24.535 29.0298 24.7755 28.799 25.0645 28.799ZM27.1978 28.799C27.4879 28.799 27.7332 29.0308 27.7332 29.3354V30.4021C27.7332 30.7068 27.4837 30.9334 27.1978 30.9334C26.9129 30.9334 26.6684 30.7077 26.6666 30.4031V29.3334C26.6684 29.0288 26.9088 28.799 27.1978 28.799ZM30.3978 29.3334C30.7025 29.3334 30.9332 29.5745 30.9332 29.8646C30.9332 30.1547 30.7025 30.4 30.3978 30.4H28.7999V29.3344L30.3978 29.3334ZM17.3353 29.3354H19.2009V30.402H17.2437C17.3043 30.0616 17.3353 29.7013 17.3353 29.3354Z" fill="#333333"/>
</g>
</svg>
