<svg width="32" height="32" viewBox="0 0 32 32" fill="none" xmlns="http://www.w3.org/2000/svg">
<g id="livestock growth">
<path id="Vector" d="M15.6457 21.2805C15.6585 21.3737 15.6672 21.4683 15.6672 21.565V21.9129C15.6672 22.1567 15.6241 22.3908 15.5469 22.6085H17.4307C17.622 22.6085 17.7403 22.4555 17.7403 22.2989C17.7403 22.2016 17.6951 22.1076 17.6012 22.045C17.0105 21.6496 16.342 21.3908 15.6457 21.2805Z" fill="black"/>
<path id="Vector_2" d="M14.0011 20.5935L14.51 20.0742L14.0133 19.5872L13.5733 20.0363L13.566 19.478L12.8703 19.4874L12.8755 19.8752L12.366 19.5399L11.9833 20.1208L12.7364 20.6165C12.2136 20.8164 11.8407 21.3194 11.8407 21.9128C11.8407 22.8199 12.254 23.0112 11.7506 23.766L11.1312 24.3475H6.03685C5.91337 24.0547 5.75546 23.782 5.55511 23.5368C4.69318 22.4846 3.1916 22.0283 1.72759 22.3754L1.88794 23.0519C3.09491 22.766 4.32275 23.1295 5.01632 23.9768C5.11058 24.0922 5.19023 24.2178 5.26293 24.3475H4.69423C4.37075 24.207 3.98848 24.1079 3.5443 24.1048C2.57281 24.1117 1.89246 24.6004 1.57315 24.8912L2.04203 25.4056C2.28725 25.1816 2.80969 24.8056 3.54813 24.8008C4.03335 24.8008 4.43057 24.9618 4.73284 25.1535L4.74292 25.1924C4.57423 25.1604 4.40588 25.1448 4.23996 25.1486C3.07612 25.1562 1.99611 25.9214 1.48828 27.0978L2.1269 27.3736C2.52551 26.4505 3.35682 25.8501 4.24622 25.8446C4.48101 25.8456 4.71371 25.886 4.94675 25.9694L5.13388 26.6835C5.48102 27.8122 6.34955 28.672 7.42608 29.032L6.9819 30.5492C6.92347 30.6953 6.97043 30.8619 7.09634 30.9565L8.48766 32L8.90471 31.4435L7.72661 30.56L8.112 29.1858C8.26087 29.2045 8.41148 29.2171 8.56453 29.2171C8.71757 29.2171 8.86818 29.2052 9.0174 29.1878L8.7207 30.2011C8.66227 30.3471 8.70923 30.5137 8.83514 30.6084L10.2265 31.6518L10.6435 31.0953L9.46541 30.2118L9.80072 29.0167C10.9868 28.6219 11.942 27.6717 12.3159 26.4258L12.5225 25.7388L13.5799 23.6519C14.3482 23.6519 14.9712 23.0289 14.9712 22.2606V21.9128C14.9712 21.2923 14.5622 20.7726 14.0011 20.5935ZM7.08764 26.3583C6.97251 26.2658 6.92799 26.1107 6.97703 25.9715C7.02608 25.8324 7.15721 25.7388 7.30504 25.7388H9.39202V26.4345H8.2967L9.26158 27.2063L8.82679 27.7496L7.08764 26.3583ZM13.9138 22.2606H13.2181V21.565H13.9138V22.2606Z" fill="black"/>
<path id="Vector_3" d="M29.7773 22.0505C29.93 22.2036 30.0754 22.3681 30.2087 22.5392L30.7575 22.1117C30.6066 21.9177 30.4424 21.7316 30.2692 21.5583L29.7773 22.0505Z" fill="black"/>
<path id="Vector_4" d="M30.5742 23.0769C30.6845 23.2626 30.7843 23.4578 30.8713 23.6564L31.5085 23.3778C31.4104 23.1527 31.297 22.9319 31.1718 22.7214L30.5742 23.0769Z" fill="black"/>
<path id="Vector_5" d="M29.4297 29.7434L29.8766 30.2766C30.0652 30.1187 30.2454 29.9479 30.412 29.7688L29.9031 29.2947C29.756 29.4526 29.597 29.6035 29.4297 29.7434Z" fill="black"/>
<path id="Vector_6" d="M28.3398 30.447L28.6407 31.0741C28.8623 30.9676 29.079 30.847 29.2849 30.7144L28.9085 30.1294C28.7266 30.2463 28.5353 30.353 28.3398 30.447Z" fill="black"/>
<path id="Vector_7" d="M31.9244 24.7929C31.8851 24.5501 31.8301 24.3077 31.7616 24.0732L31.0938 24.2687C31.1546 24.4757 31.2026 24.6892 31.2374 24.9042L31.9244 24.7929Z" fill="black"/>
<path id="Vector_8" d="M30.9453 27.6495L31.5926 27.9041C31.6831 27.6745 31.7592 27.4376 31.8194 27.2011L31.1453 27.0293C31.0924 27.2383 31.025 27.447 30.9453 27.6495Z" fill="black"/>
<path id="Vector_9" d="M20.207 25.1075L20.8985 25.1809C20.9215 24.9649 20.9583 24.7489 21.0077 24.5388L20.3305 24.3792C20.2745 24.6171 20.2331 24.8619 20.207 25.1075Z" fill="black"/>
<path id="Vector_10" d="M21.0541 27.1196L20.3828 27.3029C20.4475 27.5395 20.5279 27.7746 20.6221 28.0021L21.2649 27.7356C21.1818 27.5353 21.1108 27.328 21.0541 27.1196Z" fill="black"/>
<path id="Vector_11" d="M30.3203 28.7903L30.8834 29.1987C31.0268 29.0008 31.1596 28.7903 31.2782 28.574L30.6681 28.2397C30.5634 28.431 30.4462 28.6161 30.3203 28.7903Z" fill="black"/>
<path id="Vector_12" d="M24.9795 20.6397C25.1899 20.5938 25.407 20.5611 25.6237 20.542L25.5618 19.8491C25.3166 19.8707 25.071 19.9082 24.832 19.9597L24.9795 20.6397Z" fill="black"/>
<path id="Vector_13" d="M22.2061 22.252L21.6893 21.7866C21.5247 21.9692 21.3703 22.1644 21.2305 22.3654L21.802 22.763C21.9247 22.5852 22.0611 22.413 22.2061 22.252Z" fill="black"/>
<path id="Vector_14" d="M20.8714 25.833L20.1758 25.8438C20.18 26.0887 20.1991 26.3363 20.2339 26.5794L20.9226 26.4817C20.892 26.2674 20.8749 26.049 20.8714 25.833Z" fill="black"/>
<path id="Vector_15" d="M22.6702 21.7948C22.8347 21.6526 23.0089 21.5194 23.1881 21.3994L22.8016 20.8213C22.5985 20.9573 22.4009 21.1075 22.2148 21.2689L22.6702 21.7948Z" fill="black"/>
<path id="Vector_16" d="M26.0986 30.9561C26.0036 30.9593 25.9028 30.9537 25.8057 30.9488L25.7695 31.6438C25.8791 31.6497 25.9911 31.6559 26.0989 31.6518C26.236 31.6518 26.372 31.6466 26.5066 31.6375L26.4582 30.9436C26.3396 30.9516 26.22 30.9561 26.0986 30.9561Z" fill="black"/>
<path id="Vector_17" d="M21.5531 28.3196L20.9492 28.6653C21.0717 28.8785 21.2077 29.0858 21.3541 29.2817L21.9113 28.8646C21.7812 28.6918 21.6609 28.5084 21.5531 28.3196Z" fill="black"/>
<path id="Vector_18" d="M26.9214 20.5876L27.0321 19.9006C26.7903 19.862 26.5434 19.8377 26.2978 19.8293L26.2734 20.5243C26.4905 20.5323 26.7086 20.5535 26.9214 20.5876Z" fill="black"/>
<path id="Vector_19" d="M21.832 29.844C22.0035 30.0217 22.1872 30.1894 22.3767 30.3427L22.8136 29.8012C22.646 29.6659 22.4842 29.5181 22.3326 29.3608L21.832 29.844Z" fill="black"/>
<path id="Vector_20" d="M22.9766 30.7694C23.1856 30.8992 23.4047 31.0164 23.628 31.1186L23.9174 30.4863C23.7206 30.3962 23.5275 30.2926 23.3435 30.1785L22.9766 30.7694Z" fill="black"/>
<path id="Vector_21" d="M23.7531 21.0721C23.9472 20.9747 24.1489 20.8891 24.3524 20.8175L24.1214 20.1611C23.8905 20.2425 23.6619 20.3399 23.4414 20.4498L23.7531 21.0721Z" fill="black"/>
<path id="Vector_22" d="M24.3203 31.3834C24.5551 31.4568 24.7965 31.5159 25.0379 31.559L25.1603 30.8742C24.9474 30.8362 24.7346 30.7841 24.5283 30.7197L24.3203 31.3834Z" fill="black"/>
<path id="Vector_23" d="M28.1708 20.9538L28.4487 20.3159C28.2226 20.2175 27.9885 20.1326 27.7537 20.0637L27.5586 20.7315C27.7652 20.7921 27.9711 20.8668 28.1708 20.9538Z" fill="black"/>
<path id="Vector_24" d="M27.1055 30.8568L27.2401 31.5396C27.4804 31.492 27.7211 31.4287 27.9545 31.3511L27.735 30.6909C27.5288 30.7594 27.3173 30.8151 27.1055 30.8568Z" fill="black"/>
<path id="Vector_25" d="M31.3025 25.5531C31.3046 25.615 31.3056 25.6766 31.3056 25.7389C31.3056 25.9562 31.2921 26.1754 31.2656 26.3896L31.9557 26.4752C31.986 26.2328 32.0013 25.9848 32.0013 25.7389C32.0013 25.6686 32.0002 25.598 31.9975 25.5281L31.3025 25.5531Z" fill="black"/>
<path id="Vector_26" d="M21.4641 23.3201L20.8481 22.9966C20.7344 23.2136 20.6328 23.4408 20.5469 23.6714L21.1984 23.9145C21.2742 23.7114 21.3636 23.5114 21.4641 23.3201Z" fill="black"/>
<path id="Vector_27" d="M28.75 21.2516C28.9347 21.3612 29.1163 21.4853 29.2891 21.6196L29.7159 21.07C29.5204 20.918 29.3152 20.7782 29.1062 20.6541L28.75 21.2516Z" fill="black"/>
<path id="Vector_28" d="M29.152 23.5658C28.5993 22.9414 27.7036 22.9414 27.1509 23.5658L26.1505 24.6962L25.025 23.4246C24.4723 22.8002 23.5766 22.8002 23.0239 23.4246C22.4712 24.0489 22.4712 25.0607 23.0239 25.6851L23.0716 25.739H24.2044L24.7982 25.1452C24.874 25.0698 24.9815 25.0336 25.0865 25.0461C25.193 25.059 25.2872 25.1205 25.3422 25.2124L26.1565 26.5696L27.233 25.4931C27.2984 25.4277 27.3867 25.3911 27.4793 25.3911H29.4191C29.6748 24.7957 29.5895 24.0604 29.152 23.5658Z" fill="black"/>
<path id="Vector_29" d="M28.9213 26.0866H27.6232L26.3338 27.376C26.2684 27.4417 26.1797 27.4779 26.0879 27.4779C26.0736 27.4779 26.0597 27.4769 26.0454 27.4751C25.939 27.4623 25.8447 27.4007 25.7898 27.3089L24.9755 25.9517L24.5946 26.3325C24.5296 26.3979 24.4412 26.4344 24.3487 26.4344H23.6875L26.1505 29.217L28.9213 26.0866Z" fill="black"/>
<path id="Vector_30" d="M24 14.6084H25.3913V19.478L25.5085 19.5072C25.6991 19.4898 25.8918 19.478 26.087 19.478C27.3555 19.478 28.5354 19.8599 29.5228 20.5106L29.5653 20.5214V14.6084H30.9566L27.4783 10.4346L24 14.6084Z" fill="black"/>
<path id="Vector_31" d="M2.125 9.87802L5.1859 13.3423L6.32678 12.3649L3.75284 9.4502L2.125 9.87802Z" fill="black"/>
<path id="Vector_32" d="M6.95825 11.8259L4.52344 13.9129L7.30608 17.0433L7.85043 16.5765L10.336 19.3942L11.2578 18.1664L8.99096 15.5991L9.74088 14.9563L6.95825 11.8259ZM7.2779 15.1873L6.35024 14.1438L6.87024 13.6819L7.79791 14.7254L7.2779 15.1873Z" fill="black"/>
<path id="Vector_33" d="M7.72081 0.9426C7.23072 1.6779 7.03872 2.57215 7.18411 3.44379L7.20289 3.55579L7.99038 3.79196L8.81682 3.51649C9.07735 3.4264 9.34587 3.37388 9.61579 3.35336L9.36813 3.10536C8.7156 2.45354 8.34899 1.56868 8.34899 0.646255V0L7.72081 0.9426Z" fill="black"/>
<path id="Vector_34" d="M5.83032 22.9355C6.01015 23.156 6.15833 23.397 6.28215 23.652H8.06895L8.69574 22.723L10.0951 20.2044L7.76217 17.5606L7.6293 17.6747C7.49817 17.787 7.33712 17.842 7.17677 17.842C6.98477 17.842 6.79381 17.7627 6.65642 17.6086L3.87378 14.4782C3.7496 14.3387 3.687 14.155 3.69952 13.9686C3.71239 13.7825 3.79934 13.6093 3.94091 13.4876L4.07691 13.3707L1.2574 10.0869L0.0368699 10.2013L0 14.723V21.5651L1.65323 21.6558C3.24386 21.2788 4.88457 21.7807 5.83032 22.9355Z" fill="black"/>
<path id="Vector_35" d="M22.2609 13.7664C22.2609 13.2165 21.9503 12.7139 21.4585 12.4683C19.2435 11.3608 17.3297 9.73407 15.88 7.72678C14.5436 5.87636 12.5794 4.58872 10.3683 4.09377C9.92863 3.99534 9.46914 4.02595 9.0434 4.17377L7.99991 4.52159L6.53763 4.08299C5.22562 3.68926 3.82421 3.71047 2.52472 4.14386L0.347656 4.86942L2.09863 5.98384C3.43778 6.83566 5.03744 7.1807 6.60859 6.95635C6.36163 7.69722 5.87641 8.3459 5.20823 8.75007C4.94666 8.90833 4.67605 9.05025 4.39987 9.17929L6.27502 11.3727L6.37555 11.2864C6.66424 11.0391 7.09694 11.0694 7.34808 11.3521L10.1307 14.4825C10.2549 14.622 10.3175 14.8057 10.305 14.9921C10.2921 15.1782 10.2052 15.3514 10.0636 15.4731L9.95889 15.5629L11.8549 17.7103L12.1739 17.391C13.4984 16.0665 15.3356 15.3869 17.2035 15.5305L17.8998 15.5841C18.4856 15.6293 19.0745 15.5935 19.6505 15.4784L21.094 15.1897C21.7726 15.054 22.2609 14.4582 22.2609 13.7664ZM7.19434 5.8948L6.45103 5.64715C5.59536 5.36193 4.70353 5.21724 3.80091 5.21724H3.47812V4.52159H3.80091C4.77866 4.52159 5.74423 4.67812 6.67085 4.98768L7.41417 5.23533L7.19434 5.8948ZM14.0904 7.89721C13.9238 7.80365 13.7408 7.73374 13.5506 7.68365C13.56 7.72956 13.5652 7.77721 13.5652 7.82591C13.5652 8.21025 13.2539 8.52156 12.8695 8.52156C12.4852 8.52156 12.1739 8.21025 12.1739 7.82591C12.1739 7.77721 12.1791 7.72956 12.1888 7.68365C11.9986 7.73374 11.8156 7.80365 11.649 7.89721L11.3081 7.29061C12.2424 6.7654 13.4977 6.7654 14.4316 7.29061L14.0904 7.89721ZM20.8696 13.2172H19.8261V12.5215H20.8696V13.2172Z" fill="black"/>
</g>
</svg>
