<svg width="44" height="32" viewBox="0 0 44 32" fill="none" xmlns="http://www.w3.org/2000/svg">
<g clip-path="url(#clip0_403_1008)">
<path d="M25.0196 15.0441C25.0196 15.7113 25.5497 16.3267 26.4431 16.8235C27.5219 17.4203 29.1308 17.8429 30.9769 17.969C31.1141 17.9022 31.2513 17.8392 31.3958 17.7836C32.8564 17.1719 34.799 16.8235 36.8824 16.8235C37.19 16.8235 37.4903 16.8309 37.7906 16.8457L37.8314 16.8235C38.7248 16.3267 39.2549 15.7113 39.2549 15.0441C39.2549 13.4055 36.0668 12.0784 32.1373 12.0784C28.2077 12.0784 25.0196 13.4055 25.0196 15.0441ZM38.0427 18.0505C37.6646 18.0246 37.2753 18.0097 36.8824 18.0097C34.5765 18.0097 32.5302 18.4657 31.229 19.1738C30.3097 19.6742 29.7647 20.297 29.7647 20.9754C29.7647 21.1237 29.7907 21.2683 29.8426 21.4092C30.0131 21.8985 30.4728 22.3471 31.14 22.7252C31.1438 22.7289 31.1512 22.7289 31.1549 22.7326C31.166 22.74 31.1771 22.7437 31.1882 22.7511C32.4857 23.4703 34.5543 23.9374 36.8824 23.9374C39.0918 23.9374 41.0677 23.5185 42.3763 22.8586C42.4467 22.8253 42.5134 22.7882 42.5802 22.7511C43.4699 22.2581 44 21.6427 44 20.9754C44 19.6854 42.0204 18.5843 39.2549 18.1803C38.8657 18.1247 38.4616 18.0802 38.0427 18.0505ZM28.5784 20.9754C28.5784 20.1636 28.9714 19.4963 29.4718 18.9958C28.4227 18.8327 27.4626 18.5732 26.647 18.2359C26.0428 17.9838 25.4793 17.6724 25.0196 17.2906V18.6029C25.0196 19.3184 25.6313 19.9782 26.6433 20.4898C27.1846 20.7641 27.8444 20.9977 28.5858 21.1756C28.5821 21.1089 28.5784 21.0459 28.5784 20.9791V20.9754ZM29.7647 24.5343C29.7647 25.2015 30.2948 25.8169 31.1882 26.3137C31.255 26.3507 31.3217 26.3841 31.3921 26.4212C32.697 27.081 34.6729 27.4999 36.8824 27.4999C39.2104 27.4999 41.279 27.0328 42.5765 26.3137C43.4699 25.8169 44 25.2015 44 24.5343V23.2219C43.5366 23.6038 42.9768 23.9152 42.3726 24.1672C40.9083 24.7789 38.9657 25.1274 36.8824 25.1274C34.799 25.1274 32.8564 24.7789 31.3921 24.1672C31.103 24.0486 30.8249 23.9115 30.5617 23.7632C30.3356 23.6371 30.1243 23.4963 29.9241 23.348C29.8685 23.3072 29.8166 23.2627 29.7647 23.2219V24.5343ZM28.5784 24.5343V22.3878C27.8741 22.2321 27.2253 22.0357 26.647 21.7947C26.0428 21.5426 25.4793 21.2312 25.0196 20.8494V22.1617C25.0196 22.5509 25.205 22.9402 25.572 23.3072C26.1762 23.9115 27.2402 24.4082 28.5858 24.7307C28.5821 24.6677 28.5784 24.601 28.5784 24.5343ZM36.8824 28.6862C34.799 28.6862 32.8564 28.3377 31.3921 27.7261C30.7879 27.474 30.2244 27.1626 29.7647 26.7808V28.0931C29.7647 29.7316 32.9528 31.0588 36.8824 31.0588C40.8119 31.0588 44 29.7316 44 28.0931V26.7808C43.5366 27.1626 42.9768 27.474 42.3726 27.7261C40.9083 28.3377 38.9657 28.6862 36.8824 28.6862Z" fill="#D47F00"/>
</g>
<path fill-rule="evenodd" clip-rule="evenodd" d="M15.5549 3.88232C12.6321 3.88232 9.9695 4.84774 8.39392 5.6365C8.25156 5.70768 8.11892 5.77756 7.99533 5.84485C7.75074 5.97815 7.54239 6.10238 7.37674 6.21174L9.16909 8.85044L10.0129 9.18626C13.3103 10.8499 17.7323 10.8499 21.0303 9.18626L21.988 8.68932L23.6826 6.21174C23.3316 5.98271 22.9666 5.7759 22.5897 5.5925C21.0219 4.81215 18.4227 3.88232 15.5556 3.88232H15.5549ZM11.3866 6.86915C10.7519 6.75039 10.125 6.59308 9.50945 6.39809C10.9854 5.74262 13.1847 5.04703 15.5549 5.04703C17.1965 5.04703 18.7488 5.38091 20.0326 5.80409C18.5281 6.01568 16.9228 6.37479 15.3931 6.81674C14.1896 7.16485 12.7829 7.12732 11.3866 6.86915ZM21.7136 10.1459L21.5544 10.2261C17.927 12.056 13.1155 12.056 9.48809 10.2261L9.33733 10.1497C3.8878 16.1292 -0.272791 27.1745 15.5549 27.1745C31.3826 27.1745 27.1204 15.9228 21.7136 10.1459ZM14.8826 15.5294C14.5394 15.5294 14.2102 15.6657 13.9675 15.9084C13.7248 16.1511 13.5885 16.4803 13.5885 16.8235C13.5885 17.1667 13.7248 17.4959 13.9675 17.7386C14.2102 17.9813 14.5394 18.1176 14.8826 18.1176V15.5294ZM16.1767 14.2353V13.5882H14.8826V14.2353C14.1962 14.2353 13.5379 14.508 13.0525 14.9933C12.5671 15.4787 12.2944 16.1371 12.2944 16.8235C12.2944 17.5099 12.5671 18.1683 13.0525 18.6537C13.5379 19.139 14.1962 19.4117 14.8826 19.4117V22C14.3197 22 13.8402 21.6409 13.6616 21.1374C13.6351 21.0551 13.5924 20.9789 13.5359 20.9133C13.4795 20.8478 13.4104 20.7942 13.3329 20.7558C13.2554 20.7174 13.1709 20.6949 13.0846 20.6897C12.9982 20.6845 12.9117 20.6967 12.8301 20.7255C12.7485 20.7543 12.6736 20.7992 12.6096 20.8575C12.5457 20.9158 12.4941 20.9863 12.4579 21.0649C12.4217 21.1435 12.4017 21.2286 12.3989 21.315C12.3962 21.4015 12.4108 21.4877 12.4419 21.5684C12.6204 22.0731 12.9509 22.51 13.388 22.8191C13.8251 23.1281 14.3473 23.2941 14.8826 23.2941V23.9411H16.1767V23.2941C16.8632 23.2941 17.5215 23.0214 18.0069 22.536C18.4923 22.0506 18.765 21.3923 18.765 20.7059C18.765 20.0194 18.4923 19.3611 18.0069 18.8757C17.5215 18.3903 16.8632 18.1176 16.1767 18.1176V15.5294C16.7397 15.5294 17.2191 15.8885 17.3977 16.3919C17.4242 16.4743 17.467 16.5505 17.5234 16.616C17.5799 16.6816 17.6489 16.7352 17.7265 16.7736C17.804 16.812 17.8884 16.8344 17.9748 16.8396C18.0612 16.8448 18.1477 16.8327 18.2293 16.8038C18.3108 16.775 18.3858 16.7301 18.4497 16.6718C18.5137 16.6135 18.5652 16.543 18.6014 16.4644C18.6376 16.3858 18.6577 16.3008 18.6604 16.2143C18.6632 16.1278 18.6486 16.0417 18.6174 15.961C18.439 15.4563 18.1084 15.0193 17.6713 14.7103C17.2342 14.4012 16.7121 14.2353 16.1767 14.2353ZM16.1767 19.4117V22C16.52 22 16.8491 21.8636 17.0918 21.6209C17.3345 21.3782 17.4709 21.0491 17.4709 20.7059C17.4709 20.3626 17.3345 20.0335 17.0918 19.7908C16.8491 19.5481 16.52 19.4117 16.1767 19.4117Z" fill="#D47F00"/>
<defs>
<clipPath id="clip0_403_1008">
<rect width="18.9804" height="18.9804" rx="5" transform="matrix(-1 0 0 1 44 12.0784)" fill="white"/>
</clipPath>
</defs>
</svg>
