<svg width="36" height="36" viewBox="0 0 36 36" fill="none" xmlns="http://www.w3.org/2000/svg">
<g clip-path="url(#clip0_403_1027)">
<path d="M31.6798 33.1199C33.2704 33.1199 34.5598 31.8304 34.5598 30.2399C34.5598 28.6493 33.2704 27.3599 31.6798 27.3599C30.0892 27.3599 28.7998 28.6493 28.7998 30.2399C28.7998 31.8304 30.0892 33.1199 31.6798 33.1199Z" fill="#D47F00"/>
<path d="M10.7999 33.1199C12.3905 33.1199 13.6799 31.8304 13.6799 30.2399C13.6799 28.6493 12.3905 27.3599 10.7999 27.3599C9.20934 27.3599 7.91992 28.6493 7.91992 30.2399C7.91992 31.8304 9.20934 33.1199 10.7999 33.1199Z" fill="#D47F00"/>
<path d="M33.84 23.7598H11.3551L11.8354 22.9808C12.0413 22.6467 12.1018 22.2428 12.0031 21.8626L11.5344 20.0583L32.4022 18.974C33.1934 18.9337 33.84 18.2518 33.84 17.4598V7.91982C33.84 7.12782 33.192 6.47982 32.4 6.47982H8.00568L7.72416 5.39766C7.64396 5.08902 7.46357 4.81573 7.2113 4.62066C6.95902 4.42559 6.64913 4.31978 6.33024 4.31982H1.44C1.05809 4.31982 0.691819 4.47154 0.421766 4.74159C0.151714 5.01164 0 5.37791 0 5.75982C0 6.14174 0.151714 6.50801 0.421766 6.77806C0.691819 7.04811 1.05809 7.19982 1.44 7.19982H5.21712L9.06192 21.9922L7.54992 24.4438C7.41543 24.662 7.34165 24.9121 7.33621 25.1683C7.33076 25.4245 7.39386 25.6775 7.51896 25.9011C7.64356 26.125 7.82573 26.3116 8.04662 26.4415C8.26752 26.5713 8.51911 26.6398 8.77536 26.6398H33.84C34.2219 26.6398 34.5882 26.4881 34.8582 26.2181C35.1283 25.948 35.28 25.5817 35.28 25.1998C35.28 24.8179 35.1283 24.4516 34.8582 24.1816C34.5882 23.9115 34.2219 23.7598 33.84 23.7598Z" fill="#D47F00"/>
</g>
<defs>
<clipPath id="clip0_403_1027">
<rect width="36" height="36" rx="5" fill="white"/>
</clipPath>
</defs>
</svg>
