<svg width="36" height="36" viewBox="0 0 36 36" fill="none" xmlns="http://www.w3.org/2000/svg">
<path d="M11.25 12C12.4435 12 13.5881 11.5259 14.432 10.682C15.2759 9.83807 15.75 8.69347 15.75 7.5C15.75 6.30653 15.2759 5.16193 14.432 4.31802C13.5881 3.47411 12.4435 3 11.25 3C10.0565 3 8.91193 3.47411 8.06802 4.31802C7.22411 5.16193 6.75 6.30653 6.75 7.5C6.75 8.69347 7.22411 9.83807 8.06802 10.682C8.91193 11.5259 10.0565 12 11.25 12ZM3 16.152C3 14.685 4.1865 13.5 5.652 13.5H12.8025C12.2751 14.4117 11.9982 15.4467 12 16.5C11.999 17.3514 12.1796 18.1932 12.5299 18.9692C12.8801 19.7452 13.3919 20.4375 14.031 21H12.402C11.5566 21 10.7313 21.2579 10.0363 21.7393C9.34137 22.2207 8.80976 22.9026 8.5125 23.694C6.2655 23.145 4.872 21.9195 4.0515 20.5545C3 18.804 3 17.004 3 16.6905V16.152ZM24 16.5C24.0018 15.4467 23.725 14.4117 23.1975 13.5H30.348C31.815 13.5 33 14.6865 33 16.152V16.692C33 17.0025 33 18.804 31.95 20.5545C31.128 21.9195 29.7345 23.145 27.4875 23.694C27.1904 22.9025 26.6589 22.2204 25.9638 21.739C25.2688 21.2577 24.4435 20.9998 23.598 21H21.969C22.6081 20.4375 23.1199 19.7452 23.4701 18.9692C23.8204 18.1932 24.001 17.3514 24 16.5ZM29.25 7.5C29.25 8.69347 28.7759 9.83807 27.932 10.682C27.0881 11.5259 25.9435 12 24.75 12C23.5565 12 22.4119 11.5259 21.568 10.682C20.7241 9.83807 20.25 8.69347 20.25 7.5C20.25 6.30653 20.7241 5.16193 21.568 4.31802C22.4119 3.47411 23.5565 3 24.75 3C25.9435 3 27.0881 3.47411 27.932 4.31802C28.7759 5.16193 29.25 6.30653 29.25 7.5ZM9.75 25.152C9.75 23.685 10.9365 22.5 12.402 22.5H23.598C25.0635 22.5 26.25 23.6865 26.25 25.152V25.692C26.25 26.0025 26.25 27.804 25.2 29.5545C24.0855 31.4055 21.9195 33 18 33C14.0805 33 11.913 31.4055 10.8 29.5545C9.75 27.804 9.75 26.004 9.75 25.6905V25.152ZM18 21C18.5909 21 19.1761 20.8836 19.7221 20.6575C20.268 20.4313 20.7641 20.0998 21.182 19.682C21.5998 19.2641 21.9313 18.768 22.1575 18.2221C22.3836 17.6761 22.5 17.0909 22.5 16.5C22.5 15.9091 22.3836 15.3239 22.1575 14.7779C21.9313 14.232 21.5998 13.7359 21.182 13.318C20.7641 12.9002 20.268 12.5687 19.7221 12.3425C19.1761 12.1164 18.5909 12 18 12C16.8065 12 15.6619 12.4741 14.818 13.318C13.9741 14.1619 13.5 15.3065 13.5 16.5C13.5 17.6935 13.9741 18.8381 14.818 19.682C15.6619 20.5259 16.8065 21 18 21Z" fill="#D47F00"/>
</svg>
