<svg width="32" height="32" viewBox="0 0 32 32" fill="none" xmlns="http://www.w3.org/2000/svg">
<path d="M13.55 23.35L25.8875 11.0125L23.4375 8.5625L13.55 18.45L8.5625 13.4625L6.1125 15.9125L13.55 23.35ZM3.75 31.75C2.7875 31.75 1.96325 31.407 1.27725 30.721C0.591253 30.035 0.248836 29.2113 0.250003 28.25V3.75C0.250003 2.7875 0.593003 1.96325 1.279 1.27725C1.965 0.591253 2.78867 0.248836 3.75 0.250003H28.25C29.2125 0.250003 30.0368 0.593003 30.7228 1.279C31.4088 1.965 31.7512 2.78867 31.75 3.75V28.25C31.75 29.2125 31.407 30.0368 30.721 30.7228C30.035 31.4088 29.2113 31.7512 28.25 31.75H3.75Z" fill="#0F4605"/>
</svg>
