<svg width="94" height="94" viewBox="0 0 94 94" fill="none" xmlns="http://www.w3.org/2000/svg">
<path d="M39.0625 40C40.5543 40 41.9851 39.4074 43.04 38.3525C44.0949 37.2976 44.6875 35.8668 44.6875 34.375C44.6875 32.8832 44.0949 31.4524 43.04 30.3975C41.9851 29.3426 40.5543 28.75 39.0625 28.75C37.5707 28.75 36.1399 29.3426 35.085 30.3975C34.0301 31.4524 33.4375 32.8832 33.4375 34.375C33.4375 35.8668 34.0301 37.2976 35.085 38.3525C36.1399 39.4074 37.5707 40 39.0625 40ZM28.75 45.19C28.75 43.3562 30.2331 41.875 32.065 41.875H41.0031C40.3439 43.0147 39.9978 44.3084 40 45.625C39.9987 46.6892 40.2245 47.7415 40.6623 48.7115C41.1001 49.6815 41.7398 50.5469 42.5387 51.25H40.5025C39.4457 51.25 38.4142 51.5724 37.5454 52.1741C36.6767 52.7758 36.0122 53.6282 35.6406 54.6175C32.8319 53.9312 31.09 52.3994 30.0644 50.6931C28.75 48.505 28.75 46.255 28.75 45.8631V45.19ZM55 45.625C55.0023 44.3084 54.6562 43.0146 53.9969 41.875H62.935C64.7687 41.875 66.25 43.3581 66.25 45.19V45.865C66.25 46.2531 66.25 48.505 64.9375 50.6931C63.91 52.3994 62.1681 53.9312 59.3594 54.6175C58.988 53.6281 58.3236 52.7755 57.4548 52.1738C56.586 51.5721 55.5543 51.2498 54.4975 51.25H52.4613C53.2602 50.5469 53.8999 49.6815 54.3377 48.7115C54.7755 47.7415 55.0013 46.6892 55 45.625ZM61.5625 34.375C61.5625 35.8668 60.9699 37.2976 59.915 38.3525C58.8601 39.4074 57.4293 40 55.9375 40C54.4457 40 53.0149 39.4074 51.96 38.3525C50.9051 37.2976 50.3125 35.8668 50.3125 34.375C50.3125 32.8832 50.9051 31.4524 51.96 30.3975C53.0149 29.3426 54.4457 28.75 55.9375 28.75C57.4293 28.75 58.8601 29.3426 59.915 30.3975C60.9699 31.4524 61.5625 32.8832 61.5625 34.375ZM37.1875 56.44C37.1875 54.6062 38.6706 53.125 40.5025 53.125H54.4975C56.3294 53.125 57.8125 54.6081 57.8125 56.44V57.115C57.8125 57.5031 57.8125 59.755 56.5 61.9431C55.1069 64.2569 52.3994 66.25 47.5 66.25C42.6006 66.25 39.8912 64.2569 38.5 61.9431C37.1875 59.755 37.1875 57.505 37.1875 57.1131V56.44ZM47.5 51.25C48.2387 51.25 48.9701 51.1045 49.6526 50.8218C50.3351 50.5391 50.9551 50.1248 51.4775 49.6025C51.9998 49.0801 52.4141 48.4601 52.6968 47.7776C52.9795 47.0951 53.125 46.3637 53.125 45.625C53.125 44.8863 52.9795 44.1549 52.6968 43.4724C52.4141 42.7899 51.9998 42.1699 51.4775 41.6475C50.9551 41.1252 50.3351 40.7109 49.6526 40.4282C48.9701 40.1455 48.2387 40 47.5 40C46.0082 40 44.5774 40.5926 43.5225 41.6475C42.4676 42.7024 41.875 44.1332 41.875 45.625C41.875 47.1168 42.4676 48.5476 43.5225 49.6025C44.5774 50.6574 46.0082 51.25 47.5 51.25Z" fill="#E49115"/>
<circle opacity="0.2" cx="47" cy="47" r="47" fill="#E49115"/>
</svg>
