<svg width="50" height="36" viewBox="0 0 50 36" fill="none" xmlns="http://www.w3.org/2000/svg">
<g clip-path="url(#clip0_597_1582)">
<path d="M28.4314 17.0954C28.4314 17.8537 29.0338 18.5529 30.049 19.1174C31.2749 19.7957 33.1032 20.2759 35.2011 20.4191C35.3569 20.3433 35.5128 20.2717 35.6771 20.2085C37.3369 19.5134 39.5443 19.1174 41.9118 19.1174C42.2614 19.1174 42.6026 19.1259 42.9439 19.1427L42.9902 19.1174C44.0054 18.5529 44.6078 17.8537 44.6078 17.0954C44.6078 15.2334 40.985 13.7253 36.5196 13.7253C32.0542 13.7253 28.4314 15.2334 28.4314 17.0954ZM43.2303 20.5118C42.8006 20.4823 42.3583 20.4655 41.9118 20.4655C39.2915 20.4655 36.9661 20.9836 35.4875 21.7882C34.4428 22.3569 33.8235 23.0647 33.8235 23.8356C33.8235 24.0041 33.853 24.1684 33.912 24.3285C34.1058 24.8845 34.6281 25.3942 35.3864 25.8239C35.3906 25.8281 35.3991 25.8281 35.4033 25.8324C35.4159 25.8408 35.4285 25.845 35.4412 25.8534C36.9156 26.6707 39.2662 27.2015 41.9118 27.2015C44.4225 27.2015 46.6678 26.7254 48.1549 25.9756C48.2349 25.9377 48.3107 25.8955 48.3866 25.8534C49.3976 25.2931 50 24.5938 50 23.8356C50 22.3696 47.7505 21.1184 44.6078 20.6593C44.1655 20.5961 43.7063 20.5455 43.2303 20.5118ZM32.4755 23.8356C32.4755 22.913 32.922 22.1547 33.4907 21.586C32.2986 21.4007 31.2075 21.1058 30.2807 20.7224C29.5941 20.436 28.9537 20.0821 28.4314 19.6482V21.1395C28.4314 21.9525 29.1265 22.7024 30.2765 23.2837C30.8915 23.5955 31.6414 23.8609 32.4839 24.0631C32.4797 23.9872 32.4755 23.9156 32.4755 23.8398V23.8356ZM33.8235 27.8797C33.8235 28.638 34.4259 29.3373 35.4412 29.9018C35.517 29.9439 35.5928 29.9818 35.6729 30.0239C37.1557 30.7738 39.401 31.2498 41.9118 31.2498C44.5573 31.2498 46.9079 30.719 48.3824 29.9018C49.3976 29.3373 50 28.638 50 27.8797V26.3884C49.4734 26.8223 48.8373 27.1762 48.1507 27.4626C46.4867 28.1577 44.2793 28.5537 41.9118 28.5537C39.5443 28.5537 37.3369 28.1577 35.6729 27.4626C35.3443 27.3278 35.0283 27.172 34.7292 27.0035C34.4723 26.8602 34.2322 26.7002 34.0047 26.5317C33.9415 26.4853 33.8825 26.4348 33.8235 26.3884V27.8797ZM32.4755 27.8797V25.4406C31.6751 25.2637 30.9379 25.0404 30.2807 24.7666C29.5941 24.4801 28.9537 24.1262 28.4314 23.6923V25.1836C28.4314 25.6259 28.642 26.0683 29.0591 26.4853C29.7457 27.172 30.9547 27.7365 32.4839 28.103C32.4797 28.0313 32.4755 27.9555 32.4755 27.8797ZM41.9118 32.5978C39.5443 32.5978 37.3369 32.2018 35.6729 31.5068C34.9862 31.2203 34.3459 30.8664 33.8235 30.4325V31.9238C33.8235 33.7858 37.4464 35.2939 41.9118 35.2939C46.3771 35.2939 50 33.7858 50 31.9238V30.4325C49.4734 30.8664 48.8373 31.2203 48.1507 31.5068C46.4867 32.2018 44.2793 32.5978 41.9118 32.5978Z" fill="#1A7408"/>
</g>
<path fill-rule="evenodd" clip-rule="evenodd" d="M17.6759 4.41174C14.3546 4.41174 11.3288 5.5088 9.53841 6.40513C9.37664 6.48601 9.22591 6.56542 9.08547 6.64189C8.80753 6.79336 8.57076 6.93454 8.38253 7.0588L10.4193 10.0573L11.3781 10.4389C15.1252 12.3294 20.1502 12.3294 23.898 10.4389L24.9862 9.87424L26.9119 7.0588C26.5131 6.79855 26.0983 6.56353 25.67 6.35513C23.8884 5.46836 20.934 4.41174 17.6759 4.41174ZM12.9391 7.80586C12.2179 7.67091 11.5056 7.49214 10.8061 7.27057C12.4833 6.52571 14.9825 5.73527 17.6759 5.73527C19.5413 5.73527 21.3053 6.11468 22.7641 6.59557C21.0546 6.83601 19.2303 7.2441 17.4921 7.7463C16.1244 8.14189 14.5259 8.09924 12.9391 7.80586ZM24.6744 11.5294L24.4936 11.6206C20.3715 13.7 14.9038 13.7 10.7818 11.6206L10.6105 11.5338C4.41782 18.3287 -0.310122 30.8801 17.6759 30.8801C35.6619 30.8801 30.8186 18.0941 24.6744 11.5294ZM16.9119 17.647C16.5219 17.647 16.1479 17.802 15.8721 18.0778C15.5963 18.3536 15.4413 18.7276 15.4413 19.1176C15.4413 19.5076 15.5963 19.8817 15.8721 20.1575C16.1479 20.4333 16.5219 20.5882 16.9119 20.5882V17.647ZM18.3825 16.1764V15.4412H16.9119V16.1764C16.1319 16.1764 15.3838 16.4863 14.8322 17.0379C14.2806 17.5895 13.9708 18.3376 13.9708 19.1176C13.9708 19.8977 14.2806 20.6458 14.8322 21.1973C15.3838 21.7489 16.1319 22.0588 16.9119 22.0588V25C16.2722 25 15.7274 24.5919 15.5244 24.0198C15.4943 23.9262 15.4458 23.8396 15.3816 23.7651C15.3174 23.6907 15.239 23.6298 15.1509 23.5861C15.0628 23.5425 14.9668 23.517 14.8687 23.5111C14.7705 23.5051 14.6722 23.519 14.5795 23.5517C14.4868 23.5845 14.4016 23.6355 14.329 23.7017C14.2563 23.768 14.1977 23.8481 14.1566 23.9374C14.1155 24.0267 14.0927 24.1234 14.0896 24.2216C14.0864 24.3199 14.103 24.4178 14.1384 24.5095C14.3412 25.083 14.7169 25.5796 15.2136 25.9308C15.7103 26.282 16.3036 26.4706 16.9119 26.4706V27.2059H18.3825V26.4706C19.1626 26.4706 19.9107 26.1607 20.4622 25.6091C21.0138 25.0575 21.3237 24.3094 21.3237 23.5294C21.3237 22.7493 21.0138 22.0012 20.4622 21.4497C19.9107 20.8981 19.1626 20.5882 18.3825 20.5882V17.647C19.0222 17.647 19.5671 18.0551 19.77 18.6272C19.8001 18.7208 19.8487 18.8074 19.9129 18.8819C19.977 18.9564 20.0555 19.0172 20.1436 19.0609C20.2317 19.1045 20.3276 19.1301 20.4258 19.136C20.5239 19.1419 20.6222 19.128 20.7149 19.0953C20.8076 19.0625 20.8928 19.0115 20.9655 18.9453C21.0381 18.879 21.0967 18.7989 21.1379 18.7096C21.179 18.6203 21.2018 18.5236 21.2049 18.4254C21.208 18.3271 21.1914 18.2292 21.1561 18.1375C20.9532 17.564 20.5776 17.0674 20.0809 16.7162C19.5842 16.365 18.9908 16.1765 18.3825 16.1764ZM18.3825 22.0588V25C18.7725 25 19.1466 24.845 19.4224 24.5693C19.6982 24.2935 19.8531 23.9194 19.8531 23.5294C19.8531 23.1394 19.6982 22.7653 19.4224 22.4895C19.1466 22.2137 18.7725 22.0588 18.3825 22.0588Z" fill="#1A7408"/>
<defs>
<clipPath id="clip0_597_1582">
<rect width="21.5686" height="21.5686" rx="5" transform="matrix(-1 0 0 1 50 13.7253)" fill="white"/>
</clipPath>
</defs>
</svg>
