<svg width="94" height="94" viewBox="0 0 94 94" fill="none" xmlns="http://www.w3.org/2000/svg">
<circle opacity="0.2" cx="47" cy="47" r="47" fill="#17B3BD"/>
<path d="M58.8138 31.474C57.4278 31.474 56.2998 32.602 56.2998 33.988V38.89C56.2998 40.276 57.4278 41.404 58.8138 41.404C60.1998 41.404 61.3278 40.276 61.3278 38.89V33.988C61.3278 32.602 60.1998 31.474 58.8138 31.474Z" fill="#17B3BD"/>
<path d="M42.5837 37.936V30.76C42.5837 29.374 41.4557 28.246 40.0697 28.246C38.6837 28.246 37.5557 29.374 37.5557 30.76V36.976C37.7297 36.988 37.9037 37.006 38.0777 37.042L42.5777 37.936H42.5837Z" fill="#17B3BD"/>
<path d="M55.6938 40.936C55.0278 41.956 53.8758 42.628 52.5678 42.628C51.4638 42.628 50.4678 42.148 49.7838 41.38C49.7658 41.518 49.7298 41.656 49.6878 41.788C48.9978 43.744 47.1378 45.07 45.0618 45.076H44.7618C44.7918 45.094 44.8218 45.112 44.8518 45.13C46.5378 46.126 48.5538 48.1 48.5538 51.82C48.5538 52.156 48.2778 52.432 47.9418 52.432C47.6058 52.432 47.3298 52.156 47.3298 51.82C47.3298 49.312 46.2978 47.422 44.2638 46.204C42.6978 45.268 41.0898 45.088 41.0778 45.088C40.7538 45.052 40.5138 44.776 40.5318 44.446C40.5498 44.122 40.8138 43.864 41.1378 43.864L45.0558 43.852C46.6158 43.852 48.0138 42.856 48.5358 41.38C48.6198 41.134 48.5958 40.882 48.4698 40.654C48.3438 40.432 48.1338 40.282 47.8818 40.228L37.8438 38.236C36.5838 37.984 35.3298 38.674 34.8618 39.868L33.1278 44.296C32.3358 46.318 32.5878 48.592 33.8058 50.392L39.0738 58.162C39.6858 59.062 40.0098 60.118 40.0098 61.204V64.966H57.3438V60.46C57.3438 60.352 57.3738 60.25 57.4278 60.154L59.0958 57.262C60.5538 54.73 61.3278 51.844 61.3278 48.916V41.644C60.6618 42.25 59.7798 42.616 58.8138 42.616C57.5058 42.616 56.3598 41.944 55.6878 40.924L55.6938 40.936Z" fill="#17B3BD"/>
<path d="M48.7996 39.304C48.8236 39.172 48.8356 39.034 48.8356 38.896V31.606C48.8356 30.22 47.7076 29.092 46.3216 29.092C44.9356 29.092 43.8076 30.22 43.8076 31.606V38.188L48.1156 39.046C48.3616 39.094 48.5896 39.184 48.7996 39.31V39.304Z" fill="#17B3BD"/>
<path d="M52.5677 41.404C53.9537 41.404 55.0817 40.276 55.0817 38.89V32.956C55.0817 31.57 53.9537 30.442 52.5677 30.442C51.1817 30.442 50.0537 31.57 50.0537 32.956V38.89C50.0537 40.276 51.1817 41.404 52.5677 41.404Z" fill="#17B3BD"/>
<path d="M46.9997 20.53C47.3357 20.53 47.6117 20.254 47.6117 19.918V15.64C47.6117 15.304 47.3357 15.028 46.9997 15.028C46.6637 15.028 46.3877 15.304 46.3877 15.64V19.918C46.3877 20.254 46.6637 20.53 46.9997 20.53Z" fill="#17B3BD"/>
<path d="M25.4896 46H21.2116C20.8756 46 20.5996 46.276 20.5996 46.612C20.5996 46.948 20.8756 47.224 21.2116 47.224H25.4896C25.8256 47.224 26.1016 46.948 26.1016 46.612C26.1016 46.276 25.8256 46 25.4896 46Z" fill="#17B3BD"/>
<path d="M35.1499 24.6161C35.2759 24.6161 35.4019 24.5741 35.5159 24.4961C35.7859 24.2921 35.8459 23.9141 35.6419 23.6381L33.0919 20.2001C32.8879 19.9301 32.5099 19.8701 32.2339 20.0741C31.9639 20.2781 31.9039 20.6561 32.1079 20.9321L34.6579 24.3701C34.7779 24.5321 34.9639 24.6161 35.1499 24.6161Z" fill="#17B3BD"/>
<path d="M27.596 33.712L23.552 32.314C23.234 32.206 22.886 32.374 22.772 32.692C22.664 33.01 22.832 33.358 23.15 33.472L27.194 34.87C27.26 34.894 27.326 34.906 27.392 34.906C27.644 34.906 27.884 34.75 27.968 34.492C28.076 34.174 27.908 33.826 27.59 33.712H27.596Z" fill="#17B3BD"/>
<path d="M72.7884 46H68.5104C68.1744 46 67.8984 46.276 67.8984 46.612C67.8984 46.948 68.1744 47.224 68.5104 47.224H72.7884C73.1244 47.224 73.4004 46.948 73.4004 46.612C73.4004 46.276 73.1244 46 72.7884 46Z" fill="#17B3BD"/>
<path d="M61.7659 20.0741C61.4959 19.8701 61.1119 19.9301 60.9079 20.2001L58.3579 23.6381C58.1539 23.9081 58.2139 24.2921 58.4839 24.4961C58.5919 24.5801 58.7239 24.6161 58.8499 24.6161C59.0359 24.6161 59.2219 24.5321 59.3419 24.3701L61.8919 20.9321C62.0959 20.6621 62.0359 20.2781 61.7659 20.0741Z" fill="#17B3BD"/>
<path d="M71.2279 32.692C71.1199 32.374 70.7719 32.206 70.4479 32.314L66.4039 33.712C66.0859 33.82 65.9179 34.168 66.0259 34.492C66.1159 34.744 66.3499 34.906 66.6019 34.906C66.6679 34.906 66.7339 34.894 66.7999 34.87L70.8439 33.472C71.1619 33.364 71.3299 33.016 71.2219 32.692H71.2279Z" fill="#17B3BD"/>
</svg>
