<svg width="41" height="40" viewBox="0 0 41 40" fill="none" xmlns="http://www.w3.org/2000/svg">
<path d="M12.5368 13.3333C13.8629 13.3333 15.1346 12.8065 16.0723 11.8688C17.01 10.9312 17.5368 9.6594 17.5368 8.33331C17.5368 7.00723 17.01 5.73546 16.0723 4.79778C15.1346 3.8601 13.8629 3.33331 12.5368 3.33331C11.2107 3.33331 9.93893 3.8601 9.00125 4.79778C8.06357 5.73546 7.53678 7.00723 7.53678 8.33331C7.53678 9.6594 8.06357 10.9312 9.00125 11.8688C9.93893 12.8065 11.2107 13.3333 12.5368 13.3333ZM3.37012 17.9466C3.37012 16.3166 4.68845 15 6.31678 15H14.2618C13.6758 16.013 13.3682 17.163 13.3701 18.3333C13.369 19.2793 13.5697 20.2146 13.9589 21.0768C14.348 21.9391 14.9166 22.7084 15.6268 23.3333H13.8168C12.8774 23.3333 11.9605 23.6199 11.1883 24.1548C10.4161 24.6896 9.82541 25.4473 9.49512 26.3266C6.99845 25.7166 5.45012 24.355 4.53845 22.8383C3.37012 20.8933 3.37012 18.8933 3.37012 18.545V17.9466ZM26.7034 18.3333C26.7055 17.163 26.3979 16.013 25.8118 15H33.7568C35.3868 15 36.7034 16.3183 36.7034 17.9466V18.5466C36.7034 18.8916 36.7034 20.8933 35.5368 22.8383C34.6234 24.355 33.0751 25.7166 30.5785 26.3266C30.2484 25.4472 29.6577 24.6894 28.8855 24.1545C28.1133 23.6196 27.1962 23.3331 26.2568 23.3333H24.4468C25.1569 22.7084 25.7256 21.9391 26.1147 21.0768C26.5039 20.2146 26.7046 19.2793 26.7034 18.3333ZM32.5368 8.33331C32.5368 9.6594 32.01 10.9312 31.0723 11.8688C30.1346 12.8065 28.8629 13.3333 27.5368 13.3333C26.2107 13.3333 24.9389 12.8065 24.0012 11.8688C23.0636 10.9312 22.5368 9.6594 22.5368 8.33331C22.5368 7.00723 23.0636 5.73546 24.0012 4.79778C24.9389 3.8601 26.2107 3.33331 27.5368 3.33331C28.8629 3.33331 30.1346 3.8601 31.0723 4.79778C32.01 5.73546 32.5368 7.00723 32.5368 8.33331ZM10.8701 27.9466C10.8701 26.3166 12.1884 25 13.8168 25H26.2568C27.8851 25 29.2034 26.3183 29.2034 27.9466V28.5466C29.2034 28.8916 29.2034 30.8933 28.0368 32.8383C26.7984 34.895 24.3918 36.6666 20.0368 36.6666C15.6818 36.6666 13.2734 34.895 12.0368 32.8383C10.8701 30.8933 10.8701 28.8933 10.8701 28.545V27.9466ZM20.0368 23.3333C20.6934 23.3333 21.3436 23.204 21.9502 22.9527C22.5568 22.7014 23.108 22.3331 23.5723 21.8688C24.0366 21.4046 24.4049 20.8534 24.6562 20.2467C24.9075 19.6401 25.0368 18.9899 25.0368 18.3333C25.0368 17.6767 24.9075 17.0265 24.6562 16.4199C24.4049 15.8133 24.0366 15.2621 23.5723 14.7978C23.108 14.3335 22.5568 13.9652 21.9502 13.7139C21.3436 13.4626 20.6934 13.3333 20.0368 13.3333C18.7107 13.3333 17.4389 13.8601 16.5012 14.7978C15.5636 15.7355 15.0368 17.0072 15.0368 18.3333C15.0368 19.6594 15.5636 20.9312 16.5012 21.8688C17.4389 22.8065 18.7107 23.3333 20.0368 23.3333Z" fill="#1A7408"/>
</svg>
