<svg width="94" height="94" viewBox="0 0 94 94" fill="none" xmlns="http://www.w3.org/2000/svg">
<circle opacity="0.2" cx="47" cy="47" r="47" fill="#38CD59"/>
<path d="M59.501 54.0601C59.1216 53.6806 58.499 53.6806 58.1196 54.0601C57.7401 54.4395 57.7401 55.0524 58.1196 55.4318L60.6296 57.9418C60.8241 58.1267 61.0673 58.224 61.3203 58.224C61.5635 58.224 61.8165 58.1267 62.011 57.9418C62.3905 57.5624 62.3905 56.9495 62.011 56.5701L59.501 54.0601Z" fill="#38CD59"/>
<path d="M68.2282 42.9305C68.2282 42.3954 67.7904 41.9576 67.2553 41.9576H63.7043C63.1595 41.9576 62.7314 42.3954 62.7314 42.9305C62.7314 43.4753 63.1595 43.9034 63.7043 43.9034H67.2553C67.7904 43.9034 68.2282 43.4753 68.2282 42.9305Z" fill="#38CD59"/>
<path d="M25.7715 42.9305C25.7715 43.4753 26.2093 43.9034 26.7444 43.9034H30.2953C30.8304 43.9034 31.2682 43.4753 31.2682 42.9305C31.2682 42.3954 30.8304 41.9576 30.2953 41.9576H26.7444C26.2093 41.9576 25.7715 42.3954 25.7715 42.9305Z" fill="#38CD59"/>
<path d="M31.9887 57.9418C32.1832 58.1267 32.4264 58.224 32.6794 58.224C32.9324 58.224 33.1756 58.1267 33.3702 57.9418L35.8802 55.4318C36.2596 55.0524 36.2596 54.4395 35.8802 54.0601C35.5007 53.6806 34.8781 53.6806 34.4986 54.0601L31.9887 56.5701C31.6092 56.9495 31.6092 57.5624 31.9887 57.9418Z" fill="#38CD59"/>
<path d="M34.4986 31.8106C34.6932 32.0051 34.9364 32.0927 35.1894 32.0927C35.4326 32.0927 35.6856 32.0051 35.8802 31.8106C36.2596 31.4312 36.2596 30.8183 35.8802 30.4388L33.3702 27.9288C32.9907 27.5494 32.3681 27.5494 31.9887 27.9288C31.6092 28.3083 31.6092 28.9212 31.9887 29.3006L34.4986 31.8106Z" fill="#38CD59"/>
<path d="M62.011 27.9288C61.6219 27.5494 61.009 27.5494 60.6296 27.9288L58.1196 30.4388C57.7401 30.8183 57.7401 31.4312 58.1196 31.8106C58.3141 32.0051 58.5574 32.0927 58.8103 32.0927C59.0535 32.0927 59.3064 32.0051 59.501 31.8106L62.011 29.3006C62.3905 28.9212 62.3905 28.3083 62.011 27.9288Z" fill="#38CD59"/>
<path d="M53.1877 65.0633H54.1703C54.7054 65.0633 55.1432 64.6255 55.1432 64.0904C55.1432 63.5554 54.7054 63.1176 54.1703 63.1176H53.2656V61.5123H40.735V63.1176H39.8303C39.2952 63.1176 38.8574 63.5554 38.8574 64.0904C38.8574 64.6255 39.2952 65.0633 39.8303 65.0633H40.8129C41.2798 68.0596 43.8774 70.3557 47.0003 70.3557C50.1232 70.3557 52.7208 68.0596 53.1877 65.0633Z" fill="#38CD59"/>
<path d="M46.3283 29.1741C39.4404 29.4952 33.7005 35.1378 33.2529 42.016C33.0292 45.4015 34.0507 48.7385 36.1326 51.3944L36.6677 52.0657C38.3994 54.2644 39.275 55.3637 39.275 58.1169V58.5937C39.275 59.1287 39.7128 59.5665 40.2479 59.5665H43.8378V54.0017C43.8378 50.8107 43.1956 47.6975 41.9309 44.7692L41.7169 44.2925C41.5126 43.806 41.7363 43.2321 42.2228 43.018C42.7189 42.804 43.293 43.0277 43.507 43.5142C43.5264 43.5628 43.5361 43.5823 43.614 43.6115C44.2172 43.8158 45.7154 43.2515 46.5325 42.8138C46.8245 42.6483 47.1747 42.6483 47.4666 42.8138C48.2838 43.2612 49.7722 43.8158 50.3851 43.6115C50.463 43.5823 50.4727 43.5628 50.4921 43.5142C50.7062 43.0277 51.2802 42.804 51.7666 43.018C52.2628 43.2321 52.4866 43.806 52.2725 44.2925L52.0682 44.7692C50.8035 47.7073 50.1614 50.8107 50.1614 54.0017V59.5665H53.7513C54.2864 59.5665 54.7241 59.1287 54.7241 58.5937V58.1072C54.7241 55.2372 55.6095 54.1574 57.5454 51.7835L57.6817 51.6279C59.676 49.1763 60.7754 46.0923 60.7754 42.9305C60.7754 39.1265 59.2577 35.5854 56.5045 32.9586C53.7513 30.3318 50.1322 28.999 46.3283 29.1741Z" fill="#38CD59"/>
<path d="M48.2157 59.5665V54.0018C48.2157 51.1123 48.7021 48.2813 49.6653 45.5767C48.6535 45.4794 47.6125 45.0513 46.9996 44.7595C46.3867 45.0513 45.3458 45.4794 44.334 45.5767C45.2971 48.2813 45.7836 51.1123 45.7836 54.0018V59.5665H48.2157Z" fill="#38CD59"/>
<path d="M46.0608 22.797C45.5461 22.797 45.1416 23.2107 45.1416 23.7162V26.7036C45.1416 27.2183 45.5461 27.6228 46.0608 27.6228C46.5664 27.6228 46.98 27.2183 46.98 26.7036V23.7162C46.98 23.2107 46.5664 22.797 46.0608 22.797Z" fill="#38CD59"/>
</svg>
