<svg width="40" height="40" viewBox="0 0 40 40" fill="none" xmlns="http://www.w3.org/2000/svg">
<path d="M38.1176 31.2508L38.128 31.2448L24.8296 8.21201L24.824 8.21521C24.5312 7.61441 23.92 7.19641 23.2064 7.19641C22.859 7.19682 22.5191 7.29762 22.2277 7.48667C21.9362 7.67572 21.7056 7.94497 21.5636 8.26201L12.7136 23.59L10.5468 19.8372L10.544 19.8388C10.4667 19.6781 10.3456 19.5424 10.1947 19.4473C10.0438 19.3523 9.86915 19.3016 9.69079 19.3012C9.30519 19.3012 8.97439 19.5324 8.82519 19.862L2.50839 30.8036H2.47999V30.8524L1.86839 31.9116C1.79472 32.0069 1.75464 32.1239 1.75439 32.2444C1.75439 32.55 2.00199 32.7976 2.30719 32.7976C2.36799 32.7976 2.42519 32.7856 2.47999 32.7672V32.8036H37.28V32.7836C37.5423 32.7635 37.7873 32.6452 37.9662 32.4523C38.1451 32.2595 38.2448 32.0063 38.2452 31.7432C38.2443 31.571 38.2004 31.4018 38.1176 31.2508Z" fill="#1A7408"/>
</svg>
