<svg width="45" height="45" viewBox="0 0 45 45" fill="none" xmlns="http://www.w3.org/2000/svg">
<path d="M17.2611 8.90625C17.2611 9.33715 17.1763 9.76383 17.0114 10.1619C16.8465 10.56 16.6048 10.9218 16.3001 11.2264C15.9954 11.5311 15.6337 11.7728 15.2356 11.9377C14.8375 12.1026 14.4108 12.1875 13.9799 12.1875C13.549 12.1875 13.1223 12.1026 12.7242 11.9377C12.3261 11.7728 11.9644 11.5311 11.6597 11.2264C11.355 10.9218 11.1133 10.56 10.9484 10.1619C10.7835 9.76383 10.6986 9.33715 10.6986 8.90625C10.6986 8.03601 11.0443 7.20141 11.6597 6.58606C12.275 5.9707 13.1096 5.625 13.9799 5.625C14.8501 5.625 15.6847 5.9707 16.3001 6.58606C16.9154 7.20141 17.2611 8.03601 17.2611 8.90625ZM18.2755 14.1009C18.1689 14.0758 18.0597 14.0632 17.9502 14.0634H12.478C12.4699 14.0633 12.4618 14.0633 12.4536 14.0634H10.0077C9.89801 14.0634 9.7902 14.0766 9.68333 14.1019C8.62583 14.3541 7.89176 14.9662 7.41833 15.8456C7.00583 16.6125 6.8052 17.5659 6.63926 18.5072L5.64645 24.1322C5.58836 24.4965 5.67579 24.8691 5.88988 25.1696C6.10397 25.4701 6.42757 25.6744 6.79091 25.7385C7.15425 25.8025 7.52822 25.7213 7.83219 25.5122C8.13615 25.3031 8.34577 24.9829 8.41583 24.6206L9.40958 18.9956C9.52489 18.3366 9.62895 17.88 9.7377 17.5538L10.0096 20.625C10.0096 22.3744 8.3352 30.3487 7.73708 33.1416C7.71005 33.2663 7.70905 33.3953 7.73414 33.5205C7.75923 33.6457 7.80988 33.7643 7.88291 33.869C7.95594 33.9737 8.04979 34.0622 8.15858 34.129C8.26738 34.1958 8.38878 34.2394 8.5152 34.2572C12.6383 34.8412 15.3215 34.8225 19.4446 34.2534C19.571 34.2362 19.6926 34.1931 19.8016 34.1268C19.9106 34.0605 20.0048 33.9724 20.0783 33.8681C20.1518 33.7638 20.2029 33.6454 20.2286 33.5204C20.2542 33.3954 20.2538 33.2664 20.2274 33.1416C19.634 30.3047 17.9502 22.1287 17.9502 20.6259L18.2221 17.5538C18.3299 17.8791 18.434 18.3366 18.5502 18.9947L19.544 24.6197C19.571 24.806 19.6352 24.985 19.7327 25.1461C19.8302 25.3071 19.9591 25.4469 20.1117 25.5572C20.2643 25.6676 20.4374 25.7461 20.6209 25.7882C20.8044 25.8304 20.9945 25.8352 21.1799 25.8025C21.3654 25.7698 21.5423 25.7002 21.7003 25.5978C21.8583 25.4954 21.9942 25.3624 22.0998 25.2065C22.2054 25.0506 22.2786 24.8751 22.3152 24.6904C22.3517 24.5057 22.3507 24.3156 22.3124 24.1312L21.3205 18.5062C21.1546 17.5659 20.953 16.6116 20.5405 15.8437C20.068 14.9662 19.334 14.3531 18.2755 14.1009ZM10.5683 38.5612L10.1952 35.7366C11.2077 35.8528 12.1733 35.9287 13.123 35.9644L12.4049 38.6775C12.3498 38.8879 12.2233 39.0725 12.0471 39.1999C11.8708 39.3273 11.6558 39.3894 11.4387 39.3757C11.2217 39.3619 11.0162 39.2732 10.8574 39.1246C10.6986 38.976 10.5964 38.7769 10.5683 38.5612ZM15.5549 38.6775L14.8424 35.9859C15.8141 35.9723 16.7849 35.9197 17.7524 35.8284L17.3905 38.5603C17.362 38.7755 17.2598 38.9742 17.1012 39.1224C16.9426 39.2706 16.7375 39.3591 16.5208 39.373C16.3042 39.3868 16.0895 39.325 15.9133 39.1982C15.7372 39.0714 15.6105 38.8873 15.5549 38.6775ZM31.3236 6.64312L38.0802 13.3997L36.7546 14.7253L35.5424 13.5131V18.75H32.7299V16.4062C32.7299 16.0333 32.5817 15.6756 32.318 15.4119C32.0543 15.1482 31.6966 15 31.3236 15C30.9507 15 30.593 15.1482 30.3293 15.4119C30.0655 15.6756 29.9174 16.0333 29.9174 16.4062V18.75H27.1049V13.5131L25.8927 14.7253L24.5671 13.3997L31.3236 6.64312ZM31.3236 23.0494L39.9552 31.6809L38.6296 33.0066L36.8399 31.2178V38.4741H33.1621V35.4084C33.1676 35.1635 33.1241 34.9198 33.0342 34.6919C32.9443 34.4639 32.8097 34.2563 32.6384 34.081C32.4671 33.9058 32.2625 33.7666 32.0366 33.6716C31.8108 33.5765 31.5682 33.5275 31.3232 33.5275C31.0781 33.5275 30.8356 33.5765 30.6097 33.6716C30.3838 33.7666 30.1792 33.9058 30.0079 34.081C29.8366 34.2563 29.7021 34.4639 29.6121 34.6919C29.5222 34.9198 29.4787 35.1635 29.4843 35.4084V38.4741H25.8065V31.2178L24.0177 33.0066L22.6921 31.6809L31.3236 23.0494Z" fill="#1A7408"/>
</svg>
