<svg width="94" height="94" viewBox="0 0 94 94" fill="none" xmlns="http://www.w3.org/2000/svg">
<circle opacity="0.2" cx="47" cy="47" r="47" fill="#F76345"/>
<path d="M47.2656 33.6562L39.7031 39.7813C38.4453 40.7969 38.2031 42.625 39.1562 43.9297C40.1641 45.3203 42.125 45.5938 43.4766 44.5391L51.2344 38.5078C51.7812 38.0859 52.5625 38.1797 52.9922 38.7266C53.4219 39.2734 53.3203 40.0547 52.7734 40.4844L51.1406 41.75L62 51.75V37H61.9453L61.6406 36.8047L55.9688 33.1719C54.7734 32.4062 53.375 32 51.9531 32C50.25 32 48.5938 32.5859 47.2656 33.6562ZM49.0469 43.375L45.0078 46.5156C42.5469 48.4375 38.9766 47.9375 37.1328 45.4062C35.3984 43.0234 35.8359 39.6953 38.125 37.8438L44.625 32.5859C43.7188 32.2031 42.7422 32.0078 41.75 32.0078C40.2812 32 38.8516 32.4375 37.625 33.25L32 37V54.5H34.2031L41.3438 61.0156C42.875 62.4141 45.2422 62.3047 46.6406 60.7734C47.0703 60.2969 47.3594 59.7422 47.5078 59.1641L48.8359 60.3828C50.3594 61.7812 52.7344 61.6797 54.1328 60.1562C54.4844 59.7734 54.7422 59.3281 54.9062 58.8672C56.4219 59.8828 58.4844 59.6719 59.7578 58.2812C61.1562 56.7578 61.0547 54.3828 59.5312 52.9844L49.0469 43.375ZM23.25 37C22.5625 37 22 37.5625 22 38.25V54.5C22 55.8828 23.1172 57 24.5 57H27C28.3828 57 29.5 55.8828 29.5 54.5V37H23.25ZM25.75 52C26.0815 52 26.3995 52.1317 26.6339 52.3661C26.8683 52.6005 27 52.9185 27 53.25C27 53.5815 26.8683 53.8995 26.6339 54.1339C26.3995 54.3683 26.0815 54.5 25.75 54.5C25.4185 54.5 25.1005 54.3683 24.8661 54.1339C24.6317 53.8995 24.5 53.5815 24.5 53.25C24.5 52.9185 24.6317 52.6005 24.8661 52.3661C25.1005 52.1317 25.4185 52 25.75 52ZM64.5 37V54.5C64.5 55.8828 65.6172 57 67 57H69.5C70.8828 57 72 55.8828 72 54.5V38.25C72 37.5625 71.4375 37 70.75 37H64.5ZM67 53.25C67 52.9185 67.1317 52.6005 67.3661 52.3661C67.6005 52.1317 67.9185 52 68.25 52C68.5815 52 68.8995 52.1317 69.1339 52.3661C69.3683 52.6005 69.5 52.9185 69.5 53.25C69.5 53.5815 69.3683 53.8995 69.1339 54.1339C68.8995 54.3683 68.5815 54.5 68.25 54.5C67.9185 54.5 67.6005 54.3683 67.3661 54.1339C67.1317 53.8995 67 53.5815 67 53.25Z" fill="#F76345"/>
</svg>
