<svg width="41" height="40" viewBox="0 0 41 40" fill="none" xmlns="http://www.w3.org/2000/svg">
<path d="M6.70345 35C5.78679 35 5.00179 34.6733 4.34845 34.02C3.69512 33.3667 3.36901 32.5822 3.37012 31.6667V13.3333C3.37012 12.4167 3.69679 11.6317 4.35012 10.9783C5.00345 10.325 5.7879 9.9989 6.70345 10H13.3701V6.66668C13.3701 5.75001 13.6968 4.96501 14.3501 4.31168C15.0035 3.65835 15.7879 3.33224 16.7035 3.33335H23.3701C24.2868 3.33335 25.0718 3.66001 25.7251 4.31335C26.3785 4.96668 26.7046 5.75112 26.7035 6.66668V10H33.3701C34.2868 10 35.0718 10.3267 35.7251 10.98C36.3785 11.6333 36.7046 12.4178 36.7035 13.3333V31.6667C36.7035 32.5833 36.3768 33.3683 35.7235 34.0217C35.0701 34.675 34.2857 35.0011 33.3701 35H6.70345ZM16.7035 10H23.3701V6.66668H16.7035V10Z" fill="#1A7408"/>
</svg>
