<svg width="539" height="539" viewBox="0 0 539 539" fill="none" xmlns="http://www.w3.org/2000/svg">
<path d="M476.826 164.691C480.264 164.691 483.625 163.672 486.484 161.762C489.342 159.852 491.57 157.137 492.886 153.961C494.202 150.784 494.546 147.289 493.875 143.917C493.204 140.546 491.549 137.448 489.118 135.017C486.687 132.586 483.589 130.931 480.218 130.26C476.846 129.589 473.351 129.933 470.174 131.249C466.998 132.565 464.283 134.793 462.373 137.651C460.463 140.51 459.444 143.871 459.444 147.309C459.443 149.592 459.892 151.852 460.765 153.962C461.639 156.071 462.919 157.987 464.533 159.602C466.148 161.216 468.064 162.496 470.173 163.37C472.283 164.243 474.543 164.692 476.826 164.691ZM269.71 118.284V139.391C123.124 139.391 4.31201 198.406 4.31201 271.209C4.31201 345.434 123.124 405.619 269.71 405.619C416.647 405.619 535.766 344.157 535.766 268.341C535.766 185.47 416.647 118.284 269.71 118.284Z" fill="white"/>
<path d="M474.778 142.037H476.395C476.826 142.028 477.255 142.077 477.673 142.183C477.969 142.259 478.244 142.399 478.481 142.592C478.679 142.756 478.822 142.976 478.891 143.223C478.965 143.468 479.002 143.722 478.999 143.978C479.012 144.255 478.969 144.533 478.872 144.793C478.775 145.054 478.625 145.292 478.433 145.492C478.039 145.875 477.355 146.064 476.336 146.064H474.757V142.037M471.523 154.391C472.006 154.517 472.506 154.566 473.005 154.537C473.482 154.57 473.962 154.52 474.422 154.391C474.525 154.346 474.611 154.269 474.668 154.173C474.725 154.076 474.75 153.964 474.741 153.852V148.802H475.7C476.341 148.757 476.975 148.948 477.484 149.341C477.984 149.859 478.337 150.501 478.508 151.2L479.268 153.68C479.3 153.844 479.37 154 479.473 154.132L479.834 154.386C480.032 154.455 480.239 154.499 480.449 154.515C480.686 154.515 481.02 154.542 481.43 154.542C481.839 154.542 482.249 154.542 482.508 154.515C482.766 154.488 482.966 154.45 483.122 154.418L483.391 154.246L483.435 153.976C483.395 153.608 483.312 153.246 483.187 152.898L482.319 150.597C482.052 149.821 481.609 149.118 481.025 148.543C480.557 148.112 480.007 147.781 479.408 147.567C480.359 147.368 481.234 146.903 481.931 146.225C482.262 145.863 482.517 145.438 482.68 144.975C482.843 144.512 482.911 144.02 482.879 143.53C482.894 142.861 482.754 142.196 482.47 141.59C482.206 141.048 481.802 140.586 481.3 140.253C480.737 139.861 480.098 139.591 479.424 139.461C478.591 139.275 477.739 139.187 476.886 139.197H472.752C472.531 139.181 472.31 139.213 472.104 139.292C471.897 139.37 471.71 139.492 471.555 139.649C471.276 140.005 471.135 140.449 471.156 140.9V153.836C471.15 153.954 471.183 154.07 471.249 154.167C471.315 154.264 471.411 154.337 471.523 154.375M476.789 136.049C482.815 136.049 487.693 141.083 487.693 147.298C487.693 153.513 482.842 158.547 476.789 158.547C470.736 158.547 465.89 153.513 465.89 147.298C465.89 141.083 470.741 136.049 476.789 136.049ZM476.789 161.382C479.572 161.383 482.294 160.559 484.609 159.013C486.924 157.467 488.729 155.269 489.795 152.698C490.861 150.127 491.14 147.297 490.598 144.566C490.055 141.836 488.715 139.328 486.747 137.359C484.779 135.391 482.272 134.05 479.542 133.506C476.812 132.963 473.982 133.241 471.41 134.306C468.838 135.371 466.64 137.175 465.093 139.489C463.546 141.804 462.721 144.525 462.721 147.309C462.722 151.04 464.205 154.618 466.842 157.257C469.48 159.895 473.058 161.379 476.789 161.382ZM345.451 133.252C344.417 136.019 343.045 138.648 341.365 141.078C378.61 149.314 418.14 163.414 446.47 183.858C447.683 184.742 446.61 186.402 445.478 185.815C397.426 160.843 334.557 148.193 269.705 148.193C132.664 148.193 21.5601 203.268 21.5601 271.209C21.5601 340.578 132.648 396.796 269.694 396.796C407.069 396.796 518.426 339.279 518.426 268.352C518.426 205.089 445.764 151.513 345.407 133.246" fill="#40B93C"/>
<path d="M403.28 361.324C404.811 361.022 405.318 362.488 403.911 363.043C368.671 377.316 319.891 385.412 269.7 385.412C147.686 385.412 48.769 334.282 48.769 271.209C48.769 208.135 147.686 157.011 269.711 157.011C407.156 157.011 491.326 216.376 490.9 268.341C490.474 314.156 429.707 357.47 306.751 357.47C255.546 357.47 190.58 347.898 138.583 327.054C136.265 326.127 135.176 329.453 137.273 330.558C194.159 360.925 297.221 382.113 403.264 361.324" fill="#0B4919"/>
<path d="M269.711 385.412C147.686 385.412 48.769 334.282 48.769 271.209C48.769 208.135 147.686 157.011 269.711 157.011C406.617 157.011 490.668 215.913 490.9 267.732V268.341C490.474 314.156 429.707 357.47 306.751 357.47C255.546 357.47 190.58 347.898 138.583 327.054C138.334 326.952 138.069 326.898 137.801 326.893C137.571 326.904 137.345 326.96 137.137 327.06C136.928 327.159 136.742 327.299 136.588 327.471C136.435 327.643 136.317 327.844 136.242 328.062C136.167 328.28 136.136 328.511 136.152 328.742C136.15 329.119 136.254 329.489 136.452 329.81C136.65 330.131 136.935 330.39 137.273 330.558C178.355 352.49 243.531 369.63 316.507 369.635C345.633 369.668 374.695 366.885 403.286 361.324C403.415 361.295 403.547 361.28 403.679 361.281C404.364 361.281 404.757 361.68 404.757 362.116C404.757 362.456 404.488 362.822 403.927 363.043C368.687 377.316 319.908 385.412 269.716 385.412M269.991 160.498H269.651C248.919 160.462 228.215 161.998 207.715 165.09C165.134 171.558 128.805 184.602 104.119 201.608C95.7267 207.38 88.6712 213.66 83.1842 220.273C77.6972 226.887 73.7517 233.888 71.5903 241.143C69.3007 248.748 69.0497 256.82 70.8627 264.552C72.7545 272.502 76.7485 280.183 82.6021 287.395C88.1861 294.289 94.6703 301.468 103.391 307.478C128.067 324.467 165.188 337.312 207.779 343.78C227.28 346.744 248.07 347.784 269.716 347.784C292.667 347.784 310.48 346.949 331.572 343.78C379.198 336.616 413.085 322.759 436.542 307.165C445.214 301.156 451.192 294.149 456.776 287.287C462.629 280.059 466.623 272.394 468.467 264.428C469.272 261.043 469.679 257.575 469.68 254.095C469.679 249.675 469.031 245.279 467.755 241.046C465.599 233.791 461.67 226.817 456.178 220.192C450.685 213.568 443.635 207.337 435.243 201.548C411.257 184.996 372.789 171.084 331.631 165.09C311.231 161.98 290.621 160.444 269.985 160.498" fill="#0A4919"/>
<path d="M268.557 354.43C382.149 354.43 474.234 307.125 474.234 248.77C474.234 190.416 382.149 143.11 268.557 143.11C154.965 143.11 62.8799 190.416 62.8799 248.77C62.8799 307.125 154.965 354.43 268.557 354.43Z" fill="url(#paint0_radial_353_2645)"/>
<path d="M406.665 247.892C404.266 272.88 394.397 297.868 378.842 297.868C372.476 297.868 367.889 292.833 367.889 284.495C367.889 263.032 384.97 240.874 406.665 247.892ZM430.203 245.87C431.637 238.211 429.519 234.902 422.625 232.934C377.413 220.192 343.106 249.04 343.106 288.198C343.106 303.107 350.56 317.131 366.779 317.131C379.715 317.131 391.573 308.146 399.879 298.062C399.879 298.062 399.448 304.821 400.289 309.176C401.636 316.183 408.783 319.751 424.996 314.496C422.517 304.594 423.724 280.436 430.203 245.87ZM327.114 263.237C335.005 222.235 337.193 199.78 337.193 192.655C337.193 190.682 336.277 187.588 329.922 187.588C321.374 187.588 315.773 189.62 310.885 192.207C311.542 194.617 313.634 211.94 298.488 283.412C292.057 313.779 297.83 320.511 323.357 316.07C320.932 308.604 320.98 294.801 327.114 263.237ZM284.695 229.539C274.114 229.539 260.553 239.661 252.355 256.661C253.433 248.98 253.972 239.78 253.093 234.562C252.813 232.875 251.783 231.501 246.733 231.716C241.041 231.937 233.581 234.346 229.199 236.761C229.199 236.761 232.935 247.002 224.736 298.746C222.252 314.377 232.951 318.959 250.829 316.075C243.822 305.974 256.602 243.359 285.751 256.284C297.21 238.378 294.068 229.539 284.695 229.539ZM141.218 268.702C148.969 253.815 160.186 237.16 166.077 224.763C167.155 235.721 171.866 266.067 171.866 266.067C161.585 265.831 151.308 266.715 141.218 268.702ZM212.652 315.541C203.408 299.285 193.787 256.79 184.408 202.077C183.718 198.056 182.964 196.762 179.557 196.821C174.927 196.897 162.897 198.131 158.089 199.888C154.58 208.76 149.627 217.249 133.263 242.065C91.8082 304.939 89.8678 321.783 126.164 316.118C125.291 310.41 125.679 301.986 132.481 289.055C132.481 289.055 141.191 284.204 174.96 283.843C181.164 318.339 186.192 318.684 212.636 315.541" fill="white"/>
<path d="M175.767 121.528C162.96 130.341 163.812 155.593 178.43 173.429C192.853 191.032 215.971 193.997 230.815 186.014C227.921 202.642 236.954 220.031 270.981 209.019C305.289 197.91 307.094 174.895 300.201 158.013C319.421 159.425 339.72 151.389 346.113 131.414C350.786 116.801 347.843 98.7717 332.535 89.4901C333.284 68.5661 307.305 50.3533 281.783 50.8492C268.647 51.1079 260.368 59.4732 259.916 70.2532C242.959 51.5283 220.03 51.0756 197.931 70.0699C176.602 88.3636 172.754 113.912 183.89 124.563C182.348 124.245 176.705 122.234 175.805 121.512" fill="white"/>
<mask id="mask0_353_2645" style="mask-type:luminance" maskUnits="userSpaceOnUse" x="174" y="58" width="167" height="148">
<path d="M190.886 174.986C226.832 200.961 253.27 152.515 249.098 147.465C239.687 136.146 246.149 118.181 266.028 121.016C276.463 122.504 263.009 64.0656 230.82 64.0656C200.981 64.0656 157.646 117.782 210.5 135.37C199.763 135.709 185.706 134.707 177.621 131.058C170.506 138.205 174.554 163.015 190.886 174.986ZM332.519 98.6855C328.8 103.326 321.674 109.805 316.117 111.083C342.28 79.7451 305.024 58.2605 282.122 58.9774C275.46 59.1876 269.564 61.791 268.216 68.4692C264.761 85.6363 279.912 105.385 274.749 130.939C271.245 148.311 329.058 165.144 339.671 126.681C341.515 119.965 340.927 105.52 332.519 98.6855ZM267.839 143.638C284.812 140.436 318.753 185.826 268.658 201.974C208.802 221.265 252.962 146.436 267.828 143.638H267.839Z" fill="white"/>
</mask>
<g mask="url(#mask0_353_2645)">
<path d="M190.886 174.986C226.832 200.961 253.27 152.515 249.098 147.465C239.687 136.146 246.149 118.181 266.028 121.016C276.463 122.504 263.009 64.0656 230.82 64.0656C200.981 64.0656 157.646 117.782 210.5 135.37C199.763 135.709 185.706 134.707 177.621 131.058C170.506 138.205 174.554 163.015 190.886 174.986ZM332.519 98.6855C328.8 103.326 321.674 109.805 316.117 111.083C342.28 79.7451 305.024 58.2605 282.122 58.9774C275.46 59.1876 269.564 61.791 268.216 68.4692C264.761 85.6363 279.912 105.385 274.749 130.939C271.245 148.311 329.058 165.144 339.671 126.681C341.515 119.965 340.927 105.52 332.519 98.6855ZM267.839 143.638C284.812 140.436 318.753 185.826 268.658 201.974C208.829 221.265 252.973 146.457 267.839 143.638Z" fill="url(#paint1_radial_353_2645)"/>
</g>
<defs>
<radialGradient id="paint0_radial_353_2645" cx="0" cy="0" r="1" gradientUnits="userSpaceOnUse" gradientTransform="translate(269.604 247.58) scale(200.014 80.4179)">
<stop stop-color="#40B93C"/>
<stop offset="0.17" stop-color="#40B93C" stop-opacity="0.98"/>
<stop offset="0.32" stop-color="#41B93D" stop-opacity="0.93"/>
<stop offset="0.46" stop-color="#41BA3D" stop-opacity="0.83"/>
<stop offset="0.59" stop-color="#42BA3E" stop-opacity="0.7"/>
<stop offset="0.72" stop-color="#43BA3F" stop-opacity="0.52"/>
<stop offset="0.85" stop-color="#45BB41" stop-opacity="0.31"/>
<stop offset="0.97" stop-color="#47BC43" stop-opacity="0.07"/>
<stop offset="1" stop-color="#47BC43" stop-opacity="0"/>
</radialGradient>
<radialGradient id="paint1_radial_353_2645" cx="0" cy="0" r="1" gradientUnits="userSpaceOnUse" gradientTransform="translate(220.988 167.086) rotate(-7.18911) scale(126.786 126.786)">
<stop stop-color="#FDE17B"/>
<stop offset="0.3" stop-color="#FCD205"/>
<stop offset="1" stop-color="#F89C0E"/>
</radialGradient>
</defs>
</svg>
