<svg width="136" height="38" viewBox="0 0 136 38" fill="none" xmlns="http://www.w3.org/2000/svg">
<g clip-path="url(#clip0_384_1587)">
<mask id="mask0_384_1587" style="mask-type:luminance" maskUnits="userSpaceOnUse" x="0" y="0" width="136" height="38">
<path d="M0.454727 0.0322266H135.192V37.3515H0.454727V0.0322266Z" fill="white"/>
</mask>
<g mask="url(#mask0_384_1587)">
<path d="M9.39448 35.3248C9.20062 35.1749 9.01556 35.0163 8.83932 34.8489C8.38109 34.3995 8.00217 34.0294 7.59681 33.6064C7.19145 33.1834 6.7156 32.7252 6.22212 32.2758C5.06505 31.1526 4.04997 29.8919 3.19957 28.5218C2.12916 26.8037 1.35469 24.9182 0.908415 22.9437C0.802669 22.4855 0.705736 22.0096 0.644051 21.5338C0.582366 21.0579 0.538306 20.5821 0.450185 20.0269C0.406111 19.4226 0.406111 18.8159 0.450185 18.2116C0.450185 17.7622 0.511869 17.3304 0.55593 16.8634C0.543929 16.5912 0.567629 16.3187 0.626427 16.0527C0.72336 15.4975 0.820293 14.9688 0.934851 14.4048C1.11266 13.5593 1.36327 12.7308 1.68388 11.9286C2.0725 10.9416 2.54482 9.98992 3.09382 9.08227C3.5164 8.36496 3.98132 7.67345 4.48613 7.01142C4.94865 6.41849 5.44594 5.85352 5.97538 5.3195C6.78782 4.51688 7.6728 3.79119 8.61902 3.15172C10.1807 2.09144 11.9037 1.29094 13.7212 0.781257C14.4526 0.569766 15.2017 0.411148 15.9507 0.270154C16.4001 0.190845 16.8522 0.137972 17.3078 0.111536C17.8453 0.111536 18.374 0.0322266 18.9556 0.0322266H20.0219C20.9621 0.102723 21.8962 0.243717 22.8153 0.455208C23.5855 0.615589 24.3425 0.834129 25.0801 1.1073C26.8987 1.77689 28.6022 2.72524 30.1294 3.91837C31.6387 5.10129 32.953 6.51372 34.0243 8.10413C34.8632 9.28838 35.55 10.5732 36.0688 11.9286C36.3684 12.6653 36.6151 13.4222 36.809 14.1933C36.9412 14.7925 37.0645 15.4094 37.1527 16.0262C37.2249 16.4466 37.2751 16.8695 37.3025 17.2952V20.3001C37.204 21.4557 36.9885 22.5983 36.6592 23.7104C36.527 24.151 36.386 24.5916 36.2274 25.0234C35.8596 26.1249 35.3782 27.1851 34.791 28.1869C33.9121 29.6789 32.8395 31.0479 31.601 32.2581L30.7903 32.9895C29.8869 33.7469 28.9198 34.425 27.8999 35.0163C26.3203 35.9159 24.6156 36.5752 22.8418 36.9726C22.3042 37.0872 21.7843 37.1665 21.2027 37.2546C20.7048 37.3368 20.2005 37.3752 19.6958 37.3692H18.5943C18.3714 37.3868 18.1475 37.3868 17.9246 37.3692L16.312 37.1753C15.5862 37.0989 14.8825 36.8803 14.2411 36.532C12.6119 35.756 11.2901 34.4559 10.4872 32.8397C10.2046 32.3179 10.0026 31.7564 9.88796 31.1742C9.83144 30.8832 9.79318 30.5889 9.77341 30.293C9.77341 29.8084 9.6941 29.3149 9.68528 28.8214C9.65885 28.4161 9.65885 28.0107 9.68528 27.6053C9.73816 27.0237 9.81746 26.4421 9.90559 25.8429C9.97432 25.5856 10.0651 25.3353 10.1788 25.0939C10.2493 24.8912 10.3374 24.6973 10.4167 24.5211C10.8723 23.5641 11.4827 22.6888 12.2232 21.9303C12.514 21.6219 12.8224 21.3047 13.1044 21.0491C13.363 20.7903 13.6603 20.5732 13.9856 20.4058C14.9957 19.8907 16.0767 19.5284 17.1932 19.3308C17.867 19.2043 18.5522 19.1482 19.2376 19.1633C19.8638 19.179 20.4832 19.2981 21.0705 19.5158C21.1613 19.544 21.2468 19.5863 21.3261 19.6392C21.6046 19.7934 21.8724 19.9679 22.128 20.1591C22.7319 20.6386 23.2048 21.2631 23.5027 21.9744C23.7142 22.4644 23.8287 22.9913 23.8375 23.5253C23.8546 24.3816 23.6609 25.2289 23.2736 25.9927C23.1537 26.2702 23.003 26.5333 22.8242 26.777C22.5165 27.1242 22.1568 27.4215 21.7579 27.6582C21.0771 28.0463 20.3246 28.2921 19.546 28.3808H17.6691C17.4135 28.3808 17.158 28.4513 16.9024 28.4689C16.3373 28.5132 15.7787 28.6196 15.2369 28.7862C14.6968 28.9358 14.189 29.1837 13.7389 29.5176C13.3468 29.8193 13.0877 30.2618 13.0163 30.7513C12.9557 31.178 12.998 31.6131 13.1396 32.0202C13.1925 32.1806 13.2806 32.3278 13.3952 32.452C13.6261 32.7199 13.8737 32.9719 14.1354 33.2098C14.6967 33.6468 15.313 34.0083 15.9683 34.2849C16.698 34.6207 17.4602 34.8841 18.2418 35.0692C18.9405 35.2374 19.6661 35.2614 20.3744 35.1397C20.7032 35.1247 21.0303 35.0835 21.3525 35.0163C22.2901 34.8665 23.2119 34.6365 24.1107 34.329C25.8518 33.7247 27.4784 32.8309 28.9221 31.6853C29.4923 31.2536 30.0342 30.7865 30.5436 30.2842C32.4402 28.3673 33.8354 26.0126 34.6059 23.4284C34.8333 22.6935 35.0034 21.9418 35.1171 21.1813C35.1893 20.7583 35.2387 20.3318 35.2669 19.9035C35.2563 19.6083 35.2739 19.3131 35.3197 19.0223V16.8281C35.3032 16.5494 35.2649 16.2725 35.2052 15.9998C35.09 15.1812 34.9072 14.3736 34.6588 13.5853C34.3051 12.5533 33.8567 11.5562 33.3194 10.6068C32.8254 9.65296 32.2348 8.75234 31.557 7.91907C31.2926 7.60183 31.037 7.30222 30.7462 7.03786C30.4554 6.7735 30.0677 6.35051 29.68 6.03328C28.5808 5.03519 27.3431 4.20117 26.0053 3.55707C24.9741 3.04605 23.8934 2.64154 22.7801 2.34981C22.3307 2.24407 21.8989 2.14713 21.423 2.07664C21.0732 2.0135 20.7202 1.96937 20.3656 1.94446C20.0131 1.94446 19.5725 1.94446 19.1759 1.87396H18.656L17.158 1.96208C16.1914 2.05553 15.2356 2.23843 14.3028 2.50843C13.4824 2.74026 12.6811 3.03487 11.9059 3.38964C10.8551 3.86773 9.85933 4.45867 8.93625 5.15207C8.24629 5.65418 7.59796 6.21115 6.99759 6.81756C6.10516 7.74013 5.32703 8.76679 4.68 9.87536C4.08815 10.8756 3.58398 11.9253 3.17313 13.0125C2.89995 13.7968 2.70609 14.6163 2.50341 15.4358C2.4241 15.8059 2.39766 16.2025 2.34479 16.5814C2.27429 16.9356 2.23023 17.2952 2.21261 17.6565V19.8595C2.2364 20.1908 2.28046 20.5204 2.34479 20.8464C2.38885 21.2518 2.45054 21.6572 2.52984 22.0537C2.67701 22.7058 2.8647 23.3473 3.09382 23.9747C3.57799 25.3813 4.23513 26.7222 5.05011 27.9666C5.58151 28.7138 6.1708 29.418 6.81253 30.0727C7.20908 30.5407 7.63559 30.9821 8.09029 31.3946C8.24891 31.5382 8.39872 31.6915 8.53971 31.8528C8.5574 31.8981 8.5574 31.9484 8.53971 31.9938V32.5578C8.53769 32.8548 8.57322 33.1509 8.64545 33.439C8.77764 33.8531 8.93625 34.2585 9.10368 34.6638C9.1918 34.8577 9.28874 35.0516 9.36805 35.2543V35.3776L9.39448 35.3248Z" fill="#A9CE40"/>
<path d="M12.39 21.3048C12.123 21.3225 11.8551 21.3225 11.5881 21.3048C11.0661 21.2506 10.5519 21.1383 10.0548 20.97C9.60539 20.8114 9.17359 20.6439 8.71536 20.4501C8.0756 20.1857 7.48079 19.8227 6.95294 19.375C6.22344 18.7805 5.62361 18.0427 5.19052 17.2072C4.89587 16.6367 4.70208 16.0196 4.61773 15.3831C4.59658 14.9645 4.61773 14.546 4.67942 14.1318C4.6988 13.7969 4.74022 13.4647 4.80278 13.136C4.80278 12.8012 4.86447 12.6337 4.90853 12.387C5.0445 11.7086 5.27591 11.0529 5.59588 10.4395C5.64875 10.325 5.70162 10.2016 5.74568 10.087C5.88642 9.67163 6.08838 9.27957 6.34491 8.92383C6.76765 8.32171 7.28204 7.78948 7.8694 7.34646C8.09852 7.17022 8.31001 6.97635 8.53912 6.81773C9.17686 6.38971 9.85584 6.0266 10.5659 5.73384C10.903 5.57244 11.2624 5.46253 11.6322 5.40779C11.9612 5.37504 12.2878 5.32207 12.6103 5.24917C12.8317 5.242 13.0524 5.2214 13.2712 5.18749L14.1524 5.1258H17.6773C18.4175 5.06412 19.1489 5.1258 19.8803 5.1258H21.7573L23.1937 5.20511H23.9603L25.2469 5.31967C25.8901 5.37975 26.5021 5.62458 27.0093 6.02464C27.7338 6.55832 28.3101 7.26806 28.6836 8.08668C28.8892 8.53325 29.0088 9.01456 29.0361 9.50543C29.0661 10.602 28.6859 11.6704 27.9698 12.5015C27.761 12.7659 27.5275 13.0109 27.2737 13.233C26.8408 13.6501 26.3108 13.953 25.7316 14.1142C25.5756 14.1494 25.4152 14.167 25.2557 14.167H12.0375L11.1563 14.2199C10.8594 14.2428 10.5641 14.2904 10.2751 14.3609C9.49856 14.5134 8.75169 14.7901 8.06327 15.1804C7.56076 15.4366 7.12595 15.808 6.79432 16.2643C6.63729 16.4724 6.52361 16.7098 6.46004 16.9626C6.39646 17.2154 6.38428 17.4784 6.42421 17.7359C6.47973 18.0779 6.60574 18.4057 6.79432 18.6965C7.036 19.0711 7.33312 19.4068 7.67553 19.6922C7.9725 19.9346 8.29767 20.1381 8.64487 20.3003C9.16038 20.5479 9.69703 20.7488 10.2487 20.8995C10.7422 21.0405 11.2453 21.1374 11.7555 21.1903C11.9697 21.2132 12.1812 21.252 12.39 21.3048Z" fill="#279C3F"/>
<path d="M12.3889 21.3046C12.1863 21.3046 11.9924 21.2165 11.7985 21.1989C11.2874 21.1372 10.7807 21.0402 10.2829 20.9081C9.73263 20.7579 9.19842 20.5542 8.68786 20.3C7.94122 19.9281 7.30593 19.3658 6.84613 18.6698C6.65776 18.3786 6.53175 18.0515 6.47602 17.7093C6.43801 17.4545 6.45117 17.1947 6.51471 16.945C6.57826 16.6954 6.69093 16.4609 6.84613 16.2553C7.15584 15.812 7.5589 15.4421 8.02695 15.1714C8.72311 14.8101 9.47214 14.5633 10.2476 14.44C10.5437 14.4091 10.838 14.3624 11.1288 14.299L12.01 14.2461H12.9794L11.9043 14.3607L11.2257 14.44C10.8371 14.4928 10.4556 14.5898 10.089 14.7308C9.61446 14.8895 9.17045 15.1279 8.77598 15.4357C8.4048 15.7369 8.13176 16.1419 7.9917 16.5989C7.92197 16.8613 7.90711 17.1352 7.94805 17.4036C7.98899 17.672 8.08485 17.929 8.22963 18.1587C8.38561 18.4177 8.57859 18.6522 8.80242 18.8548L9.25184 19.2778C9.83839 19.8302 10.5073 20.2881 11.2346 20.6349C11.6003 20.7988 11.9572 20.9838 12.3008 21.19L12.3889 21.3046Z" fill="#5FBA74"/>
<path d="M49.7991 16.8194L48.5566 27.3499L47.8781 29.8349C47.7927 30.23 47.5936 30.5915 47.3053 30.8748C46.9927 31.1205 46.6007 31.2428 46.2038 31.2184H44.8908L46.6532 16.8371L45.6046 16.652C45.4273 16.6286 45.2613 16.5517 45.1287 16.4317C45.0649 16.3726 45.0152 16.3 44.9831 16.2192C44.9511 16.1384 44.9376 16.0514 44.9437 15.9647C44.9407 15.9472 44.9407 15.9293 44.9437 15.9118C44.9469 15.8531 44.9469 15.7942 44.9437 15.7355V15.3126C44.9437 15.1275 45.0053 14.8543 45.0494 14.5107H46.8735L46.9881 13.5061C47.0733 12.7799 47.2819 12.0736 47.6049 11.4176C47.8972 10.8207 48.301 10.2853 48.7945 9.84024C49.291 9.40039 49.8688 9.06209 50.4953 8.84447C51.1454 8.61138 51.8315 8.49503 52.5221 8.5008C53.0522 8.49391 53.5797 8.57735 54.0818 8.74754L53.791 10.4395C53.7757 10.5316 53.729 10.6157 53.6588 10.6774C53.5897 10.7357 53.5084 10.7778 53.4209 10.8008C53.3141 10.8286 53.205 10.8463 53.0949 10.8536H52.7336C52.4045 10.8512 52.0772 10.9018 51.7642 11.0034C51.4716 11.0994 51.2037 11.2589 50.9799 11.4705C50.7332 11.7207 50.5446 12.0212 50.4248 12.3517C50.2635 12.7615 50.1604 13.1915 50.1164 13.6295L50.0106 14.5107H53.0508L52.7424 16.8371L49.7991 16.8194ZM63.8985 27.9315H62.1361C61.9974 27.9627 61.8532 27.9598 61.7159 27.9231C61.5785 27.8865 61.4521 27.8172 61.3474 27.7211C61.2426 27.625 61.1627 27.505 61.1143 27.3713C61.066 27.2376 61.0507 27.0942 61.0698 26.9534L61.1756 25.1028C60.6514 25.9703 59.97 26.7323 59.1664 27.3499C58.4521 27.8777 57.5871 28.1619 56.699 28.1606C56.2036 28.1622 55.7137 28.057 55.2626 27.8522C54.812 27.6523 54.4139 27.3506 54.0994 26.971C53.7394 26.5114 53.4756 25.9839 53.324 25.4201C53.1184 24.7313 53.0203 24.015 53.0332 23.2963C53.0321 20.9224 53.9366 18.6375 55.5623 16.9076C56.0822 16.3464 56.6749 15.8573 57.3247 15.4536C58.6873 14.6097 60.2602 14.1669 61.8629 14.1758C62.4762 14.1758 63.0887 14.2199 63.6958 14.308C64.2992 14.4006 64.8903 14.5602 65.4583 14.7838L63.8985 27.9315ZM58.0032 25.4641C58.3892 25.4553 58.761 25.3258 59.0695 25.094C59.4516 24.8089 59.7849 24.4637 60.0564 24.0718C60.3986 23.587 60.6936 23.0706 60.9376 22.5297C61.2117 21.9128 61.4417 21.2766 61.625 20.6263L62.1361 16.5286C61.9158 16.5163 61.6955 16.5163 61.4752 16.5286C60.7658 16.5233 60.0652 16.6961 59.4396 17.0309C58.7865 17.348 58.2049 17.7948 57.73 18.3439C57.2742 18.9319 56.9225 19.5935 56.6902 20.3002C56.4269 21.0686 56.2958 21.8761 56.3025 22.6883C56.2489 23.4132 56.4049 24.1381 56.7519 24.7768C56.8776 24.989 57.057 25.1642 57.272 25.2849C57.4871 25.4056 57.7302 25.4674 57.9768 25.4641H58.0032ZM66.9034 27.9315L68.5513 14.3609H70.208C70.4822 14.3491 70.7532 14.4231 70.9835 14.5723C71.0876 14.6485 71.1706 14.75 71.2246 14.8672C71.2786 14.9844 71.3017 15.1134 71.2919 15.2421V16.2731C71.2919 16.5991 71.2919 17.0397 71.239 17.6213C71.6909 16.6941 72.3092 15.8578 73.0631 15.1539C73.6165 14.6133 74.352 14.299 75.1251 14.2727C75.5041 14.2763 75.8795 14.3573 76.2267 14.5107L75.5834 17.6566C75.1893 17.48 74.7638 17.3841 74.3321 17.3746C73.9238 17.3868 73.5242 17.4954 73.1658 17.6914C72.8075 17.8874 72.5005 18.1653 72.27 18.5026C71.5452 19.5634 71.0499 20.764 70.816 22.0274L70.067 27.9315H66.9034ZM76.5086 27.9315L78.1653 14.3609H79.8132C80.0969 14.345 80.3772 14.4287 80.6063 14.5988C80.7107 14.6916 80.7915 14.808 80.842 14.9382C80.8926 15.0685 80.9115 15.2088 80.8971 15.3478V16.9164C81.4033 16.0954 82.0793 15.3923 82.8798 14.8543C83.5184 14.411 84.2707 14.1602 85.0476 14.1317C85.4184 14.1138 85.7885 14.1798 86.1302 14.3247C86.472 14.4696 86.7767 14.6898 87.0215 14.9689C87.5687 15.6538 87.8781 16.4983 87.9027 17.3746C88.4078 16.4074 89.1284 15.5693 90.0088 14.9248C90.748 14.4089 91.6276 14.1321 92.5291 14.1317C92.9732 14.1081 93.4167 14.1891 93.8238 14.3682C94.231 14.5473 94.5904 14.8194 94.8731 15.1628C95.4774 16.0237 95.7696 17.0652 95.7014 18.1148V18.6788C95.7014 18.8815 95.7014 19.0753 95.6486 19.278L94.6352 27.9051H91.4099L91.8594 24.0982C91.9827 23.0496 92.0797 22.1772 92.159 21.4546L92.344 19.8067C92.344 19.4102 92.4233 19.1018 92.441 18.9255C92.4586 18.7493 92.441 18.5642 92.441 18.4849V18.3087C92.4735 17.9087 92.3812 17.5084 92.1766 17.1631C92.0689 17.0378 91.9325 16.9404 91.7791 16.879C91.6257 16.8177 91.4598 16.7942 91.2954 16.8106C90.952 16.8129 90.615 16.904 90.3172 17.075C89.9815 17.2777 89.6836 17.5376 89.436 17.8416C89.1258 18.2214 88.8597 18.6347 88.6429 19.0753C88.3874 19.6041 88.1759 20.1522 88.0085 20.7144L87.1273 27.9139H83.9373L84.9595 19.2868V18.7669V18.3087C84.9897 17.9099 84.9007 17.5112 84.7039 17.1631C84.597 17.0369 84.4607 16.9388 84.3071 16.8773C84.1535 16.8159 83.9872 16.793 83.8227 16.8106C83.4689 16.8149 83.1225 16.9122 82.8181 17.0926C82.4769 17.3025 82.178 17.5745 81.9369 17.8945C81.6197 18.2822 81.3527 18.7079 81.1438 19.1635C80.8821 19.6992 80.6671 20.2562 80.5005 20.8289L79.6193 27.8786L76.5086 27.9315ZM106.408 16.9252C106.336 17.0397 106.243 17.142 106.135 17.2248C106.03 17.282 105.911 17.3094 105.791 17.3041C105.627 17.3004 105.466 17.2549 105.324 17.1719L104.778 16.8811C104.549 16.7606 104.31 16.6603 104.064 16.5815C103.75 16.4872 103.423 16.4426 103.095 16.4493C102.522 16.4123 101.954 16.5776 101.491 16.9164C101.316 17.0567 101.174 17.2352 101.078 17.4383C100.982 17.6414 100.933 17.8637 100.936 18.0884C100.931 18.3395 101.012 18.5854 101.165 18.7845C101.338 18.9828 101.544 19.1494 101.773 19.278C102.055 19.4331 102.349 19.5626 102.654 19.6658L103.632 20.0535C103.966 20.1883 104.293 20.3416 104.61 20.5117C104.933 20.6767 105.23 20.8874 105.492 21.1374C105.743 21.3929 105.946 21.6908 106.091 22.0186C106.252 22.4125 106.33 22.8355 106.32 23.2611C106.323 23.9049 106.191 24.5422 105.931 25.1313C105.672 25.7205 105.291 26.2482 104.813 26.6802C104.302 27.1464 103.703 27.5059 103.051 27.7376C102.315 28.0076 101.535 28.1391 100.751 28.1254C100.33 28.1298 99.9109 28.0884 99.4995 28.002C99.1122 27.9244 98.7341 27.8062 98.3715 27.6495C98.0329 27.5091 97.7108 27.3317 97.411 27.1208C97.1396 26.9331 96.8937 26.7109 96.6796 26.4599L97.4727 25.2174C97.559 25.0782 97.6771 24.9601 97.8163 24.8737C97.9653 24.7935 98.1327 24.7539 98.301 24.7592C98.4826 24.7565 98.6597 24.8155 98.8033 24.9266C98.9531 25.0411 99.1294 25.1733 99.332 25.3055C99.5611 25.458 99.807 25.5849 100.063 25.6844C100.42 25.8078 100.797 25.8651 101.174 25.8519C101.497 25.8589 101.819 25.8113 102.125 25.7109C102.385 25.6254 102.623 25.4906 102.83 25.3143C103.016 25.1559 103.163 24.9582 103.262 24.7357C103.361 24.5131 103.409 24.2713 103.403 24.0277C103.416 23.7634 103.338 23.5025 103.183 23.2875C103.018 23.0745 102.811 22.8975 102.575 22.7676C102.295 22.6117 102 22.4847 101.694 22.3887L100.716 22.0362C100.388 21.9128 100.067 21.7718 99.755 21.6132C99.4318 21.4608 99.1344 21.2586 98.8738 21.014C98.6165 20.7638 98.4127 20.464 98.2746 20.1328C98.1122 19.7269 98.0342 19.2921 98.0455 18.855C98.043 18.2507 98.1598 17.6518 98.3891 17.0926C98.6147 16.5233 98.9603 16.0093 99.4025 15.5857C99.8722 15.1266 100.43 14.7669 101.042 14.5283C101.752 14.2523 102.509 14.1176 103.271 14.1317C104.005 14.1179 104.734 14.2503 105.417 14.5211C106.099 14.7919 106.721 15.1957 107.245 15.7091L106.408 16.9252ZM107.889 27.9315L110.285 8.28931H113.467L112.4 17.1014C112.971 16.2741 113.688 15.5575 114.515 14.9865C115.248 14.4787 116.118 14.2052 117.009 14.2022C117.54 14.1957 118.066 14.3039 118.551 14.5195C119.015 14.7254 119.421 15.0433 119.732 15.4447C120.086 15.9153 120.344 16.4511 120.49 17.0221C120.678 17.75 120.767 18.4999 120.754 19.2516C120.767 20.7511 120.467 22.2367 119.873 23.6136C119.594 24.2569 119.245 24.8693 118.833 25.4377C118.452 25.9759 118.002 26.4618 117.494 26.8829C117.007 27.2633 116.467 27.5692 115.89 27.7905C115.331 28.0211 114.732 28.1379 114.128 28.1342C113.505 28.1509 112.888 28.0189 112.327 27.7492C111.766 27.4794 111.278 27.0797 110.902 26.5833L110.797 27.0327C110.782 27.1678 110.74 27.2985 110.673 27.4169C110.607 27.5353 110.517 27.6388 110.409 27.7213C110.301 27.8037 110.177 27.8633 110.045 27.8964C109.913 27.9295 109.776 27.9355 109.642 27.9139L107.889 27.9315ZM115.74 16.7225C115.347 16.7333 114.966 16.8623 114.647 17.0926C114.238 17.3781 113.872 17.7227 113.564 18.1148C113.191 18.5883 112.87 19.0992 112.603 19.6393C112.299 20.246 112.045 20.8767 111.845 21.5251L111.484 24.7592C111.764 25.072 112.118 25.3082 112.515 25.4465C112.883 25.5769 113.27 25.6457 113.661 25.6492C114.236 25.6499 114.794 25.4575 115.247 25.1028C115.743 24.7177 116.16 24.2386 116.472 23.6929C116.822 23.0769 117.086 22.4151 117.256 21.7278C117.441 21.014 117.535 20.28 117.538 19.5424C117.587 18.8045 117.425 18.0678 117.071 17.4187C116.931 17.1945 116.734 17.0117 116.5 16.8893C116.266 16.7669 116.004 16.7093 115.74 16.7225ZM126.227 31.6855C126.138 31.8909 125.99 32.0652 125.801 32.1861C125.613 32.3069 125.393 32.3689 125.169 32.364H122.746L125.76 26.9005L122.34 14.3697H125.072C125.17 14.3625 125.268 14.3752 125.36 14.407C125.452 14.4388 125.537 14.489 125.61 14.5547C125.729 14.671 125.813 14.8173 125.856 14.9777L127.522 22.0274C127.575 22.2565 127.61 22.4856 127.645 22.7059C127.681 22.9262 127.698 23.1465 127.716 23.3757C127.813 23.1465 127.91 22.9262 128.015 22.6971L128.324 22.0186L131.673 14.9689C131.759 14.7944 131.889 14.6455 132.051 14.5371C132.205 14.4331 132.385 14.375 132.571 14.3697H135.215L126.227 31.6855Z" fill="black"/>
</g>
</g>
<defs>
<clipPath id="clip0_384_1587">
<rect width="134.825" height="37.8921" fill="white" transform="translate(0.449219 0.0322266)"/>
</clipPath>
</defs>
</svg>
