<svg width="391" height="391" viewBox="0 0 391 391" fill="none" xmlns="http://www.w3.org/2000/svg">
<path d="M373.225 2.34601H17.7748C9.25368 2.34601 2.34595 9.25374 2.34595 17.7749V373.225C2.34595 381.746 9.25368 388.654 17.7748 388.654H373.225C381.746 388.654 388.654 381.746 388.654 373.225V17.7749C388.654 9.25374 381.746 2.34601 373.225 2.34601Z" fill="#5C2682"/>
<path d="M76.9764 158.085V172.357H108.546V185.498H76.9764V211.113H62.4194V144.948H112.796V158.085H76.9764Z" fill="white"/>
<path d="M177.26 205.345C175.406 206.811 173.393 208.064 171.258 209.079C168.984 210.148 166.588 210.936 164.123 211.425C161.259 211.988 158.345 212.258 155.427 212.231C150.788 212.273 146.19 211.373 141.91 209.584C137.878 207.905 134.217 205.448 131.134 202.354C128.079 199.251 125.669 195.572 124.045 191.531C122.329 187.298 121.462 182.77 121.492 178.202V178.015C121.457 173.458 122.325 168.94 124.045 164.721C125.691 160.678 128.097 156.989 131.134 153.855C134.224 150.69 137.921 148.181 142.004 146.48C146.443 144.651 151.208 143.743 156.009 143.814C158.846 143.792 161.679 144.045 164.467 144.568C166.847 145.024 169.175 145.721 171.415 146.648C173.448 147.507 175.382 148.585 177.182 149.863C178.932 151.112 180.575 152.504 182.097 154.023L172.822 164.701C170.454 162.524 167.798 160.682 164.928 159.227C162.113 157.875 159.022 157.196 155.9 157.245C153.247 157.22 150.619 157.768 148.197 158.852C145.878 159.891 143.801 161.404 142.102 163.293C140.38 165.216 139.034 167.444 138.133 169.862C137.175 172.416 136.694 175.123 136.714 177.85V178.038C136.697 180.78 137.178 183.503 138.133 186.073C139.021 188.499 140.346 190.741 142.043 192.689C143.774 194.647 145.907 196.209 148.296 197.269C150.685 198.329 153.275 198.862 155.888 198.831C159.671 198.831 162.869 198.138 165.483 196.751C168.318 195.209 170.939 193.303 173.28 191.082L182.543 200.438C180.909 202.205 179.143 203.846 177.26 205.345Z" fill="white"/>
<path d="M245.975 211.113V167.915L227.351 196.176H226.96L208.529 168.2V211.113H194.179V144.948H209.866L227.258 172.928L244.649 144.948H260.34V211.113H245.975Z" fill="white"/>
<path d="M330.618 200.904C329.448 203.179 327.729 205.128 325.617 206.573C323.24 208.176 320.59 209.33 317.797 209.979C314.467 210.767 311.054 211.148 307.631 211.113H276.219V144.948H306.885C313.675 144.948 319.004 146.492 322.873 149.581C326.741 152.67 328.676 156.829 328.679 162.058V162.265C328.706 163.961 328.467 165.651 327.971 167.274C327.531 168.658 326.899 169.974 326.094 171.184C325.329 172.33 324.408 173.364 323.357 174.257C322.334 175.134 321.217 175.894 320.026 176.525C323.85 177.977 326.861 179.946 329.058 182.433C331.256 184.92 332.353 188.363 332.35 192.763V192.951C332.418 195.702 331.824 198.429 330.618 200.904ZM314.31 164.513C314.31 162.308 313.491 160.623 311.854 159.458C310.217 158.292 307.854 157.71 304.765 157.71H290.396V171.696H303.807C307.021 171.696 309.573 171.145 311.463 170.042C313.353 168.939 314.298 167.159 314.298 164.701L314.31 164.513ZM317.997 190.98C318.031 189.962 317.816 188.952 317.371 188.036C316.926 187.12 316.265 186.327 315.444 185.725C313.741 184.435 311.004 183.783 307.233 183.77H290.42V198.327H307.717C310.931 198.327 313.452 197.744 315.279 196.579C317.107 195.414 318.019 193.602 318.016 191.144L317.997 190.98Z" fill="white"/>
<path d="M331.264 253.509V285.907H60.9731V268.867C60.9726 266.85 61.3695 264.853 62.1412 262.989C62.9128 261.126 64.0441 259.432 65.4704 258.006C66.8967 256.58 68.59 255.448 70.4536 254.677C72.3172 253.905 74.3146 253.508 76.3316 253.509H331.264Z" fill="#FAB613"/>
<path d="M60.9731 296.398H331.264V328.796H76.3316C74.3142 328.796 72.3165 328.399 70.4527 327.627C68.5888 326.856 66.8953 325.724 65.469 324.297C64.0427 322.871 62.9115 321.177 62.1401 319.313C61.3686 317.449 60.9721 315.451 60.9731 313.433V296.398Z" fill="#FAB613"/>
</svg>
