<svg width="161" height="39" viewBox="0 0 161 39" fill="none" xmlns="http://www.w3.org/2000/svg">
<path d="M54.719 13.873H52.1757V26.9591H54.719V13.873Z" fill="#2A3362"/>
<path d="M64.5695 22.3159C64.5695 24.122 63.4075 24.9334 61.8604 24.9334C60.3132 24.9334 59.2792 24.122 59.2792 22.4075V17.7439H56.7358V22.9979C56.7358 25.6139 58.3761 27.1436 61.1042 27.1436C62.8187 27.1436 63.777 26.5121 64.4195 25.7986H64.5679L64.7889 26.9605H67.1286V17.7439H64.5695V22.3159Z" fill="#2A3362"/>
<path d="M89.515 25.1354C87.6537 25.1354 86.6039 24.2876 86.4381 23.0531H94.5101C94.5474 22.7964 94.5658 22.5373 94.5654 22.2779C94.548 18.9626 92.0394 17.5591 89.3556 17.5591C86.2407 17.5591 83.8995 19.422 83.8995 22.4263C83.8995 25.2822 86.1492 27.1435 89.5213 27.1435C92.3425 27.1435 94.2212 25.8916 94.6096 23.9735H92.0962C91.7821 24.7297 90.879 25.1354 89.515 25.1354ZM89.3572 19.5688C90.9801 19.5688 91.9194 20.2871 92.0678 21.3054H86.4933C86.7317 20.3297 87.6726 19.5688 89.3493 19.5688H89.3572Z" fill="#2A3362"/>
<path d="M98.8872 19.067H98.7294L98.4894 17.7393H96.1781V26.9606H98.7215V22.998C98.7215 21.2093 99.7524 20.2147 101.671 20.2147C102.019 20.2099 102.367 20.2405 102.709 20.3063V17.744H102.354C100.659 17.744 99.6056 18.0945 98.8872 19.067Z" fill="#2A3362"/>
<path d="M115.197 24.0841H115.051L112.875 18.3154H110.258L108.12 24.0667H107.954L105.927 17.7439H103.401L106.516 26.9605H109.282L111.494 21.0797H111.64L113.816 26.9605H116.599L119.714 17.7439H117.188L115.197 24.0841Z" fill="#2A3362"/>
<path d="M129.834 24.2769V21.1921C129.834 18.6851 127.714 17.561 125.077 17.561C122.277 17.561 120.526 18.8887 120.286 20.8764H122.829C123.014 20.0096 123.751 19.5313 125.077 19.5313C126.404 19.5313 127.288 20.0286 127.288 21.0421V21.2774L123.14 21.5931C121.224 21.7415 119.825 22.5893 119.825 24.3953C119.825 26.2567 121.429 27.1408 123.788 27.1408C125.692 27.1408 126.852 26.6103 127.562 25.8099H127.689C128.088 26.7098 128.898 26.9576 129.779 26.9576H130.848V25.0805H130.608C130.073 25.0805 129.834 24.8232 129.834 24.2769ZM127.289 23.2997C127.289 24.7569 125.553 25.2352 124.064 25.2352C123.05 25.2352 122.387 24.9779 122.387 24.2769C122.387 23.6455 122.959 23.3376 123.808 23.2634L127.291 23.0061L127.289 23.2997Z" fill="#2A3362"/>
<path d="M139.236 17.7439L136.268 24.4172H136.103L133.098 17.7439H130.351L134.645 26.9605H137.688L141.963 17.7439H139.236Z" fill="#2A3362"/>
<path d="M150.096 23.9735C149.78 24.7297 148.879 25.1354 147.515 25.1354C145.653 25.1354 144.604 24.2876 144.438 23.0531H152.51C152.547 22.7964 152.566 22.5373 152.565 22.2779C152.548 18.9626 150.039 17.5591 147.355 17.5591C144.24 17.5591 141.901 19.422 141.901 22.4263C141.901 25.2822 144.149 27.1435 147.521 27.1435C150.342 27.1435 152.221 25.8916 152.609 23.9735H150.096ZM147.349 19.5688C148.972 19.5688 149.911 20.2871 150.06 21.3054H144.487C144.728 20.3297 145.666 19.5688 147.343 19.5688H147.349Z" fill="#2A3362"/>
<path d="M48.0481 17.065C48.0481 16.2535 48.6196 15.9046 49.3569 15.9046C49.6998 15.9078 50.0407 15.9572 50.3704 16.0515L50.7951 14.2075C50.1795 13.9898 49.5315 13.8777 48.8785 13.876C46.9982 13.876 45.4874 14.8722 45.4874 16.9355V17.7439H43.293V19.7631H45.4874V26.9605H48.0481V19.7615H50.9151V17.7439H48.0481V17.065Z" fill="#2A3362"/>
<path d="M72.7355 15.145H70.3674L70.2348 17.7436H68.2329V19.7628H70.1874V24.3064C70.1874 25.8535 70.9768 27.1481 73.3449 27.1481C73.9588 27.1481 74.5708 27.0803 75.1699 26.946V25.0057C74.8245 25.0832 74.4723 25.1265 74.1184 25.1352C72.8476 25.1352 72.7371 24.4169 72.7371 23.8628V19.7581H75.263V17.7436H72.7355V15.145Z" fill="#2A3362"/>
<path d="M80.7247 15.145H78.3645L78.2319 17.7436H76.2253V19.7628H78.1798V24.3064C78.1798 25.8535 78.9692 27.1481 81.3373 27.1481C81.9498 27.1462 82.5602 27.0768 83.1575 26.9413V25.0057C82.8121 25.0832 82.46 25.1265 82.1061 25.1352C80.8352 25.1352 80.7247 24.4169 80.7247 23.8628V19.7581H83.2586V17.7436H80.7247V15.145Z" fill="#2A3362"/>
<path d="M7.88716 13.5238C7.88716 12.0445 8.31973 10.7815 9.2275 9.87378L10.8062 11.4525C9.0491 13.2033 10.5836 18.6468 15.5866 23.6545C20.5896 28.6622 26.0362 30.1952 27.7918 28.4412L29.3705 30.0199C26.4088 32.9816 19.6629 30.8803 14.0158 25.2316C10.099 21.3132 7.88716 16.8675 7.88716 13.5238Z" fill="#009A46"/>
<path d="M17.8432 31.3806C16.364 31.3806 15.101 30.9481 14.1916 30.0403L15.7704 28.4616C17.5243 30.2155 22.9678 28.681 27.9755 23.6749C32.9832 18.6687 34.5146 13.2253 32.7606 11.4713L34.3394 9.89258C37.3026 12.8543 35.1998 19.6002 29.5511 25.2473C25.6327 29.1704 21.187 31.3806 17.8432 31.3806Z" fill="#FF5805"/>
<path d="M30.0748 22.9888C29.1165 20.2292 27.1589 17.2801 24.5619 14.6847C18.9148 9.03599 12.1689 6.93312 9.20717 9.89639C8.9972 10.1079 9.17875 10.6305 9.61448 11.0662C10.0502 11.502 10.5728 11.6819 10.7827 11.472C12.5383 9.718 17.9817 11.2525 22.9879 16.2602C25.356 18.6283 27.121 21.2727 27.9719 23.7197C28.7171 25.8652 28.6445 27.5955 27.7762 28.4638C27.5646 28.6738 27.7477 29.1979 28.1819 29.6321C28.616 30.0662 29.1402 30.2494 29.3517 30.0378C30.8689 28.5206 31.1262 26.0136 30.0748 22.9888Z" fill="#F5AFCB"/>
<path d="M34.3345 9.89585C32.8141 8.37554 30.3103 8.1182 27.2823 9.17121C24.5243 10.1279 21.5736 12.0871 18.9782 14.6826C13.3311 20.3297 11.2282 27.0756 14.1899 30.0388C14.4015 30.2488 14.924 30.0672 15.3597 29.6331C15.7955 29.1989 15.977 28.6748 15.7655 28.4633C14.0068 26.7093 15.546 21.2658 20.5538 16.2581C22.9218 13.89 25.5662 12.125 28.0132 11.2741C30.1587 10.5305 31.889 10.6015 32.7589 11.4698C32.9689 11.6798 33.493 11.4983 33.9272 11.0625C34.3613 10.6268 34.5444 10.1058 34.3345 9.89585Z" fill="#FF9B00"/>
</svg>
