<svg width="116" height="46" viewBox="0 0 116 46" fill="none" xmlns="http://www.w3.org/2000/svg">
<g clip-path="url(#clip0_384_1596)">
<path fill-rule="evenodd" clip-rule="evenodd" d="M5.81639 0.507326C7.35497 0.506101 8.83103 1.11604 9.91994 2.203C11.0088 3.28997 11.6214 4.76493 11.623 6.3035C11.6218 7.62797 11.1675 8.91217 10.3355 9.94267C9.50341 10.9732 8.34378 11.6879 7.04928 11.9681V14.5389H10.5505V17.0001H7.04928V20.0246C8.28083 20.303 9.38118 20.9918 10.1698 21.9778C10.9585 22.9639 11.3887 24.1887 11.3898 25.4513C11.3892 26.1826 11.2445 26.9065 10.9641 27.5819C10.6837 28.2572 10.2729 28.8707 9.75539 29.3873C9.23784 29.9039 8.62359 30.3134 7.94773 30.5926C7.27187 30.8718 6.54764 31.0151 5.81639 31.0143C5.08515 31.0151 4.36092 30.8718 3.68506 30.5926C3.0092 30.3134 2.39495 29.9039 1.8774 29.3873C1.35985 28.8707 0.94913 28.2572 0.668699 27.5819C0.388268 26.9065 0.243619 26.1826 0.243013 25.4513C0.244112 24.1887 0.674272 22.9639 1.46294 21.9778C2.25161 20.9918 3.35196 20.303 4.58351 20.0246V17.0001H1.08225V14.5389H4.58351V11.9681C3.28901 11.6879 2.12938 10.9732 1.29734 9.94267C0.465295 8.91217 0.0109545 7.62797 0.00982666 6.3035C0.0113568 4.76493 0.623941 3.28997 1.71285 2.203C2.80176 1.11604 4.27782 0.506101 5.81639 0.507326ZM19.6806 19.8883C18.9493 19.8876 18.225 20.0309 17.5491 20.31C16.8731 20.5892 16.2588 20.9987 15.7412 21.5153C15.2235 22.0319 14.8127 22.6453 14.5322 23.3207C14.2516 23.996 14.1068 24.72 14.106 25.4513C14.1068 26.1826 14.2516 26.9066 14.5322 27.582C14.8127 28.2573 15.2235 28.8708 15.7412 29.3874C16.2588 29.9039 16.8731 30.3135 17.5491 30.5926C18.225 30.8718 18.9493 31.0151 19.6806 31.0143C20.4118 31.0151 21.1361 30.8718 21.8119 30.5926C22.4878 30.3134 23.102 29.9039 23.6196 29.3873C24.1371 28.8707 24.5478 28.2572 24.8283 27.5819C25.1087 26.9065 25.2534 26.1826 25.254 25.4513C25.2524 23.9746 24.6644 22.5589 23.6192 21.5157C22.5741 20.4725 21.1573 19.8871 19.6806 19.8883ZM5.81639 33.726C6.54764 33.7252 7.27187 33.8685 7.94773 34.1477C8.62359 34.4269 9.23784 34.8364 9.75539 35.353C10.2729 35.8696 10.6837 36.4831 10.9641 37.1584C11.2445 37.8338 11.3892 38.5577 11.3898 39.289C11.3892 40.0202 11.2445 40.7442 10.9641 41.4195C10.6837 42.0949 10.2729 42.7083 9.75539 43.2249C9.23784 43.7415 8.62359 44.1511 7.94773 44.4303C7.27187 44.7094 6.54764 44.8527 5.81639 44.852C5.08515 44.8527 4.36092 44.7094 3.68506 44.4303C3.0092 44.1511 2.39495 43.7415 1.8774 43.2249C1.35985 42.7083 0.94913 42.0949 0.668699 41.4195C0.388268 40.7442 0.243619 40.0202 0.243013 39.289C0.243619 38.5577 0.388268 37.8338 0.668699 37.1584C0.94913 36.4831 1.35985 35.8696 1.8774 35.353C2.39495 34.8364 3.0092 34.4269 3.68506 34.1477C4.36092 33.8685 5.08515 33.7252 5.81639 33.726ZM19.6806 33.726C18.9493 33.7252 18.225 33.8685 17.5491 34.1477C16.8731 34.4268 16.2588 34.8364 15.7412 35.3529C15.2235 35.8695 14.8127 36.483 14.5322 37.1583C14.2516 37.8337 14.1068 38.5577 14.106 39.289C14.1068 40.0203 14.2516 40.7443 14.5322 41.4196C14.8127 42.0949 15.2235 42.7084 15.7412 43.225C16.2588 43.7416 16.8731 44.1511 17.5491 44.4303C18.225 44.7094 18.9493 44.8527 19.6806 44.852C20.4118 44.8527 21.1361 44.7094 21.8119 44.4303C22.4878 44.1511 23.102 43.7415 23.6196 43.2249C24.1371 42.7083 24.5478 42.0949 24.8283 41.4195C25.1087 40.7442 25.2534 40.0202 25.254 39.289C25.2524 37.8122 24.6644 36.3966 23.6192 35.3534C22.5741 34.3101 21.1573 33.7248 19.6806 33.726ZM5.81639 3.0262C6.24718 3.02574 6.67383 3.11016 7.07198 3.27463C7.47013 3.4391 7.83198 3.68039 8.13686 3.98473C8.44173 4.28908 8.68366 4.6505 8.84883 5.04836C9.014 5.44622 9.09917 5.87272 9.09947 6.3035C9.09917 6.73429 9.014 7.16079 8.84883 7.55865C8.68366 7.95651 8.44173 8.31793 8.13686 8.62228C7.83198 8.92662 7.47013 9.16791 7.07198 9.33238C6.67383 9.49685 6.24718 9.58127 5.81639 9.58081C5.38561 9.58127 4.95896 9.49685 4.56081 9.33238C4.16266 9.16791 3.80081 8.92662 3.49593 8.62228C3.19106 8.31793 2.94913 7.95651 2.78396 7.55865C2.61879 7.16079 2.53362 6.73429 2.53332 6.3035C2.53362 5.87272 2.61879 5.44622 2.78396 5.04836C2.94913 4.6505 3.19106 4.28908 3.49593 3.98473C3.80081 3.68039 4.16266 3.4391 4.56081 3.27463C4.95896 3.11016 5.38561 3.02574 5.81639 3.0262ZM46.9691 44.5784H46.0191C45.6935 44.5801 45.3708 44.5163 45.0704 44.3907C44.7699 44.2652 44.4978 44.0805 44.2702 43.8476C44.0473 43.6196 43.8684 43.3523 43.7426 43.0592C43.6122 42.7538 43.5458 42.425 43.5475 42.093V37.4154H36.8463V42.093C36.8463 42.4381 36.7805 42.7602 36.6512 43.0592C36.5255 43.3531 36.3453 43.6206 36.1202 43.8476C35.8938 44.0727 35.6276 44.254 35.3352 44.3821C35.0386 44.5114 34.7176 44.5784 34.3748 44.5784H33.4259V27.8732H34.3748C34.7176 27.8732 35.0386 27.9413 35.3352 28.0706C35.6319 28.1999 35.8928 28.3765 36.1202 28.6005C36.3465 28.8279 36.5219 29.0877 36.6512 29.3855C36.7805 29.6845 36.8463 30.0065 36.8463 30.3482V34.6125H43.5475V30.3482C43.5462 30.0174 43.6126 29.6897 43.7426 29.3855C43.8719 29.0877 44.0474 28.8279 44.2702 28.6005C44.4895 28.3765 44.7516 28.1999 45.0517 28.0706C45.3518 27.9413 45.6762 27.8732 46.0191 27.8732H46.9691V44.5784ZM60.1499 42.1715C60.0922 42.2553 60.0293 42.3355 59.9618 42.4116C59.8782 42.5075 59.7923 42.6014 59.7043 42.6933C59.6143 42.7925 59.5208 42.8826 59.4308 42.9726L59.1895 43.1966C59.0347 43.328 58.8741 43.4524 58.7081 43.5694C58.534 43.692 58.3515 43.8023 58.1621 43.8996C57.9574 44.0079 57.7457 44.1024 57.5283 44.1824C57.3001 44.2636 57.0682 44.3341 56.8334 44.3937C56.579 44.4572 56.3206 44.5031 56.0599 44.531C55.7814 44.5635 55.5011 44.5793 55.2207 44.5784C54.2799 44.5784 53.4522 44.426 52.7249 44.1189C52.3641 43.9732 52.0188 43.7919 51.694 43.5775C50.7564 42.9663 50.0458 42.0638 49.6716 41.009C49.3916 40.2786 49.251 39.5021 49.2571 38.7199V38.2835C49.2571 37.8206 49.2929 37.3842 49.3553 36.9721C49.4211 36.5565 49.5226 36.156 49.66 35.775C49.9255 34.997 50.2961 34.3378 50.7682 33.7918C51.2598 33.2399 51.8646 32.8005 52.5414 32.5035C53.2213 32.1976 53.9982 32.044 54.8767 32.044C55.7517 32.044 56.5136 32.186 57.1543 32.4723C57.4891 32.6258 57.795 32.7979 58.0686 32.9941C58.6217 33.4052 59.0787 33.9319 59.4077 34.5375C59.5751 34.848 59.7159 35.1897 59.829 35.5591C59.9733 36.0417 60.0714 36.5715 60.1142 37.1487V37.734C60.1029 37.9595 60.0456 38.1803 59.9456 38.3828C59.8489 38.5783 59.7166 38.7541 59.5554 38.9011C59.3931 39.0469 59.2068 39.1637 59.0048 39.2463C58.7975 39.3299 58.576 39.3726 58.3526 39.3721H52.5067C52.5379 39.5718 52.5806 39.7565 52.636 39.9331C52.6857 40.1097 52.7526 40.2748 52.8265 40.4283C52.987 40.7539 53.1936 41.0286 53.4476 41.2526C53.6738 41.4719 53.9636 41.6497 54.3145 41.779C54.6273 41.9002 55.0025 41.9637 55.4354 41.9637C56.0253 41.9637 56.5644 41.8575 57.0608 41.6416C57.4117 41.4962 57.7246 41.3946 57.9935 41.3426C58.2345 41.2899 58.482 41.274 58.7277 41.2953C58.9425 41.3195 59.1422 41.3749 59.313 41.465C59.4896 41.5516 59.6536 41.6693 59.8059 41.8148L60.1499 42.1715ZM52.8034 36.1513C52.6767 36.4822 52.5929 36.8278 52.5541 37.1799H57.0169V36.9132C57.0102 36.6086 56.9629 36.3061 56.8761 36.014C56.788 35.7524 56.6531 35.5091 56.4778 35.2959C56.2955 35.0919 56.0683 34.9331 55.8141 34.8319C55.6741 34.767 55.5256 34.7223 55.3731 34.6991C55.2052 34.6719 55.0353 34.6587 54.8652 34.6599C54.5454 34.6507 54.2278 34.7138 53.9359 34.8446C53.6793 34.9668 53.4507 35.1405 53.264 35.3548C53.065 35.5913 52.9091 35.8609 52.8034 36.1513ZM68.4442 35.4368L68.3865 35.4252C68.2803 35.4172 68.1787 35.4137 68.0852 35.4091C67.9871 35.4056 67.8901 35.4021 67.792 35.4021C67.5024 35.3988 67.2134 35.4262 66.9297 35.4841C66.6877 35.5306 66.4559 35.6197 66.2451 35.7473C66.0595 35.8518 65.889 35.9812 65.7383 36.1317C65.5894 36.2818 65.4647 36.4584 65.3678 36.6547V43.028C65.3703 43.2441 65.3298 43.4585 65.2485 43.6587C65.1673 43.8588 65.0469 44.0408 64.8945 44.194C64.7472 44.3437 64.5724 44.4637 64.3796 44.5472C64.1829 44.63 63.9717 44.6729 63.7583 44.6736C63.5449 44.6743 63.3334 44.6327 63.1361 44.5513C62.9389 44.4698 62.7597 44.3501 62.609 44.199C62.4582 44.0479 62.3389 43.8685 62.2579 43.671C62.1752 43.4668 62.1328 43.2484 62.1332 43.028V32.1272V32.1387H62.8085C63.3557 32.1468 63.8486 32.2911 64.285 32.5704C64.7259 32.8498 65.0584 33.218 65.2881 33.6775C65.5155 33.218 65.848 32.8498 66.289 32.5704C66.7317 32.2898 67.2447 32.1401 67.7689 32.1387H68.4442V35.4368ZM76.7708 39.8154L79.7468 29.8761C79.847 29.5185 80.0156 29.1837 80.2432 28.8902C80.4683 28.604 80.7304 28.365 81.0351 28.1803C81.6559 27.7916 82.3984 27.6461 83.1199 27.7716L84.0931 27.9333L78.8522 43.0465C78.7052 43.4903 78.4205 43.8757 78.0395 44.1466C77.6608 44.4179 77.2314 44.5553 76.7581 44.5553C76.279 44.5553 75.8484 44.4179 75.4663 44.142C75.0909 43.87 74.8106 43.4867 74.6652 43.0465L69.4832 27.9875L70.3651 27.8155C70.7449 27.7486 71.1189 27.7486 71.4872 27.8224C71.8497 27.894 72.189 28.0268 72.4984 28.2115C72.8066 28.4008 73.0768 28.6397 73.3065 28.9307C73.5327 29.225 73.7048 29.5586 73.819 29.9315L76.7708 39.8154ZM95.4303 42.1715C95.373 42.2553 95.3105 42.3355 95.2433 42.4116C95.159 42.5072 95.0728 42.6011 94.9847 42.6933C94.8947 42.7925 94.8012 42.8826 94.7111 42.9726L94.4699 43.1966C94.3153 43.3283 94.1547 43.4527 93.9885 43.5694C93.8145 43.6923 93.632 43.8026 93.4425 43.8996C93.2381 44.0077 93.0267 44.1022 92.8099 44.1824C92.5905 44.2609 92.3562 44.3313 92.1149 44.3937C91.8605 44.4571 91.6021 44.503 91.3415 44.531C91.0625 44.5635 90.7819 44.5793 90.5011 44.5784C89.5603 44.5784 88.7326 44.426 88.0065 44.1189C87.6452 43.9735 87.2994 43.7921 86.9744 43.5775C86.0383 42.9647 85.3281 42.0627 84.952 41.009C84.6723 40.2785 84.5321 39.502 84.5387 38.7199V38.2835C84.5387 37.8206 84.5733 37.3842 84.6356 36.9721C84.6998 36.5645 84.8018 36.1637 84.9404 35.775C85.2059 34.997 85.5765 34.3378 86.0498 33.7918C86.5414 33.2399 87.1461 32.8005 87.8229 32.5035C88.5017 32.1976 89.2797 32.044 90.1582 32.044C91.0333 32.044 91.794 32.186 92.4347 32.4723C92.7706 32.6258 93.0754 32.7979 93.349 32.9941C93.6226 33.1915 93.8719 33.4189 94.0947 33.6821C94.321 33.9407 94.5207 34.2281 94.688 34.5375C94.8566 34.848 94.9963 35.1897 95.1094 35.5591C95.2549 36.0417 95.3518 36.5715 95.3945 37.1487V37.734C95.3837 37.9594 95.3267 38.1802 95.2271 38.3828C95.0312 38.7771 94.696 39.0848 94.2863 39.2463C94.0787 39.3299 93.8568 39.3726 93.6329 39.3721H87.7871C87.8447 39.7373 87.9527 40.0928 88.108 40.4283C88.2673 40.7539 88.4751 41.0286 88.7291 41.2526C88.9542 41.4719 89.244 41.6497 89.5961 41.779C89.9077 41.9002 90.2829 41.9637 90.717 41.9637C91.3057 41.9637 91.8448 41.8575 92.3412 41.6416C92.6921 41.4962 93.005 41.3946 93.2739 41.3426C93.5441 41.2884 93.7899 41.2722 94.0081 41.2953C94.224 41.3195 94.4225 41.3749 94.5945 41.465C94.77 41.5516 94.9339 41.6693 95.0863 41.8148L95.4303 42.1715ZM88.0838 36.1513C87.9594 36.4829 87.8757 36.8282 87.8345 37.1799H92.2973V36.9132C92.2904 36.6087 92.2435 36.3063 92.1576 36.014C92.0687 35.7526 91.9334 35.5094 91.7582 35.2959C91.5763 35.092 91.3495 34.9331 91.0956 34.8319C90.9552 34.7672 90.8063 34.7225 90.6535 34.6991C90.4856 34.6718 90.3157 34.6587 90.1455 34.6599C89.7784 34.6599 89.4714 34.7222 89.2163 34.8446C88.9597 34.9668 88.731 35.1405 88.5444 35.3548C88.3458 35.5916 88.1899 35.8611 88.0838 36.1513ZM107.064 39.5164C107.302 39.9447 107.419 40.463 107.419 41.0713C107.419 41.6139 107.297 42.1126 107.052 42.5559C106.825 42.9992 106.486 43.3928 106.037 43.7299C105.809 43.9035 105.563 44.0521 105.303 44.1732C105.037 44.299 104.747 44.4133 104.436 44.5149C103.815 44.6996 103.12 44.7896 102.338 44.7896C101.463 44.7896 100.706 44.6684 100.073 44.4214C99.7667 44.3111 99.4691 44.1772 99.1832 44.0208C98.9109 43.8732 98.6597 43.6895 98.4363 43.4748C98.1873 43.232 97.9648 42.9634 97.7726 42.6736C97.6126 42.4249 97.4754 42.1621 97.3628 41.8886C97.2731 41.6677 97.2039 41.4389 97.1561 41.2052C97.1218 41.0345 97.1033 40.861 97.1007 40.6869L97.1134 39.2139H97.7656C98.1362 39.2139 98.4871 39.2844 98.815 39.4263C99.144 39.5672 99.4326 39.7646 99.6865 40.007C99.9521 40.2979 100.14 40.6558 100.245 41.0794C100.261 41.1545 100.281 41.233 100.303 41.3068C100.402 41.6129 100.6 41.8771 100.866 42.0572C101.061 42.1865 101.296 42.2927 101.561 42.3793C101.822 42.4462 102.1 42.4809 102.397 42.4809C103.022 42.4809 103.49 42.3596 103.802 42.1126C103.951 42.0109 104.072 41.8736 104.155 41.7131C104.238 41.5527 104.279 41.3741 104.275 41.1937C104.275 41.0171 104.241 40.8589 104.17 40.7216C104.092 40.5552 103.963 40.4179 103.802 40.3291C103.696 40.2562 103.584 40.1932 103.467 40.1409C103.326 40.0762 103.183 40.0161 103.038 39.9608C102.855 39.901 102.67 39.8497 102.482 39.8073C102.256 39.7529 102.03 39.6967 101.804 39.6387C101.215 39.5138 100.636 39.3443 100.073 39.132C99.5846 38.9467 99.1236 38.6954 98.703 38.3851C98.5215 38.2346 98.3527 38.0694 98.1985 37.891C98.0487 37.7169 97.9179 37.5273 97.8084 37.3254C97.5971 36.9444 97.4886 36.485 97.4886 35.947C97.4886 35.4564 97.5971 34.9727 97.8084 34.4983C98.0462 34.0307 98.3625 33.6302 98.7573 33.3012C99.213 32.929 99.7335 32.644 100.293 32.4608C100.948 32.2536 101.632 32.1527 102.319 32.1618C103.128 32.1618 103.83 32.2564 104.436 32.4481C104.747 32.5543 105.033 32.6766 105.298 32.8094C105.56 32.9433 105.802 33.1003 106.025 33.2769C106.458 33.6152 106.795 34.0227 107.032 34.5063C107.251 34.9577 107.372 35.4529 107.384 35.9897V37.5528H106.701C106.302 37.5587 105.908 37.473 105.549 37.3023C105.21 37.1382 104.911 36.9022 104.674 36.6108C104.626 36.559 104.585 36.5007 104.553 36.4376C104.507 36.3548 104.468 36.2683 104.436 36.1791C104.394 36.0827 104.358 35.9845 104.326 35.8847C104.293 35.7904 104.264 35.6944 104.241 35.5972C104.201 35.4403 104.136 35.2906 104.049 35.154C103.957 35.0057 103.835 34.8786 103.69 34.7811C103.518 34.6527 103.319 34.5664 103.108 34.5294C102.843 34.4863 102.575 34.4666 102.307 34.4706C101.764 34.4706 101.347 34.5964 101.045 34.8515C100.899 34.9606 100.782 35.1031 100.703 35.267C100.623 35.4309 100.584 35.6114 100.589 35.7935C100.59 35.9673 100.637 36.1378 100.726 36.2875C100.814 36.4371 100.941 36.5606 101.093 36.6454C101.178 36.7089 101.276 36.7678 101.389 36.8186C101.507 36.874 101.639 36.9294 101.791 36.9802C101.936 37.0264 102.096 37.0737 102.271 37.121C102.448 37.1649 102.638 37.2076 102.841 37.2469C103.483 37.3681 104.095 37.5262 104.674 37.7178C104.955 37.8125 105.216 37.9187 105.45 38.0399C105.688 38.1657 105.908 38.2997 106.115 38.444C106.322 38.5894 106.502 38.7545 106.658 38.9357C106.814 39.1123 106.951 39.3086 107.064 39.5164ZM114.062 42.3481C114.093 42.3562 114.179 42.3631 114.32 42.3758C114.46 42.3873 114.608 42.3954 114.765 42.3989L115.203 42.4104C115.335 42.415 115.417 42.4151 115.449 42.407V43.0269C115.449 43.2947 115.393 43.5417 115.288 43.7691C115.182 43.9901 115.038 44.1909 114.863 44.3625C114.686 44.5313 114.476 44.6621 114.246 44.7469C114.009 44.835 113.755 44.8686 113.503 44.845C113.102 44.8141 112.702 44.7644 112.305 44.6961C112.107 44.6601 111.918 44.5839 111.75 44.4722C111.589 44.3601 111.435 44.2383 111.289 44.1074C111.002 43.8181 110.783 43.4677 110.649 43.0823C110.562 42.8588 110.503 42.6254 110.473 42.3873C110.437 42.1114 110.42 41.8333 110.422 41.555V34.3297H108.785V33.5713C108.788 33.1918 108.941 32.8289 109.211 32.5624C109.485 32.2916 109.854 32.1394 110.239 32.1387H110.422V28.3211H111.083C111.395 28.3205 111.705 28.3833 111.992 28.5058C112.277 28.6282 112.523 28.7933 112.738 29.0045C112.949 29.2169 113.117 29.464 113.238 29.7468C113.359 30.0296 113.421 30.3321 113.421 30.6542V32.1387H115.319V32.8844C115.32 33.074 115.283 33.2617 115.211 33.437C115.138 33.6122 115.032 33.7715 114.899 33.9058C114.765 34.04 114.606 34.1466 114.431 34.2193C114.256 34.292 114.068 34.3296 113.879 34.3297H113.421V41.233C113.421 41.4604 113.445 41.6566 113.492 41.8182C113.52 41.8886 113.551 41.951 113.582 42.0145C113.611 42.073 113.654 42.124 113.707 42.1634C113.802 42.2615 113.927 42.3262 114.062 42.3481Z" fill="#540A45"/>
</g>
<defs>
<clipPath id="clip0_384_1596">
<rect width="115.439" height="45.0211" fill="white" transform="translate(0.0117188 0.507324)"/>
</clipPath>
</defs>
</svg>
