<svg width="24" height="24" viewBox="0 0 24 24" fill="none" xmlns="http://www.w3.org/2000/svg">
<circle cx="12" cy="12" r="11.5" fill="#D3F5C6" stroke="#1A7408"/>
<path d="M9.55002 6.16675H14.45C16.3167 6.16675 17.8334 7.68341 17.8334 9.55008V14.4501C17.8334 15.3474 17.4769 16.208 16.8424 16.8425C16.2079 17.477 15.3473 17.8334 14.45 17.8334H9.55002C7.68335 17.8334 6.16669 16.3167 6.16669 14.4501V9.55008C6.16669 8.65277 6.52314 7.7922 7.15764 7.1577C7.79214 6.52321 8.6527 6.16675 9.55002 6.16675ZM9.43335 7.33341C8.8764 7.33341 8.34226 7.55466 7.94843 7.94849C7.5546 8.34232 7.33335 8.87646 7.33335 9.43341V14.5667C7.33335 15.7276 8.27252 16.6667 9.43335 16.6667H14.5667C15.1236 16.6667 15.6578 16.4455 16.0516 16.0517C16.4454 15.6578 16.6667 15.1237 16.6667 14.5667V9.43341C16.6667 8.27258 15.7275 7.33341 14.5667 7.33341H9.43335ZM15.0625 8.20841C15.2559 8.20841 15.4414 8.28524 15.5781 8.42198C15.7149 8.55873 15.7917 8.74419 15.7917 8.93758C15.7917 9.13097 15.7149 9.31644 15.5781 9.45318C15.4414 9.58993 15.2559 9.66675 15.0625 9.66675C14.8691 9.66675 14.6837 9.58993 14.5469 9.45318C14.4102 9.31644 14.3334 9.13097 14.3334 8.93758C14.3334 8.74419 14.4102 8.55873 14.5469 8.42198C14.6837 8.28524 14.8691 8.20841 15.0625 8.20841ZM12 9.08342C12.7736 9.08342 13.5154 9.39071 14.0624 9.93769C14.6094 10.4847 14.9167 11.2265 14.9167 12.0001C14.9167 12.7736 14.6094 13.5155 14.0624 14.0625C13.5154 14.6095 12.7736 14.9167 12 14.9167C11.2265 14.9167 10.4846 14.6095 9.93763 14.0625C9.39064 13.5155 9.08335 12.7736 9.08335 12.0001C9.08335 11.2265 9.39064 10.4847 9.93763 9.93769C10.4846 9.39071 11.2265 9.08342 12 9.08342ZM12 10.2501C11.5359 10.2501 11.0908 10.4345 10.7626 10.7626C10.4344 11.0908 10.25 11.536 10.25 12.0001C10.25 12.4642 10.4344 12.9093 10.7626 13.2375C11.0908 13.5657 11.5359 13.7501 12 13.7501C12.4641 13.7501 12.9093 13.5657 13.2375 13.2375C13.5656 12.9093 13.75 12.4642 13.75 12.0001C13.75 11.536 13.5656 11.0908 13.2375 10.7626C12.9093 10.4345 12.4641 10.2501 12 10.2501Z" fill="#1A7408"/>
</svg>
