<svg width="383" height="383" viewBox="0 0 383 383" fill="none" xmlns="http://www.w3.org/2000/svg">
<path d="M280.881 126.773C281.096 174.989 241.964 216.066 191.581 216.131C142.427 216.188 102.081 176.563 102.12 126.681C102.158 76.1481 143.307 37.2085 191.665 37.3119C241.175 37.4153 281.122 77.8333 280.881 126.773ZM195.032 91.4719C194.875 105.896 206.966 117.585 221.137 117.581C234.684 117.581 247.219 106.643 247.25 91.4336C247.28 76.083 234.741 65.2211 221.267 65.1943C207.341 65.1675 194.867 76.7724 195.032 91.4719Z" fill="#DB353A"/>
<path d="M364.655 301.739C364.36 301.639 364.272 301.704 364.18 301.858C361.986 305.58 358.543 307.603 354.471 308.399C347.267 309.828 340.557 308.445 334.628 304.033C329.741 300.395 326.999 295.373 326.202 289.391C325.319 283.34 326.269 277.164 328.929 271.658C332.809 263.615 339.243 258.77 347.918 256.893C351.434 256.085 355.064 255.903 358.642 256.357C367.57 257.579 373.644 262.405 376.942 270.735C378.096 273.553 378.694 276.568 378.704 279.613C378.639 288.579 379.022 297.534 379.179 306.496C379.253 310.033 378.65 313.553 377.402 316.864C374.529 324.462 369.24 329.64 361.545 332.207C355.347 334.297 348.663 334.471 342.365 332.704C340.038 332.094 337.841 331.068 335.881 329.675C332.568 327.293 330.702 324.171 330.902 319.97C330.971 318.491 330.902 317.005 330.921 315.523C330.921 315.232 330.986 314.926 331.285 314.83C331.426 314.8 331.572 314.81 331.708 314.859C331.843 314.909 331.962 314.995 332.051 315.109C333.39 316.371 334.925 317.405 336.597 318.173C338.902 319.244 341.343 319.995 343.851 320.406C346.408 320.835 349.006 320.979 351.595 320.835C353.715 320.767 355.807 320.334 357.781 319.556C361.549 318.024 363.801 315.217 364.59 311.268C365.013 309.254 365.114 307.186 364.889 305.14C364.766 304.002 364.732 302.834 364.655 301.739ZM364.383 282.589C364.383 279.119 364 276.959 363.047 274.845C361.162 270.605 357.551 268.648 353.035 268.877C348.52 269.107 344.992 271.352 342.786 275.346C341.572 277.465 340.845 279.827 340.658 282.262C340.471 284.697 340.829 287.143 341.706 289.422C343.533 294.401 348.217 297.878 354.946 296.476C359.159 295.596 361.84 292.853 363.346 288.905C364.081 286.886 364.433 284.748 364.383 282.6V282.589Z" fill="#686767"/>
<path d="M53.138 260.563C52.6095 260.517 52.372 260.122 52.0771 259.843C48.1935 256.258 43.5324 254.481 38.3542 253.845C35.2694 253.466 32.1496 253.473 29.0664 253.864C26.9541 254.064 24.8938 254.636 22.9806 255.553C19.8438 257.162 18.3195 259.712 18.4229 263.259C18.4333 264.073 18.6198 264.875 18.9695 265.61C19.3192 266.345 19.8239 266.996 20.4489 267.518C21.4225 268.337 22.5151 269.004 23.6891 269.494C26.3535 270.62 29.1148 271.501 31.9389 272.125C34.3365 272.7 36.7571 273.198 39.1355 273.853C42.3516 274.704 45.3868 276.132 48.0939 278.066C51.9852 280.892 54.6049 284.619 55.1794 289.414C56.4701 300.023 52.2456 310.207 40.5756 314.474C35.3208 316.389 29.8516 316.848 24.3057 316.412C21.5565 316.257 18.8364 315.768 16.2053 314.956C14.3872 314.39 12.6571 313.573 11.0654 312.528C7.41545 310.046 5.51577 306.603 5.42385 302.187C5.38172 300.211 5.42385 298.235 5.42385 296.258C5.42385 295.818 5.78387 295.63 6.12474 295.875C6.57668 296.212 7.00181 296.588 7.44609 296.932C14.1946 302.172 21.8201 304.209 30.2844 303.221C32.1148 303.054 33.9116 302.625 35.6196 301.946C37.5039 301.149 39.0436 299.954 39.9053 298.055C40.9433 295.757 40.9663 293.393 40.3918 291.011C40.1007 289.809 39.2428 288.924 38.2699 288.185C37.1783 287.402 35.9818 286.776 34.7157 286.327C31.4709 285.151 28.1421 284.222 24.7577 283.546C22.1984 283.036 19.6803 282.337 17.2241 281.455C14.4947 280.479 11.9521 279.044 9.70579 277.212C5.30895 273.512 3.44757 268.717 3.89951 263.121C4.71913 253.274 10.1922 246.778 19.0548 242.929C22.1766 241.59 25.5218 240.848 28.9171 240.742C33.0152 240.585 37.1018 240.658 41.1195 241.635C43.326 242.128 45.4433 242.959 47.3968 244.097C49.4345 245.256 51.1004 246.971 52.1996 249.042C52.8259 250.155 53.1937 251.395 53.2759 252.669C53.341 255.136 53.3601 257.606 53.3793 260.076C53.3793 260.229 53.2376 260.406 53.138 260.563Z" fill="#686767"/>
<path d="M126.316 292.509C123.708 292.509 121.096 292.509 118.484 292.509C117.687 292.509 117.476 292.784 117.645 293.554C118.061 295.495 118.947 297.303 120.226 298.82C122.547 301.582 125.565 303.137 129.035 303.914C131.9 304.558 134.78 304.447 137.676 304.205C139.858 304.03 142.013 303.606 144.099 302.941C146.6 302.168 148.925 300.913 150.943 299.246C151.38 298.863 151.812 299.069 151.812 299.609C151.812 301.655 151.935 303.696 151.598 305.737C151.387 307.173 150.88 308.548 150.107 309.776C149.335 311.004 148.315 312.057 147.113 312.869C145.062 314.262 142.738 315.203 140.296 315.63C135.987 316.473 131.651 316.829 127.251 316.251C116.73 314.876 106.752 307.285 103.631 295.649C102.663 292.032 102.331 288.273 102.65 284.542C102.865 281.232 103.497 277.962 104.531 274.81C106.626 268.751 110.169 263.784 115.638 260.314C119.28 258.016 123.279 256.786 127.557 256.304C131.986 255.739 136.485 256.381 140.579 258.161C147.419 261.179 151.801 266.315 153.413 273.669C154.019 276.217 154.106 278.861 153.67 281.444C153.107 284.508 151.598 286.951 148.967 288.667C147.044 289.859 144.927 290.706 142.712 291.168C139.337 291.925 135.895 292.346 132.436 292.424C130.391 292.486 128.346 292.424 126.308 292.424L126.316 292.509ZM124.6 282.328C127.457 282.298 130.556 282.328 133.635 281.888C135.104 281.718 136.543 281.351 137.913 280.796C138.678 280.503 139.332 279.979 139.786 279.297C140.24 278.614 140.47 277.808 140.445 276.989C140.491 273.715 139.189 270.831 135.849 269.329C132.864 267.987 129.508 267.716 126.347 268.563C122.536 269.552 120.042 272.118 118.495 275.664C117.748 277.369 117.534 279.188 117.373 281.026C117.273 282.133 117.392 282.294 118.449 282.305C120.418 282.344 122.39 282.328 124.6 282.328Z" fill="#686767"/>
<path d="M317.032 296.243C317.032 301.605 317.032 306.967 317.032 312.329C317.032 312.754 317.032 313.179 317.032 313.6C316.997 315.197 316.971 315.232 315.343 315.247C313.65 315.247 311.953 315.308 310.287 314.914C306.641 314.052 304.071 312.003 302.984 308.323C302.658 307.223 302.7 306.086 302.7 304.956C302.7 297.825 302.7 290.694 302.7 283.565C302.726 281.374 302.487 279.188 301.988 277.054C301.705 275.887 301.259 274.765 300.663 273.722C299.618 271.852 297.933 270.422 295.917 269.697C293.457 268.754 290.764 268.597 288.211 269.249C285.995 269.798 284.069 271.166 282.822 273.079C281.724 274.731 281.023 276.615 280.773 278.583C280.561 280.121 280.453 281.672 280.452 283.225C280.469 293.111 280.469 302.995 280.452 312.876C280.452 315.465 280.62 315.247 278.023 315.247C276.613 315.301 275.201 315.208 273.81 314.971C269.448 314.083 266.706 311.141 266.238 306.752C266.163 305.98 266.127 305.204 266.131 304.427C266.131 296.87 266.131 289.316 266.131 281.765C266.131 278.701 266.418 275.699 267.376 272.784C269.858 265.235 274.81 260.072 282.397 257.61C288.1 255.76 293.887 255.495 299.701 257.165C308.828 259.796 314.255 265.917 316.346 275.101C316.833 277.459 317.061 279.863 317.028 282.271C317.051 286.921 317.032 291.582 317.032 296.243Z" fill="#676767"/>
<path d="M65.0785 277.139C65.0785 271.275 65.0785 265.415 65.0785 259.555C65.0534 258.426 65.1148 257.297 65.2624 256.177C65.9939 251.47 68.7745 248.111 72.5394 245.476C74.3854 244.189 76.5302 244.216 78.6674 244.388C78.8469 244.399 79.0149 244.481 79.1347 244.615C79.2545 244.749 79.3164 244.925 79.307 245.105C79.3338 245.599 79.3338 246.093 79.3338 246.587C79.3338 249.41 79.3338 252.236 79.3338 255.059C79.3338 255.553 79.3338 256.047 79.3338 256.541C79.3199 256.647 79.3297 256.755 79.3626 256.856C79.3955 256.958 79.4506 257.051 79.5239 257.129C79.5973 257.207 79.687 257.267 79.7866 257.306C79.8862 257.345 79.9932 257.361 80.0998 257.353C80.6666 257.353 81.2296 257.376 81.7926 257.376H96.6224C97.0475 257.376 97.4688 257.376 97.894 257.376C99.2689 257.407 99.2996 257.43 99.3225 258.828C99.3225 260.03 99.3225 261.229 99.3225 262.428C99.2957 266.511 96.8254 269.387 92.7809 269.973C91.7307 270.109 90.6725 270.174 89.6135 270.168C87.0014 270.195 84.3894 270.168 81.7773 270.168C81.2833 270.168 80.7892 270.168 80.2951 270.168C79.6095 270.207 79.3874 270.409 79.3453 271.034C79.3146 271.455 79.3223 271.88 79.3223 272.305C79.3223 279.01 79.3223 285.718 79.3223 292.428C79.2677 294.053 79.4391 295.677 79.8317 297.254C80.8198 300.701 82.9378 302.616 86.6376 302.953C90.594 303.29 94.5427 303.083 98.2463 301.337C99.0315 300.954 99.2996 301.134 99.3111 301.957C99.3111 303.489 99.3685 305.067 99.3111 306.614C99.131 310.345 97.3348 313.003 93.9031 314.539C92.6151 315.124 91.2397 315.494 89.8318 315.634C85.8716 316.017 81.9305 315.864 78.089 314.692C71.6776 312.742 67.6523 308.476 65.9441 302.018C65.3383 299.693 65.0396 297.298 65.0555 294.895C65.0555 288.966 65.0555 283.036 65.0555 277.104L65.0785 277.139Z" fill="#686868"/>
<path d="M201.499 269.758C201.499 259.877 201.499 249.998 201.499 240.122C201.499 238.092 201.434 238.172 203.476 238.18C204.536 238.18 205.594 238.18 206.651 238.203C207.852 238.235 209.04 238.47 210.163 238.9C213.054 239.942 214.786 242.014 215.525 244.967C215.798 246.208 215.919 247.477 215.885 248.747C215.885 264.128 215.885 279.51 215.885 294.891C215.885 295.879 215.885 296.871 215.95 297.851C216.191 300.823 217.738 302.681 220.588 303.443C221.816 303.773 223.082 303.938 224.353 303.933C225.766 303.933 227.176 303.933 228.589 303.956C229.06 303.956 229.428 304.14 229.443 304.669C229.497 306.584 229.577 308.499 229.06 310.345C228.803 311.414 228.28 312.401 227.538 313.214C226.797 314.026 225.862 314.637 224.82 314.991C223.834 315.357 222.804 315.59 221.756 315.684C218.586 315.974 215.389 315.643 212.346 314.707C206.543 312.869 203.242 308.824 202.005 302.957C201.658 301.154 201.502 299.319 201.538 297.484C201.515 288.243 201.502 279.001 201.499 269.758Z" fill="#686868"/>
<path d="M176.778 296.825C176.778 302.338 176.778 307.846 176.778 313.351C176.778 315.266 176.755 315.266 174.936 315.266C173.116 315.266 171.263 315.305 169.455 314.883C166.203 314.156 163.771 312.448 162.737 309.138C162.407 308.056 162.243 306.93 162.251 305.799C162.251 296.902 162.209 288.005 162.278 279.107C162.246 275.351 163.03 271.632 164.576 268.207C167.483 261.964 172.373 258.364 179.13 257.242C181.916 256.725 184.774 256.737 187.556 257.276C188.875 257.532 190.138 258.017 191.29 258.709C192.584 259.453 193.661 260.522 194.414 261.811C195.167 263.099 195.57 264.562 195.583 266.055C195.637 267.464 195.61 268.877 195.583 270.291C195.583 271.317 195.308 271.478 194.262 271.149C193.791 271.003 193.331 270.815 192.86 270.666C190.159 269.809 187.301 269.558 184.492 269.931C181.267 270.36 179.041 272.099 177.847 275.12C177.308 276.429 176.994 277.82 176.92 279.234C176.851 280.854 176.793 282.478 176.789 284.102C176.766 288.342 176.778 292.578 176.778 296.825Z" fill="#686868"/>
<path d="M235 280.057C235 273.556 235 267.06 235 260.566C235 258.686 235 258.682 236.827 258.651C238.521 258.58 240.218 258.681 241.891 258.954C245.682 259.72 248.019 261.964 248.934 265.691C249.251 267.072 249.399 268.487 249.374 269.904C249.357 278.378 249.357 286.853 249.374 295.328C249.374 296.243 249.351 297.166 249.44 298.077C249.711 300.854 250.949 302.953 254.315 303.639C255.846 303.891 257.399 303.991 258.949 303.937C260.838 303.937 260.83 303.918 260.818 305.799C260.873 307.351 260.759 308.905 260.478 310.433C259.872 313.114 258.306 314.788 255.606 315.412C254.714 315.621 253.803 315.739 252.887 315.764C250.626 315.838 248.366 315.58 246.18 314.998C240.818 313.528 237.432 310.05 235.893 304.757C235.273 302.58 234.971 300.325 234.997 298.062C234.997 292.061 234.997 286.059 234.997 280.061L235 280.057Z" fill="#686868"/>
<path d="M233.729 244.875C233.734 242.668 234.613 240.552 236.173 238.991C237.734 237.43 239.849 236.551 242.056 236.545C246.698 236.545 250.681 240.455 250.535 245.005C250.505 247.22 249.61 249.335 248.04 250.898C246.47 252.46 244.351 253.346 242.136 253.366C241.023 253.374 239.919 253.159 238.89 252.734C237.861 252.309 236.927 251.682 236.144 250.891C235.361 250.1 234.744 249.16 234.329 248.127C233.914 247.094 233.71 245.988 233.729 244.875Z" fill="#686868"/>
<path d="M233.442 335.156C233.856 334.773 234.208 334.443 234.591 334.16C237.039 332.333 240.953 333.317 241.485 336.76C241.589 337.244 241.657 337.734 241.688 338.227C241.711 340.272 241.688 342.322 241.688 344.355C241.688 344.78 241.688 345.255 241.129 345.343C240.883 345.383 240.63 345.348 240.404 345.242C240.178 345.136 239.989 344.964 239.861 344.75C239.659 344.374 239.575 343.945 239.62 343.52C239.62 341.969 239.62 340.414 239.62 338.859C239.644 338.081 239.505 337.306 239.214 336.584C238.789 335.6 238.042 335.19 236.813 335.248C235.664 335.301 234.852 335.841 234.61 336.871C234.45 337.627 234.369 338.397 234.369 339.169C234.335 340.866 234.369 342.559 234.369 344.256C234.369 344.669 234.415 345.148 233.913 345.332C233.602 345.407 233.274 345.36 232.996 345.201C232.717 345.042 232.51 344.784 232.416 344.478C232.32 343.995 232.274 343.503 232.278 343.011C232.259 341.739 232.278 340.468 232.259 339.181C232.253 338.476 232.173 337.774 232.021 337.086C231.904 336.527 231.587 336.029 231.129 335.687C230.672 335.344 230.105 335.18 229.536 335.225C228.337 335.248 227.651 335.803 227.238 337.04C227.036 337.788 226.955 338.564 226.996 339.338C226.996 341.104 226.996 342.869 226.966 344.635C226.967 344.757 226.937 344.877 226.878 344.983C226.819 345.09 226.734 345.179 226.63 345.243C226.526 345.306 226.407 345.341 226.285 345.345C226.163 345.348 226.043 345.32 225.935 345.263C225.139 344.972 224.924 344.332 224.92 343.585C224.92 341.747 224.878 339.912 224.947 338.078C224.986 337.373 225.148 336.681 225.426 336.033C225.904 334.916 226.799 334.029 227.92 333.561C229.041 333.093 230.301 333.079 231.431 333.524C232.251 333.888 232.799 334.539 233.442 335.156Z" fill="#706E6E"/>
<path d="M278.601 337.496C278.705 337.879 279.053 337.986 279.321 338.181C281.619 339.836 280.888 343.057 279.126 344.413C278.738 344.718 278.3 344.952 277.831 345.106C275.997 345.647 274.05 345.683 272.197 345.209C270.987 344.926 270.317 344.011 270.171 342.762C270.138 342.411 270.125 342.058 270.133 341.705C270.133 338.599 270.133 335.493 270.133 332.386C270.133 330.717 270.152 330.701 271.853 330.372C273.522 330.055 275.232 330.023 276.912 330.276C278.969 330.575 280.62 332.019 280.413 334.543C280.382 335.326 280.051 336.068 279.49 336.615C279.206 336.902 278.747 337.04 278.601 337.496ZM272.194 340.56C272.194 340.912 272.194 341.261 272.194 341.613C272.186 341.753 272.186 341.894 272.194 342.034C272.286 342.904 272.623 343.398 273.408 343.539C274.648 343.82 275.942 343.753 277.146 343.344C278.295 342.904 278.751 342.034 278.636 340.632C278.54 339.483 278.034 338.84 276.859 338.614C276.031 338.465 275.191 338.388 274.35 338.384C272.094 338.357 272.182 338.281 272.194 340.567V340.56ZM274.561 336.73C275.33 336.692 276.098 336.611 276.859 336.488C277.824 336.285 278.341 335.531 278.391 334.485C278.429 333.378 278.008 332.681 277.096 332.31C276.236 332.01 275.323 331.894 274.415 331.969C272.324 332.034 272.19 332.164 272.194 334.267C272.171 336.841 271.991 336.657 274.561 336.722V336.73Z" fill="#737070"/>
<path d="M133.955 338.166C133.897 339.153 133.714 340.128 133.411 341.069C132.35 343.999 130.025 345.665 126.992 345.604C125.57 345.598 124.19 345.126 123.064 344.26C121.937 343.393 121.127 342.181 120.756 340.809C120.128 338.772 120.179 336.586 120.902 334.581C121.986 331.498 124.349 329.962 127.754 330.119C130.599 330.249 132.84 332.107 133.618 335.041C133.894 336.058 134.008 337.113 133.955 338.166ZM122.373 337.638C122.342 338.554 122.471 339.469 122.756 340.341C123.357 342.505 125.027 343.72 127.283 343.712C129.389 343.712 130.975 342.471 131.591 340.357C132.051 338.729 132.051 337.006 131.591 335.378C131.009 333.164 129.458 331.973 127.133 331.931C124.939 331.931 123.365 333.042 122.729 335.148C122.456 335.948 122.335 336.793 122.373 337.638Z" fill="#706E6E"/>
<path d="M158.59 342.712C158.953 343.938 158.429 344.6 157.536 345.064C154.568 346.596 150.734 345.171 149.635 342.038C149.247 341.008 149.105 339.9 149.22 338.805C149.336 337.71 149.706 336.657 150.301 335.73C150.979 334.595 152.075 333.772 153.354 333.437C154.633 333.103 155.992 333.284 157.138 333.942C157.856 334.335 158.435 334.938 158.799 335.671C159.163 336.404 159.293 337.231 159.172 338.04C159.141 338.429 159.004 338.802 158.777 339.119C158.549 339.436 158.24 339.686 157.881 339.84C157.103 340.185 156.258 340.358 155.407 340.345C154.281 340.345 153.151 340.345 152.021 340.391C151.935 340.397 151.851 340.422 151.776 340.465C151.701 340.508 151.637 340.568 151.589 340.64C151.54 340.712 151.509 340.794 151.498 340.879C151.487 340.965 151.495 341.052 151.523 341.134C151.906 342.601 153.12 343.563 154.779 343.693C155.859 343.777 156.59 343.593 158.59 342.712ZM154.204 338.675C154.541 338.652 155.392 338.641 156.219 338.515C156.943 338.404 157.245 337.848 157.15 337.113C157.122 336.722 156.979 336.349 156.738 336.041C156.497 335.732 156.17 335.503 155.798 335.382C154.108 334.815 152.075 335.343 151.477 337.553C151.278 338.289 151.496 338.641 152.224 338.672C152.714 338.695 153.201 338.675 154.204 338.675Z" fill="#737070"/>
<path d="M253.88 342.563C254.056 344.217 253.329 344.941 252.245 345.267C248.235 346.458 245.167 344.451 244.489 340.931C244.126 339.18 244.451 337.356 245.397 335.837C246.753 333.624 249.349 332.693 251.632 333.608C252.337 333.856 252.963 334.289 253.444 334.861C253.924 335.433 254.243 336.123 254.367 336.86C254.596 338.112 254.24 339.667 252.383 340.081C251.835 340.208 251.278 340.291 250.717 340.33C249.87 340.376 249.02 340.33 248.177 340.372C247.706 340.372 247.086 340.169 246.822 340.656C246.481 341.291 246.898 341.873 247.304 342.368C248.25 343.517 249.514 343.811 250.924 343.666C251.977 343.515 252.986 343.139 253.88 342.563ZM246.603 338.568C248.13 338.761 249.675 338.753 251.199 338.545C252.295 338.407 252.678 337.534 252.18 336.523C252.046 336.237 251.853 335.982 251.614 335.775C251.375 335.567 251.096 335.413 250.793 335.32C248.568 334.612 246.68 336.037 246.622 338.572L246.603 338.568Z" fill="#737070"/>
<path d="M283.738 336.358C283.45 335.52 283.81 334.888 284.419 334.34C286.009 332.915 289.283 332.877 290.93 334.263C291.295 334.547 291.596 334.903 291.813 335.311C292.031 335.718 292.161 336.166 292.194 336.626C292.275 338.541 292.305 340.433 292.194 342.329C292.169 342.972 291.947 343.591 291.557 344.103C291.168 344.615 290.631 344.994 290.019 345.19C288.562 345.776 286.933 345.765 285.484 345.16C284.067 344.57 283.159 343.566 283.186 341.95C283.167 341.238 283.375 340.538 283.78 339.951C284.185 339.365 284.765 338.922 285.438 338.687C286.028 338.46 286.642 338.303 287.269 338.22C287.893 338.124 288.533 338.135 289.184 338.09C290.03 338.028 290.31 337.664 290.141 336.879C290.082 336.455 289.878 336.065 289.564 335.774C289.25 335.483 288.845 335.309 288.418 335.282C287.227 335.068 286 335.253 284.925 335.807C284.542 336.002 284.278 336.389 283.738 336.358ZM288.659 339.874C287.276 339.874 286.671 340.005 286.043 340.433C285.84 340.571 285.67 340.751 285.545 340.961C285.42 341.172 285.343 341.407 285.32 341.651C285.297 341.895 285.327 342.141 285.41 342.371C285.493 342.602 285.625 342.811 285.798 342.984C286.721 343.804 287.809 343.88 288.942 343.52C290 343.183 290.206 342.318 290.222 341.353C290.222 341.146 290.222 340.935 290.222 340.725C290.183 340.093 289.996 339.916 289.295 339.878C289.08 339.867 288.87 339.874 288.659 339.874Z" fill="#737070"/>
<path d="M310.079 338.017C310.845 337.932 311.018 337.511 311.297 337.216C312.167 336.297 313.025 335.359 313.89 334.435C314.25 334.013 314.731 333.713 315.268 333.576C315.805 333.439 316.371 333.471 316.889 333.669C316.889 334.16 316.506 334.305 316.284 334.543C315.254 335.604 314.189 336.634 313.182 337.714C311.887 339.1 311.887 338.863 313.132 340.456C314.258 341.9 315.376 343.352 316.943 344.37C317.238 344.562 317.115 345.094 316.774 345.236C316.424 345.409 316.029 345.473 315.642 345.417C315.255 345.362 314.894 345.191 314.607 344.926C314.037 344.402 313.502 343.841 313.006 343.248C312.27 342.394 311.573 341.506 310.861 340.632C310.806 340.546 310.724 340.48 310.627 340.448C310.53 340.415 310.424 340.416 310.328 340.452C310.053 340.548 310.099 340.789 310.095 340.981C310.068 342.249 310.072 343.516 310.033 344.784C310.024 344.889 309.99 344.989 309.933 345.077C309.876 345.165 309.799 345.238 309.708 345.289C309.616 345.341 309.514 345.369 309.409 345.372C309.304 345.374 309.201 345.352 309.107 345.305C308.901 345.253 308.713 345.146 308.563 344.996C308.414 344.845 308.307 344.657 308.256 344.451C308.171 344.037 308.127 343.617 308.122 343.195C308.122 339.04 308.122 334.882 308.122 330.72C308.122 330.582 308.122 330.441 308.122 330.299C308.145 329.866 308.172 329.418 308.743 329.384C308.99 329.35 309.242 329.402 309.455 329.531C309.669 329.66 309.833 329.858 309.919 330.092C310.037 330.496 310.089 330.916 310.072 331.337C310.072 332.888 310.072 334.439 310.072 335.99L310.079 338.017Z" fill="#706E6E"/>
<path d="M92.1839 339.453C92.209 340.335 92.0607 341.213 91.7473 342.038C91.0196 344.064 89.6638 345.343 87.4309 345.55C85.198 345.757 83.1107 344.765 82.1417 342.785C81.5677 341.682 81.2889 340.45 81.3326 339.208C81.3762 337.965 81.7407 336.755 82.3906 335.696C83.3941 333.949 85.0716 333.202 87.0288 333.283C87.994 333.283 88.938 333.566 89.7436 334.098C90.5491 334.63 91.1806 335.386 91.5597 336.274C92.0173 337.269 92.2313 338.359 92.1839 339.453ZM90.0966 339.556C90.1621 338.605 89.9548 337.655 89.4991 336.818C88.4076 334.842 85.4393 334.677 84.1831 336.511C83.0839 338.109 83.1911 340.985 84.4205 342.471C84.7752 342.912 85.241 343.251 85.77 343.453C86.2991 343.655 86.8723 343.713 87.4309 343.62C88.6603 343.463 89.4187 342.685 89.8208 341.517C90.0251 340.884 90.1184 340.221 90.0966 339.556Z" fill="#706E6E"/>
<path d="M222.235 339.338C222.252 340.307 222.078 341.271 221.722 342.172C220.994 344.118 219.642 345.324 217.509 345.527C215.376 345.73 213.625 344.991 212.411 343.183C210.937 340.977 211.101 337.285 212.733 335.194C214.993 332.299 219.772 332.743 221.481 336.006C221.984 337.044 222.242 338.184 222.235 339.338ZM220.155 339.602C220.197 338.579 219.953 337.565 219.451 336.672C218.302 334.83 215.487 334.711 214.25 336.458C213.124 338.047 213.2 340.928 214.418 342.421C215.847 344.168 218.938 344.225 219.838 341.563C220.058 340.939 220.166 340.28 220.155 339.618V339.602Z" fill="#706E6E"/>
<path d="M94.904 337.365C94.904 336.377 94.904 335.393 94.904 334.405C94.904 334.022 94.9844 333.677 95.3904 333.574C95.5621 333.529 95.7417 333.524 95.9156 333.559C96.0894 333.595 96.253 333.669 96.3939 333.777C96.5361 333.881 96.6546 334.014 96.7418 334.167C96.8289 334.32 96.8826 334.49 96.8994 334.665C96.9492 335.156 96.976 335.646 96.9799 336.14C96.9799 337.266 96.9569 338.396 96.999 339.522C97.005 340.224 97.095 340.924 97.2671 341.605C97.3584 341.966 97.5229 342.305 97.7505 342.599C97.978 342.894 98.2637 343.139 98.5899 343.318C98.916 343.498 99.2756 343.608 99.6463 343.643C100.017 343.678 100.391 343.636 100.745 343.52C101.127 343.433 101.479 343.245 101.763 342.976C102.047 342.706 102.254 342.365 102.361 341.988C102.573 341.241 102.671 340.467 102.652 339.69C102.652 337.928 102.652 336.167 102.652 334.405C102.652 334.052 102.652 333.669 103.108 333.574C103.279 333.526 103.459 333.52 103.633 333.556C103.807 333.592 103.969 333.669 104.107 333.781C104.315 333.966 104.473 334.201 104.567 334.462C104.675 334.796 104.731 335.145 104.732 335.496C104.732 337.189 104.732 338.878 104.732 340.571C104.72 340.852 104.689 341.133 104.64 341.41C104.123 344.773 101.04 346.542 97.8684 345.278C97.2049 345.026 96.6134 344.615 96.1459 344.08C95.6784 343.546 95.3493 342.905 95.1874 342.214C95.0061 341.461 94.8996 340.691 94.8695 339.916C94.8159 339.074 94.8695 338.227 94.8695 337.381L94.904 337.365Z" fill="#737070"/>
<path d="M177.613 333.306C177.157 333.306 176.908 332.9 176.556 332.704C175.839 332.281 175.033 332.034 174.203 331.982C173.372 331.93 172.542 332.076 171.778 332.407C171.015 332.738 170.341 333.245 169.811 333.887C169.282 334.528 168.911 335.286 168.731 336.098C168.375 337.624 168.544 339.226 169.21 340.644C170.282 343.091 172.975 344.217 175.579 343.428C176.176 343.216 176.744 342.928 177.268 342.571C177.322 342.542 177.383 342.528 177.444 342.528C177.505 342.528 177.566 342.542 177.62 342.571C177.664 342.623 177.697 342.685 177.717 342.75C177.736 342.816 177.743 342.885 177.735 342.954C177.697 343.342 177.567 343.716 177.357 344.045C177.146 344.373 176.861 344.648 176.525 344.846C176.05 345.152 175.519 345.361 174.962 345.462C173.603 345.744 172.19 345.605 170.912 345.065C169.633 344.524 168.549 343.608 167.804 342.437C166.035 339.56 165.962 336.565 167.597 333.593C168.903 331.222 171.515 329.663 174.981 330.181C175.584 330.242 176.157 330.472 176.635 330.844C177.113 331.216 177.477 331.714 177.685 332.283C177.763 332.445 177.797 332.625 177.784 332.804C177.771 332.983 177.712 333.156 177.613 333.306Z" fill="#737070"/>
<path d="M305.078 341.28C305.078 342.337 305.078 343.394 305.078 344.451C305.078 344.876 305.051 345.324 304.465 345.37C304.22 345.419 303.965 345.382 303.743 345.267C303.521 345.151 303.345 344.963 303.244 344.735C303.104 344.337 303.036 343.918 303.044 343.497C303.018 342.088 303.044 340.679 303.021 339.284C303.021 338.58 302.961 337.876 302.841 337.182C302.612 336.033 301.83 335.412 300.612 335.267C299.188 335.117 298.268 335.531 297.74 336.554C297.429 337.189 297.281 337.892 297.311 338.599C297.311 340.292 297.311 341.985 297.311 343.677C297.319 344.1 297.296 344.522 297.242 344.941C297.188 345.252 296.909 345.355 296.606 345.363C296.358 345.377 296.111 345.31 295.904 345.171C295.697 345.033 295.54 344.832 295.457 344.597C295.337 344.268 295.277 343.92 295.281 343.57C295.266 341.808 295.266 340.047 295.281 338.285C295.309 337.43 295.547 336.595 295.975 335.855C296.403 335.114 297.007 334.49 297.734 334.039C298.46 333.588 299.287 333.323 300.141 333.268C300.994 333.213 301.848 333.369 302.627 333.723C303.273 334.019 303.827 334.483 304.231 335.066C304.635 335.65 304.875 336.332 304.925 337.04C305.082 338.434 305.082 339.851 305.151 341.253L305.078 341.28Z" fill="#706E6E"/>
<path d="M179.909 337.549C179.909 336.423 179.909 335.297 179.909 334.171C179.909 333.704 180.319 333.47 180.79 333.562C181.072 333.605 181.331 333.742 181.526 333.951C181.721 334.159 181.839 334.427 181.863 334.711C181.923 335.27 181.948 335.831 181.939 336.393C181.966 337.871 181.92 339.353 182.016 340.828C182.096 342.119 182.728 343.099 184.038 343.509C184.37 343.632 184.724 343.684 185.077 343.662C185.43 343.639 185.775 343.543 186.088 343.378C186.402 343.214 186.677 342.985 186.897 342.708C187.116 342.43 187.275 342.109 187.362 341.766C187.508 341.15 187.574 340.518 187.558 339.886C187.585 338.128 187.558 336.366 187.581 334.604C187.581 334.198 187.523 333.719 188.079 333.585C188.354 333.521 188.644 333.555 188.897 333.683C189.149 333.81 189.349 334.022 189.461 334.282C189.553 334.472 189.608 334.677 189.622 334.888C189.622 337.002 189.733 339.101 189.588 341.222C189.392 343.988 187.6 345.55 184.85 345.608C182.203 345.661 180.254 344.037 179.963 341.349C179.881 340.084 179.872 338.815 179.936 337.549H179.909Z" fill="#737070"/>
<path d="M146.427 341.046C146.427 342.318 146.45 343.585 146.427 344.853C146.427 345.286 146.044 345.412 145.661 345.366C144.983 345.286 144.585 344.96 144.485 344.351C144.428 343.933 144.404 343.51 144.413 343.088C144.413 341.82 144.413 340.548 144.413 339.277C144.425 338.784 144.412 338.29 144.374 337.798C144.148 335.65 142.095 334.547 140.161 335.535C139.812 335.709 139.511 335.968 139.287 336.288C139.062 336.607 138.92 336.978 138.874 337.366C138.792 338 138.756 338.64 138.767 339.281C138.767 340.973 138.767 342.666 138.767 344.359C138.767 344.777 138.767 345.244 138.235 345.366C137.957 345.427 137.667 345.388 137.415 345.255C137.164 345.123 136.967 344.906 136.86 344.643C136.769 344.377 136.72 344.099 136.714 343.819C136.714 341.904 136.645 339.989 136.714 338.105C136.917 333.597 141.077 332.555 143.827 333.654C145.527 334.332 146.262 335.753 146.416 337.484C146.519 338.672 146.435 339.878 146.435 341.077L146.427 341.046Z" fill="#747373"/>
<path d="M192.648 342.551C193.458 342.996 194.32 343.338 195.214 343.57C196.042 343.764 196.909 343.705 197.704 343.402C197.973 343.312 198.207 343.14 198.374 342.911C198.54 342.682 198.632 342.406 198.634 342.122C198.683 341.84 198.634 341.55 198.494 341.3C198.355 341.049 198.134 340.854 197.868 340.747C197.152 340.468 196.405 340.261 195.67 340.027C195.054 339.882 194.45 339.691 193.862 339.457C192.506 338.798 192.039 337.542 192.514 336.086C192.681 335.546 192.974 335.052 193.368 334.646C194.77 333.218 197.512 332.804 199.263 333.788C199.623 334.006 199.943 334.285 200.209 334.612C200.592 335.056 200.615 335.799 200.335 335.96C199.952 336.186 199.676 335.876 199.381 335.738C198.412 335.299 197.336 335.147 196.283 335.301C195.787 335.354 195.319 335.56 194.946 335.891C194.797 336.01 194.68 336.165 194.606 336.341C194.531 336.517 194.502 336.708 194.52 336.898C194.538 337.088 194.604 337.271 194.71 337.429C194.817 337.588 194.961 337.717 195.13 337.806C195.579 338.004 196.042 338.167 196.516 338.292C197.317 338.553 198.144 338.752 198.922 339.058C201.492 340.104 201.059 343.302 199.63 344.497C198.202 345.692 195.241 345.96 193.644 344.934C193.405 344.785 193.192 344.598 193.016 344.378C192.844 344.151 192.723 343.89 192.66 343.612C192.624 343.26 192.62 342.905 192.648 342.551Z" fill="#737070"/>
<path d="M79.9 331.172C79.7933 331.788 79.5641 332.375 79.2259 332.9C78.3141 334.644 77.2584 336.31 76.07 337.879C75.4508 338.647 75.1456 339.621 75.2159 340.606C75.2695 341.873 75.2159 343.141 75.2159 344.413C75.2159 344.838 75.1738 345.294 74.6069 345.351C74.3262 345.4 74.0372 345.35 73.7888 345.211C73.5404 345.071 73.3477 344.85 73.2435 344.585C73.1616 344.244 73.1217 343.894 73.1247 343.543C73.1247 342.486 73.0788 341.429 73.1247 340.372C73.1587 339.528 72.8988 338.698 72.3894 338.024C71.0082 336.066 69.8326 333.97 68.8811 331.77C68.7241 331.456 68.6046 331.124 68.5249 330.782C68.5109 330.713 68.5128 330.642 68.5302 330.574C68.5477 330.506 68.5803 330.443 68.6256 330.39C68.671 330.336 68.7279 330.294 68.792 330.266C68.8562 330.237 68.9259 330.224 68.996 330.226C69.3474 330.169 69.7082 330.224 70.0262 330.384C70.3442 330.545 70.603 330.802 70.7654 331.119C71.1484 331.797 71.4242 332.521 71.8034 333.195C72.4545 334.363 73.1362 335.516 73.8371 336.642C74.132 337.12 74.4805 337.097 74.8176 336.615C75.8481 335.099 76.7598 333.506 77.5445 331.85C77.7444 331.401 77.9668 330.963 78.211 330.537C78.4829 330.112 78.9272 330.154 79.36 330.292C79.537 330.355 79.6871 330.476 79.7853 330.637C79.8836 330.797 79.924 330.986 79.9 331.172Z" fill="#747373"/>
<path d="M205.577 331.268C206.04 331.935 205.324 332.992 206.151 333.382C206.737 333.662 207.53 333.497 208.231 333.528C208.442 333.528 208.652 333.528 208.863 333.528C209.292 333.528 209.767 333.528 209.782 334.125C209.817 334.377 209.758 334.633 209.617 334.845C209.476 335.057 209.262 335.209 209.016 335.274C208.537 335.378 208.05 335.447 207.561 335.481C207.212 335.516 206.856 335.481 206.504 335.527C206.151 335.573 205.822 335.761 205.818 336.167C205.818 338.082 205.749 339.974 205.845 341.87C205.899 343.019 206.653 343.616 207.81 343.654C208.16 343.641 208.509 343.606 208.855 343.551C209.457 343.497 209.74 343.857 209.587 344.417C209.526 344.657 209.404 344.876 209.232 345.054C209.06 345.232 208.844 345.362 208.606 345.432C206.354 346.198 204.252 345.003 203.796 342.689C203.732 342.343 203.7 341.992 203.7 341.64C203.7 339.104 203.7 336.569 203.7 334.03C203.647 333.249 203.88 332.476 204.355 331.854C204.669 331.471 205.022 331.104 205.577 331.268Z" fill="#737070"/>
<path d="M257.219 340.767C257.219 339.851 257.177 338.936 257.219 338.024C257.247 337.105 257.485 336.205 257.916 335.393C258.329 334.646 258.989 334.065 259.783 333.752C260.577 333.439 261.456 333.413 262.267 333.677C262.609 333.777 262.904 333.994 263.101 334.291C263.298 334.587 263.384 334.944 263.343 335.297C263.343 335.573 263.221 335.849 262.823 335.765C262.415 335.657 262.001 335.58 261.582 335.535C260.345 335.462 259.716 335.918 259.479 337.109C259.358 337.801 259.298 338.502 259.299 339.204C259.276 340.966 259.299 342.724 259.299 344.486C259.299 344.838 259.268 345.206 258.874 345.359C258.635 345.42 258.383 345.412 258.148 345.334C257.914 345.255 257.707 345.111 257.553 344.918C257.315 344.566 257.191 344.149 257.2 343.723C257.2 342.735 257.2 341.751 257.2 340.767H257.219Z" fill="#747373"/>
<path d="M107.898 340.732C107.898 339.817 107.898 338.901 107.898 337.99C107.901 336.997 108.186 336.025 108.717 335.186C109.13 334.522 109.749 334.011 110.479 333.73C111.209 333.45 112.01 333.415 112.762 333.631C113.005 333.678 113.234 333.782 113.428 333.936C113.622 334.09 113.776 334.289 113.876 334.516C113.967 334.668 114.022 334.839 114.038 335.015C114.054 335.191 114.03 335.369 113.968 335.535C113.75 335.964 113.375 335.73 113.053 335.657C112.848 335.603 112.639 335.563 112.429 335.539C110.916 335.424 110.203 335.987 110.035 337.526C109.947 338.365 109.981 339.215 109.974 340.058C109.974 341.59 109.974 343.153 109.935 344.7C109.935 345.248 109.503 345.5 108.874 345.336C108.595 345.277 108.345 345.123 108.168 344.899C107.99 344.675 107.898 344.396 107.905 344.11C107.871 342.984 107.905 341.858 107.905 340.732H107.898Z" fill="#747373"/>
<path d="M195.03 91.4719C194.865 76.7723 207.34 65.1674 221.266 65.1943C234.74 65.2211 247.279 76.0829 247.248 91.4336C247.218 106.643 234.682 117.581 221.135 117.581C206.964 117.581 194.873 105.896 195.03 91.4719Z" fill="#FFFEFE"/>
<path d="M124.602 282.328C122.392 282.328 120.42 282.328 118.447 282.328C117.39 282.328 117.271 282.156 117.371 281.049C117.532 279.222 117.754 277.403 118.493 275.687C120.025 272.141 122.534 269.559 126.345 268.586C129.506 267.739 132.862 268.01 135.847 269.352C139.19 270.838 140.493 273.722 140.443 277.012C140.468 277.831 140.238 278.638 139.784 279.32C139.33 280.002 138.676 280.526 137.911 280.819C136.541 281.366 135.103 281.726 133.637 281.888C130.558 282.34 127.459 282.298 124.602 282.328Z" fill="#FCFCFC"/>
<path d="M272.194 340.567C272.194 338.269 272.094 338.357 274.366 338.392C275.207 338.396 276.046 338.472 276.874 338.622C278.05 338.848 278.556 339.484 278.651 340.64C278.766 342.042 278.303 342.911 277.162 343.352C275.957 343.76 274.664 343.828 273.423 343.547C272.657 343.405 272.301 342.911 272.209 342.042C272.202 341.902 272.202 341.761 272.209 341.621C272.19 341.253 272.194 340.92 272.194 340.567Z" fill="#F7F8F8"/>
<path d="M274.561 336.722C271.991 336.661 272.171 336.841 272.171 334.275C272.171 332.157 272.301 332.027 274.392 331.977C275.3 331.902 276.213 332.018 277.073 332.318C278 332.701 278.406 333.386 278.368 334.493C278.326 335.539 277.809 336.293 276.836 336.496C276.082 336.613 275.323 336.689 274.561 336.722Z" fill="#F7F8F8"/>
<path d="M122.371 337.637C122.342 336.791 122.472 335.947 122.754 335.148C123.39 333.041 124.964 331.912 127.159 331.931C129.484 331.954 131.035 333.145 131.617 335.378C132.077 337.006 132.077 338.729 131.617 340.357C131 342.471 129.415 343.7 127.308 343.712C125.052 343.712 123.383 342.505 122.781 340.341C122.488 339.471 122.349 338.556 122.371 337.637Z" fill="#F7F8F8"/>
<path d="M154.202 338.675C153.206 338.675 152.712 338.695 152.222 338.675C151.494 338.645 151.276 338.292 151.475 337.557C152.073 335.347 154.107 334.819 155.796 335.386C156.168 335.507 156.495 335.736 156.736 336.045C156.977 336.353 157.12 336.726 157.148 337.117C157.243 337.852 156.941 338.407 156.217 338.518C155.39 338.641 154.539 338.653 154.202 338.675Z" fill="#F7F8F8"/>
<path d="M246.621 338.572C246.679 336.04 248.536 334.616 250.8 335.324C251.102 335.416 251.382 335.571 251.621 335.778C251.86 335.986 252.052 336.24 252.186 336.527C252.684 337.538 252.301 338.411 251.206 338.549C249.685 338.756 248.144 338.764 246.621 338.572Z" fill="#F7F8F8"/>
<path d="M288.66 339.874C288.871 339.874 289.081 339.874 289.288 339.874C289.989 339.912 290.177 340.089 290.215 340.721C290.215 340.931 290.215 341.142 290.215 341.349C290.215 342.314 289.993 343.179 288.936 343.516C287.787 343.876 286.714 343.8 285.791 342.98C285.618 342.807 285.486 342.598 285.403 342.367C285.321 342.137 285.29 341.891 285.313 341.647C285.337 341.403 285.414 341.168 285.539 340.957C285.664 340.747 285.834 340.567 286.036 340.429C286.672 340.004 287.277 339.874 288.66 339.874Z" fill="#F7F8F8"/>
<path d="M90.0964 339.556C90.12 340.226 90.0267 340.895 89.8206 341.533C89.4185 342.682 88.6716 343.478 87.4307 343.635C86.8721 343.728 86.2989 343.671 85.7698 343.469C85.2408 343.267 84.775 342.928 84.4203 342.486C83.1909 341 83.0837 338.124 84.1829 336.527C85.4391 334.692 88.3959 334.857 89.4989 336.833C89.9517 337.666 90.1589 338.61 90.0964 339.556Z" fill="#F7F8F8"/>
<path d="M220.156 339.618C220.168 340.285 220.061 340.949 219.838 341.579C218.938 344.24 215.847 344.183 214.419 342.436C213.201 340.943 213.124 338.063 214.25 336.473C215.487 334.727 218.294 334.845 219.451 336.688C219.953 337.58 220.197 338.594 220.156 339.618Z" fill="#F7F8F8"/>
</svg>
