<svg width="36" height="37" viewBox="0 0 36 37" fill="none" xmlns="http://www.w3.org/2000/svg">
<path d="M18.9845 22.8931C18.3561 23.0363 17.7042 23.0428 17.073 22.9122C16.4418 22.7816 15.8461 22.517 15.3261 22.1361C14.806 21.7553 14.3739 21.2673 14.0589 20.7049C13.7439 20.1426 13.5533 19.5192 13.5001 18.8768C13.4736 18.609 13.3518 18.3595 13.157 18.1737C12.9934 18.0144 12.7853 17.9087 12.5602 17.8705C12.3351 17.8323 12.1038 17.8635 11.8968 17.96C11.6899 18.0564 11.5172 18.2135 11.4017 18.4105C11.2862 18.6074 11.2333 18.8348 11.2501 19.0625C11.2501 19.1787 11.2632 19.2931 11.2895 19.4056C11.4585 20.6509 11.9718 21.8243 12.7716 22.7937C13.5714 23.763 14.626 24.4899 15.8165 24.8923C17.007 25.2948 18.2863 25.3569 19.5102 25.0717C20.7341 24.7864 21.8541 24.1652 22.7441 23.2778C23.634 22.3905 24.2586 21.2724 24.5475 20.0493C24.8363 18.8262 24.778 17.5468 24.379 16.3551C23.9801 15.1633 23.2564 14.1067 22.2894 13.304C21.3224 12.5013 20.1505 11.9845 18.9057 11.8118L18.5626 11.75C18.3367 11.7344 18.1114 11.7874 17.916 11.902C17.7207 12.0166 17.5645 12.1875 17.4679 12.3923C17.3713 12.5971 17.3387 12.8263 17.3745 13.0499C17.4102 13.2735 17.5126 13.4811 17.6682 13.6456C17.854 13.8404 18.1035 13.9622 18.3714 13.9887C19.0057 14.041 19.6216 14.2272 20.1787 14.5351C20.7357 14.8429 21.2211 15.2655 21.6028 15.7747C21.9844 16.284 22.2538 16.8685 22.3929 17.4895C22.5321 18.1105 22.538 18.754 22.4101 19.3775C22.2539 20.2379 21.8444 21.032 21.2341 21.6584C20.6239 22.2847 19.8406 22.7146 18.9845 22.8931Z" fill="#1A7408"/>
<path d="M9.27578 14.2755C9.14286 14.1407 8.97807 14.0416 8.79665 13.9874C8.61524 13.9332 8.42309 13.9257 8.23799 13.9655C8.05289 14.0053 7.88083 14.0912 7.73776 14.2152C7.59469 14.3392 7.48524 14.4973 7.41953 14.6749C6.54871 17.081 6.5242 19.7122 7.35002 22.1341C8.17584 24.5561 9.80267 26.6241 11.962 27.9971C14.1214 29.37 16.6843 29.9657 19.2279 29.686C21.7714 29.4063 24.1436 28.2678 25.953 26.4584C27.7624 24.649 28.9009 22.2768 29.1806 19.7332C29.4604 17.1897 28.8646 14.6268 27.4917 12.4674C26.1188 10.308 24.0507 8.68122 21.6288 7.85539C19.2068 7.02957 16.5757 7.05409 14.1695 7.9249C13.9915 7.98998 13.8329 8.09898 13.7082 8.24177C13.5836 8.38456 13.4971 8.55652 13.4567 8.74168C13.4163 8.92685 13.4233 9.11922 13.4772 9.30094C13.531 9.48267 13.6298 9.64785 13.7645 9.78115C13.9148 9.9311 14.1043 10.0355 14.3114 10.0823C14.5184 10.1291 14.7344 10.1163 14.9345 10.0455C16.3045 9.54514 17.7763 9.38869 19.2208 9.5899C20.8828 9.81467 22.4489 10.4994 23.7425 11.5667C25.0361 12.6341 26.0058 14.0417 26.542 15.6308C27.0783 17.2198 27.16 18.9271 26.7777 20.5601C26.3954 22.1931 25.5645 23.6868 24.3785 24.8727C23.1926 26.0586 21.699 26.8895 20.066 27.2718C18.433 27.6541 16.7257 27.5725 15.1367 27.0362C13.5476 26.4999 12.14 25.5302 11.0726 24.2366C10.0052 22.943 9.32055 21.3769 9.09578 19.7149C8.90096 18.275 9.06124 16.8093 9.56266 15.4455C9.63067 15.2434 9.63981 15.026 9.58902 14.8189C9.53823 14.6117 9.42959 14.4233 9.27578 14.2755Z" fill="#1A7408"/>
<path d="M16.7174 34.1993C19.1542 34.3991 21.604 34.0288 23.8729 33.1177C26.1418 32.2067 28.1674 30.78 29.7894 28.9505C31.4114 27.121 32.5852 24.9391 33.2178 22.5774C33.8505 20.2157 33.9246 17.7392 33.4344 15.3439C32.9441 12.9486 31.9029 10.7003 30.3933 8.77707C28.8837 6.85385 26.947 5.3085 24.7367 4.26339C22.5263 3.21828 20.1031 2.70211 17.6587 2.75574C15.2143 2.80938 12.816 3.43136 10.6537 4.57242C10.4964 4.65349 10.3604 4.77052 10.2568 4.91401C10.1533 5.0575 10.085 5.2234 10.0576 5.39823C10.0302 5.57305 10.0444 5.75188 10.0991 5.92018C10.1538 6.08847 10.2475 6.24149 10.3724 6.3668C10.5408 6.5338 10.7577 6.64331 10.9921 6.67968C11.2264 6.71605 11.4663 6.67742 11.6774 6.5693C14.5346 5.05874 17.8389 4.62333 20.9898 5.34219C24.1408 6.06104 26.9293 7.88645 28.8487 10.4867C30.768 13.087 31.6908 16.2895 31.4494 19.5124C31.208 22.7353 29.8184 25.7646 27.5331 28.05C25.2478 30.3353 22.2184 31.7249 18.9955 31.9663C15.7727 32.2077 12.5701 31.2849 9.96984 29.3656C7.36957 27.4462 5.54416 24.6577 4.82531 21.5067C4.10645 18.3558 4.54186 15.0515 6.05242 12.1943C6.16053 11.9832 6.19917 11.7433 6.1628 11.509C6.12643 11.2746 6.01692 11.0577 5.84992 10.8893C5.72461 10.7643 5.57159 10.6707 5.40329 10.616C5.235 10.5613 5.05617 10.5471 4.88134 10.5745C4.70652 10.6019 4.54062 10.6702 4.39713 10.7737C4.25364 10.8773 4.13661 11.0132 4.05554 11.1705C2.83669 13.4746 2.20873 16.0451 2.22797 18.6516C2.24721 21.2581 2.91305 23.8191 4.16577 26.1049C5.4185 28.3907 7.21895 30.3298 9.40567 31.7484C11.5924 33.1671 14.097 34.0208 16.6949 34.233L16.7174 34.1993Z" fill="#1A7408"/>
<path d="M4.56769 8.80247C4.78899 9.02437 5.05205 9.20026 5.34169 9.31997C5.63132 9.43969 5.94179 9.50086 6.25519 9.49997C6.99967 9.50013 7.71372 9.79546 8.24081 10.3212L17.2408 19.3212C17.3508 19.4312 17.4823 19.5173 17.6272 19.5739C17.772 19.6305 17.9271 19.6564 18.0825 19.6501C18.2379 19.6437 18.3903 19.6052 18.5301 19.537C18.6698 19.4688 18.794 19.3723 18.8946 19.2537C19.0747 19.0241 19.1629 18.7356 19.1421 18.4445C19.1213 18.1534 18.993 17.8805 18.7821 17.6787L9.82144 8.72935C9.29567 8.20225 9.00034 7.4882 9.00019 6.74372C9.00108 6.43032 8.9399 6.11985 8.82019 5.83022C8.70047 5.54059 8.52459 5.27753 8.30269 5.05622L6.18769 2.92435C6.11435 2.84192 6.01706 2.7845 5.90945 2.76013C5.80184 2.73576 5.68931 2.74566 5.58761 2.78845C5.48591 2.83124 5.40015 2.90477 5.34233 2.99873C5.28451 3.0927 5.25754 3.2024 5.26519 3.31247V5.19685C5.26519 5.34603 5.20592 5.4891 5.10043 5.59459C4.99494 5.70008 4.85187 5.75935 4.70269 5.75935H2.81269C2.70133 5.75011 2.58992 5.77639 2.49443 5.83441C2.39893 5.89243 2.32428 5.97921 2.28117 6.08229C2.23806 6.18538 2.22872 6.29947 2.25448 6.40819C2.28024 6.51692 2.33978 6.61469 2.42456 6.68747L4.56769 8.80247Z" fill="#1A7408"/>
</svg>
