<svg width="24" height="24" viewBox="0 0 24 24" fill="none" xmlns="http://www.w3.org/2000/svg">
<circle cx="12" cy="12" r="11.5" fill="#D3F5C6" stroke="#1A7408"/>
<path d="M13.9542 8.23749C13.5109 8.23741 13.0853 8.41131 12.769 8.72177C12.4526 9.03224 12.2708 9.45448 12.2625 9.89765L12.2462 10.8164C12.2453 10.8658 12.234 10.9144 12.213 10.9591C12.192 11.0038 12.1617 11.0435 12.1243 11.0757C12.0868 11.1079 12.0429 11.1318 11.9956 11.1458C11.9482 11.1598 11.8984 11.1637 11.8495 11.1571L10.9383 11.0328C9.74076 10.8695 8.59276 10.3182 7.49084 9.40065C7.14259 11.3315 7.82334 12.6691 9.46426 13.701L10.4833 14.3415C10.5317 14.3719 10.5718 14.4137 10.6003 14.4631C10.6288 14.5126 10.6448 14.5683 10.6468 14.6254C10.6488 14.6825 10.6368 14.7392 10.6119 14.7905C10.587 14.8419 10.5498 14.8864 10.5038 14.9202L9.57509 15.5992C10.1275 15.6342 10.6519 15.6097 11.0871 15.5233C13.8393 14.9738 15.6692 12.903 15.6692 9.48699C15.6692 9.20815 15.0783 8.23749 13.9542 8.23749ZM11.0958 9.87665C11.106 9.31435 11.2819 8.76754 11.6013 8.3047C11.9208 7.84185 12.3697 7.48354 12.8919 7.27462C13.414 7.06569 13.9862 7.01545 14.5368 7.13017C15.0873 7.24489 15.5918 7.51949 15.9871 7.91957C16.4018 7.91665 16.7548 8.02165 17.5434 7.54274C17.3486 8.4994 17.2518 8.91532 16.8358 9.4864C16.8358 13.9437 14.0959 16.1119 11.3152 16.6667C9.40942 17.047 6.63684 16.4222 5.84351 15.5922C6.24776 15.5612 7.89276 15.3845 8.84359 14.688C8.03859 14.1572 4.83726 12.273 6.94134 7.20849C7.92892 8.36174 8.93051 9.14632 9.94551 9.5634C10.6204 9.84049 10.7867 9.83465 11.0964 9.87724L11.0958 9.87665Z" fill="#1A7408"/>
</svg>
